<svg xmlns="http://www.w3.org/2000/svg" id="ios_app_store" width="141.934" height="47.446" viewBox="0 0 141.934 47.446">
    <defs>
        <style>
            .cls-2{fill:#fff}
        </style>
    </defs>
    <g id="Group_54">
        <g id="Group_52">
            <path id="Path_31" fill="#a6a6a6" d="M130.63 0H10.011c-.368 0-.724.012-1.091.012a15.887 15.887 0 0 0-2.373.213 7.637 7.637 0 0 0-2.253.748 7.2 7.2 0 0 0-1.922 1.4 7.2 7.2 0 0 0-1.4 1.922 8.392 8.392 0 0 0-.747 2.252A15.887 15.887 0 0 0 .012 8.92c0 .368-.012.735-.012 1.091v27.412c0 .368.012.724.024 1.091a15.887 15.887 0 0 0 .214 2.372 7.525 7.525 0 0 0 .746 2.254 7.145 7.145 0 0 0 1.4 1.91 7.471 7.471 0 0 0 1.922 1.4 8 8 0 0 0 2.254.747 15.887 15.887 0 0 0 2.372.214c.356.024.712.036 1.079.036h121.9c.356 0 .735 0 1.091-.012a15.888 15.888 0 0 0 2.372-.214 8.072 8.072 0 0 0 2.266-.747 7.4 7.4 0 0 0 1.922-1.4 7.619 7.619 0 0 0 1.4-1.91 7.971 7.971 0 0 0 .735-2.254 17.645 17.645 0 0 0 .225-2.372v-1.092c.012-.427.012-.854.012-1.293V11.316c0-.439 0-.866-.012-1.293V8.932a14.474 14.474 0 0 0-.225-2.372 7.971 7.971 0 0 0-.735-2.254A7.741 7.741 0 0 0 137.64.984a8.335 8.335 0 0 0-2.266-.747A15.887 15.887 0 0 0 133 .024c-.356 0-.735-.012-1.091-.012C131.5 0 131.057 0 130.63 0z"/>
            <path id="Path_32" d="M9.849 46.248c-.356 0-.712 0-1.068-.012a15.4 15.4 0 0 1-2.218-.19 6.867 6.867 0 0 1-1.969-.652 6.622 6.622 0 0 1-2.87-2.87 6.725 6.725 0 0 1-.641-1.969 15.582 15.582 0 0 1-.2-2.23c-.013-.249-.013-1.08-.013-1.08v-27.4s.012-.818.012-1.055a17.319 17.319 0 0 1 .2-2.218A6.748 6.748 0 0 1 1.736 4.6a6.155 6.155 0 0 1 1.21-1.661 6.36 6.36 0 0 1 1.649-1.21 6.768 6.768 0 0 1 1.957-.641A14.03 14.03 0 0 1 8.782.9L9.849.89h121.9l1.079.01a15.388 15.388 0 0 1 2.206.19 6.941 6.941 0 0 1 1.981.652 6.643 6.643 0 0 1 2.87 2.87 7.147 7.147 0 0 1 .641 1.957 15.592 15.592 0 0 1 .2 2.242v1.058c.012.451.012.866.012 1.293v24.826c0 .427 0 .854-.012 1.281v1.1a15.093 15.093 0 0 1-.2 2.194 6.915 6.915 0 0 1-.641 1.981 6.566 6.566 0 0 1-1.21 1.649 6.419 6.419 0 0 1-1.661 1.21 6.94 6.94 0 0 1-1.981.652 13.882 13.882 0 0 1-2.218.19c-.344.012-.712.012-1.068.012h-1.281z" transform="translate(.162 .166)"/>
        </g>
        <g id="_Group__1_" transform="translate(11.842 10.343)">
            <g id="_Group_2_1_">
                <g id="_Group_3_1_">
                    <path id="_Path__1_" d="M27.522 21.478a5.849 5.849 0 0 1 2.8-4.922 6.021 6.021 0 0 0-4.733-2.562c-1.993-.214-3.926 1.186-4.934 1.186-1.032 0-2.6-1.174-4.282-1.139a6.3 6.3 0 0 0-5.3 3.238c-2.289 3.974-.581 9.809 1.613 13.024 1.1 1.578 2.384 3.333 4.068 3.262 1.649-.071 2.266-1.044 4.246-1.044s2.538 1.044 4.258 1.008c1.767-.024 2.882-1.578 3.938-3.167A12.866 12.866 0 0 0 31 26.7a5.661 5.661 0 0 1-3.478-5.222z" class="cls-2" transform="translate(-9.984 -7.743)"/>
                    <path id="_Path_2_1_" d="M22.645 12.86a5.765 5.765 0 0 0 1.317-4.14 5.862 5.862 0 0 0-3.808 1.969 5.491 5.491 0 0 0-1.354 3.985 4.876 4.876 0 0 0 3.845-1.814z" class="cls-2" transform="translate(-8.344 -8.72)"/>
                </g>
            </g>
            <g id="Group_53" transform="translate(28.997 10.853)">
                <path id="Path_33" d="M43.765 28.826h-5.61L36.8 32.812h-2.37l5.314-14.732h2.467l5.314 14.732h-2.42zm-5.029-1.839h4.448l-2.194-6.464h-.06z" class="cls-2" transform="translate(-34.43 -17.831)"/>
                <path id="Path_34" d="M56.748 26.83c0 3.333-1.791 5.48-4.484 5.48a3.651 3.651 0 0 1-3.381-1.874h-.047v5.314H46.63V21.457h2.135v1.791h.035a3.807 3.807 0 0 1 3.416-1.9c2.741.002 4.532 2.152 4.532 5.482zm-2.266 0c0-2.171-1.127-3.606-2.835-3.606-1.684 0-2.823 1.459-2.823 3.606s1.139 3.618 2.823 3.618c1.708 0 2.835-1.423 2.835-3.618z" class="cls-2" transform="translate(-32.159 -17.223)"/>
                <path id="Path_35" d="M66.706 26.83c0 3.333-1.791 5.48-4.484 5.48a3.651 3.651 0 0 1-3.381-1.874h-.047v5.314H56.6V21.457h2.135v1.791h.036a3.807 3.807 0 0 1 3.416-1.9c2.728.002 4.519 2.152 4.519 5.482zm-2.266 0c0-2.171-1.127-3.606-2.835-3.606-1.684 0-2.823 1.459-2.823 3.606s1.139 3.618 2.823 3.618c1.72 0 2.835-1.423 2.835-3.618z" class="cls-2" transform="translate(-30.303 -17.223)"/>
                <path id="Path_36" d="M72.064 28.747c.166 1.459 1.578 2.42 3.523 2.42 1.862 0 3.191-.961 3.191-2.277 0-1.139-.807-1.827-2.716-2.3l-1.91-.463c-2.7-.652-3.962-1.922-3.962-3.974 0-2.538 2.218-4.282 5.361-4.282 3.108 0 5.243 1.744 5.314 4.282h-2.23c-.13-1.471-1.352-2.36-3.12-2.36s-2.989.9-2.989 2.206c0 1.044.771 1.649 2.669 2.123l1.625.4c3.025.712 4.282 1.933 4.282 4.08 0 2.752-2.194 4.484-5.682 4.484-3.262 0-5.468-1.684-5.61-4.353z" class="cls-2" transform="translate(-27.844 -17.87)"/>
                <path id="Path_37" d="M83.944 19.3v2.538h2.04v1.744h-2.04V29.5c0 .925.4 1.352 1.3 1.352.237 0 .486-.024.724-.047v1.732a7.084 7.084 0 0 1-1.222.107c-2.171 0-3.025-.818-3.025-2.894v-6.156H80.16V21.85h1.566V19.3z" class="cls-2" transform="translate(-25.918 -17.604)"/>
                <path id="Path_38" d="M86.07 26.834c0-3.381 1.993-5.5 5.089-5.5 3.12 0 5.089 2.123 5.089 5.5s-1.969 5.5-5.089 5.5-5.089-2.108-5.089-5.5zm7.935 0c0-2.313-1.068-3.689-2.847-3.689s-2.847 1.376-2.847 3.689 1.056 3.689 2.847 3.689 2.847-1.364 2.847-3.689z" class="cls-2" transform="translate(-24.818 -17.226)"/>
                <path id="Path_39" d="M96.19 21.459h2.1v1.827h.047a2.587 2.587 0 0 1 2.586-1.945 3.308 3.308 0 0 1 .759.083v2.064a3.081 3.081 0 0 0-.984-.13 2.226 2.226 0 0 0-2.313 2.135 3.333 3.333 0 0 0 .012.344v6.37H96.19z" class="cls-2" transform="translate(-22.934 -17.224)"/>
                <path id="Path_40" d="M110.9 29.052c-.3 1.945-2.194 3.286-4.626 3.286-3.12 0-5.065-2.088-5.065-5.456s1.945-5.551 4.97-5.551c2.965 0 4.839 2.04 4.839 5.3v.759h-7.578v.13a2.8 2.8 0 0 0 2.538 3.037c.119.012.237.012.344.012a2.435 2.435 0 0 0 2.479-1.506zm-7.449-3.214h5.373a2.568 2.568 0 0 0-2.432-2.716h-.2a2.718 2.718 0 0 0-2.74 2.7z" class="cls-2" transform="translate(-22 -17.226)"/>
            </g>
        </g>
    </g>
    <g id="_Group_4_1_" transform="translate(42.31 10.011)">
        <g id="Group_55">
            <path id="Path_41" d="M38.232 8.731a3.132 3.132 0 0 1 3.345 2.894 3.573 3.573 0 0 1-.012.617c0 2.266-1.222 3.558-3.333 3.558H35.67V8.731zM36.773 14.8h1.34a2.226 2.226 0 0 0 2.349-2.088 2.019 2.019 0 0 0-.024-.463 2.233 2.233 0 0 0-1.91-2.515 1.717 1.717 0 0 0-.427-.012h-1.328z" class="cls-2" transform="translate(-35.67 -8.387)"/>
            <path id="Path_42" d="M41.682 12.875a2.532 2.532 0 1 1 5.041-.486 3.327 3.327 0 0 1 0 .486 2.532 2.532 0 1 1-5.041.486 3.326 3.326 0 0 1 0-.486zm3.95 0c0-1.162-.522-1.839-1.435-1.839s-1.435.676-1.435 1.839.51 1.839 1.435 1.839 1.435-.676 1.435-1.839z" class="cls-2" transform="translate(-34.553 -8.131)"/>
            <path id="Path_43" d="M52.5 15.538h-1.091l-1.1-3.938h-.083l-1.1 3.938h-1.085L46.57 10.2h1.068l.961 4.08h.083l1.1-4.08h1.008l1.1 4.08h.083l.949-4.08h1.056z" class="cls-2" transform="translate(-33.641 -8.112)"/>
            <path id="Path_44" d="M53.85 10.206h1.02v.854h.083a1.582 1.582 0 0 1 1.589-.949 1.731 1.731 0 0 1 1.862 1.6 2 2 0 0 1-.012.38v3.452h-1.055v-3.19c0-.854-.368-1.281-1.151-1.281a1.221 1.221 0 0 0-1.281 1.162v3.309H53.85z" class="cls-2" transform="translate(-32.286 -8.13)"/>
            <path id="Path_45" d="M59.09 8.44h1.056v7.425H59.09z" class="cls-2" transform="translate(-31.311 -8.44)"/>
            <path id="Path_46" d="M61.223 12.875a2.532 2.532 0 1 1 5.041-.486 3.327 3.327 0 0 1 0 .486 2.532 2.532 0 1 1-5.041.486 1.67 1.67 0 0 1 0-.486zm3.95 0c0-1.162-.522-1.839-1.435-1.839s-1.435.676-1.435 1.839.51 1.839 1.435 1.839 1.435-.676 1.435-1.839z" class="cls-2" transform="translate(-30.917 -8.131)"/>
            <path id="Path_47" d="M66.4 14.036c0-.961.712-1.518 1.981-1.589l1.447-.083V11.9c0-.569-.368-.878-1.091-.878-.593 0-1 .214-1.115.593H66.6c.107-.913.973-1.506 2.182-1.506 1.34 0 2.1.664 2.1 1.791v3.653h-1.02v-.747h-.082a1.82 1.82 0 0 1-1.6.842 1.6 1.6 0 0 1-1.767-1.435.959.959 0 0 1-.013-.177zm3.44-.451v-.451l-1.3.083c-.735.047-1.068.3-1.068.771s.415.759.984.759a1.261 1.261 0 0 0 1.376-1.127.044.044 0 0 1 .008-.035z" class="cls-2" transform="translate(-29.95 -8.129)"/>
            <path id="Path_48" d="M71.35 13.185c0-1.684.866-2.752 2.218-2.752a1.756 1.756 0 0 1 1.637.937h.083V8.44h1.056v7.425h-1.02v-.842h-.083a1.867 1.867 0 0 1-1.672.937c-1.369-.012-2.219-1.079-2.219-2.775zm1.091 0c0 1.139.534 1.815 1.423 1.815s1.435-.688 1.435-1.815-.557-1.815-1.435-1.815-1.423.7-1.423 1.815z" class="cls-2" transform="translate(-29.029 -8.44)"/>
            <path id="Path_49" d="M79.232 12.876a2.532 2.532 0 1 1 5.041-.486 3.327 3.327 0 0 1 0 .486 2.532 2.532 0 1 1-5.041.486 3.324 3.324 0 0 1 0-.486zm3.95 0c0-1.162-.522-1.839-1.435-1.839s-1.435.676-1.435 1.839.51 1.839 1.435 1.839 1.435-.677 1.435-1.839z" class="cls-2" transform="translate(-27.563 -8.131)"/>
            <path id="Path_50" d="M84.67 10.206h1.02v.854h.083a1.582 1.582 0 0 1 1.589-.949 1.731 1.731 0 0 1 1.862 1.6 2 2 0 0 1-.012.38v3.452h-1.055v-3.19c0-.854-.368-1.281-1.151-1.281a1.221 1.221 0 0 0-1.281 1.162v3.309H84.67z" class="cls-2" transform="translate(-26.549 -8.13)"/>
            <path id="Path_51" d="M93.816 9.07v1.352h1.162v.89h-1.162v2.752c0 .557.225.807.759.807.13 0 .273-.012.4-.024v.878a4.634 4.634 0 0 1-.569.059c-1.174 0-1.637-.415-1.637-1.447v-3.013h-.839v-.89h.842V9.07z" class="cls-2" transform="translate(-25.198 -8.323)"/>
            <path id="Path_52" d="M95.7 8.44h1.044v2.942h.083a1.657 1.657 0 0 1 1.625-.961 1.754 1.754 0 0 1 1.85 1.661 1.556 1.556 0 0 1-.012.332v3.452h-1.055v-3.191c0-.854-.391-1.281-1.139-1.281a1.232 1.232 0 0 0-1.34 1.139v3.333H95.7z" class="cls-2" transform="translate(-24.496 -8.44)"/>
            <path id="Path_53" d="M105.514 14.107a2.159 2.159 0 0 1-2.313 1.542 2.426 2.426 0 0 1-2.491-2.36 2.169 2.169 0 0 1 .024-.391 2.461 2.461 0 0 1 2.111-2.764c.119-.012.237-.024.344-.024 1.483 0 2.384 1.02 2.384 2.693v.368H101.8v.059a1.412 1.412 0 0 0 1.293 1.53h.13a1.273 1.273 0 0 0 1.269-.652zm-3.7-1.72h2.693a1.28 1.28 0 0 0-1.186-1.376h-.13a1.367 1.367 0 0 0-1.388 1.352c.012 0 .012.012.012.024z" class="cls-2" transform="translate(-23.563 -8.129)"/>
        </g>
    </g>
</svg>
