<svg xmlns="http://www.w3.org/2000/svg" width="85.974" height="27.294">
    <defs>
        <style>
            .cls-3{fill:#fee78e}.cls-4{fill:#006e95}.cls-6{fill:#f6f7f7}.cls-10{fill:#e1e2e3}.cls-11{fill:#f3f3f4}.cls-15{fill:#dadbdc}.cls-19{fill:#c4c6c8}.cls-23{fill:#ebebec}.cls-27{fill:#a0a2a5}.cls-28{fill:#ebeced}.cls-34{fill:#aeb0b2}.cls-40{fill:#b8babc}.cls-53{fill:#b1b3b5}.cls-58{fill:#808284}.cls-62{fill:#adafb2}.cls-68{fill:#00679c}.cls-70{fill:#96989b}.cls-72{fill:#006b91}
        </style>
    </defs>
    <g id="Group_3487" data-name="Group 3487" transform="translate(-241.003 -114.029)">
        <path id="Path_9095" data-name="Path 9095" d="M241 139.569v-23.763a1.956 1.956 0 0 1 .534-1.121 2.121 2.121 0 0 1 1.64-.656h81.441a2.336 2.336 0 0 1 1.19.205 2.007 2.007 0 0 1 1.165 1.844v23.118a2.065 2.065 0 0 1-1.251 1.978c-.2.1-.424.064-.624.145h-.093c-.094-.047-.194-.013-.291-.023h-81.726a1.993 1.993 0 0 1-1.86-1.223c-.085-.153-.046-.343-.125-.504z" style="fill:#fdd128"/>
        <path id="Path_9096" data-name="Path 9096" d="M243.169 141.284c.092 0 .184-.007.277-.007h81.061c.093 0 .185.005.277.007a.025.025 0 0 1-.006.039h-81.6a.024.024 0 0 1-.009-.039z" style="fill:#fedc57"/>
        <path id="Path_9097" data-name="Path 9097" class="cls-3" d="m242.944 141.323-.006-.039h.231l.006.039z"/>
        <path id="Path_9098" data-name="Path 9098" class="cls-3" d="m324.778 141.323.006-.039c.076.007.162-.042.225.039z"/>
        <path id="Path_9099" data-name="Path 9099" class="cls-4" d="m296.068 126.655-.624 1.968c-.294.93-.585 1.861-.881 2.79a1.087 1.087 0 0 1-1.134.826h-1.017a1.068 1.068 0 0 1-1.111-.793q-1.218-3.77-2.427-7.542a1.639 1.639 0 0 1-.061-.269c-.046-.34.088-.5.425-.5h1.5a1.076 1.076 0 0 1 1.1.836l1.265 4.247c.1-.041.1-.135.117-.207l1.2-4.066a.968.968 0 0 1 1.092-.811h1.224a.947.947 0 0 1 1.015.761q.512 1.734 1.017 3.47l.253.856c.1-.05.1-.136.116-.2l1.2-4.018a1.089 1.089 0 0 1 1.15-.864h1.432c.375 0 .527.168.447.537-.066.307-.17.606-.266.9q-1.1 3.432-2.212 6.862a1.073 1.073 0 0 1-1.107.8h-1.017a1.1 1.1 0 0 1-1.147-.842q-.719-2.272-1.434-4.547l-.065-.2z"/>
        <path id="Path_9100" data-name="Path 9100" d="M264.208 120.131c.034.014.078.018.1.042a10.144 10.144 0 0 1 1.893 2.645 3.441 3.441 0 0 0-.473.937 6.762 6.762 0 0 1-2.365 2.737 6.587 6.587 0 0 1-1.491.765.235.235 0 0 0-.168.2c-.017.091-.035.187-.161.189-.192-.121-.132-.329-.162-.5-.053-.309-.075-.623-.141-.93a.315.315 0 0 0-.472-.265c-.549.194-1.1.384-1.649.578-.672.236-1.346.471-2.017.709a.459.459 0 0 1-.292.038c-.015 0-.038-.006-.042-.016-.154-.349-.521-.418-.8-.6a6.96 6.96 0 0 1-2.691-3.066 6.781 6.781 0 0 1 .027-5.641.831.831 0 0 0 .122-.5 9.618 9.618 0 0 1 2.96-.5 10.331 10.331 0 0 1 3.733.577.977.977 0 0 1 .389.6 5.578 5.578 0 0 1 .1 2.079 11.82 11.82 0 0 1-.583 2.6c-.137.431-.291.858-.465 1.277-.023.056-.05.112-.071.169a.387.387 0 0 0 .034.434c.132.141.277.071.427.022.651-.211 1.29-.457 1.942-.664.287-.091.411-.026.447.271.045.388.1.775.149 1.163a1.246 1.246 0 0 0 .015.137c.036.163.084.324.284.345s.282-.119.345-.278a14.8 14.8 0 0 0 1-3.843 6.11 6.11 0 0 0 .005-1.468c-.009-.086-.028-.181.071-.243z" style="fill:#fefefe"/>
        <path id="Path_9101" data-name="Path 9101" class="cls-4" d="M287.946 131.863a.459.459 0 0 1-.5.375h-1.431c-.429 0-.591-.164-.6-.6 0-.036-.005-.072-.008-.113a.669.669 0 0 0-.268.146 5.143 5.143 0 0 1-4.993.232 2.487 2.487 0 0 1-1.5-2.51 2.592 2.592 0 0 1 1.825-2.465 5.035 5.035 0 0 1 1.874-.337h2.516c.386 0 .314.011.29-.326a2.224 2.224 0 0 0-.025-.23 1.263 1.263 0 0 0-1.389-1.167 2.139 2.139 0 0 0-1.921.679.984.984 0 0 1-.791.316h-1.155a.525.525 0 0 1-.585-.623 1.969 1.969 0 0 1 1.282-1.786 5.563 5.563 0 0 1 1.786-.428 8.76 8.76 0 0 1 2.96.118 3.217 3.217 0 0 1 2.434 2.012 2.879 2.879 0 0 1 .207 1.033.372.372 0 0 0-.018.181v5.312a.372.372 0 0 0 .01.181z"/>
        <path id="Path_9102" data-name="Path 9102" class="cls-4" d="M313.14 123.136h.669a.835.835 0 0 1 .944.694c.352 1.169.7 2.338 1.061 3.506a5.859 5.859 0 0 0 .643 1.5 1.33 1.33 0 0 0 .876.661c.143.027.217.01.262-.153.508-1.859 1.026-3.716 1.54-5.574a.749.749 0 0 1 .831-.632h1.525a.4.4 0 0 1 .426.557q-1.108 4.044-2.222 8.086a8.046 8.046 0 0 1-.729 1.788 2.991 2.991 0 0 1-2.8 1.654 12.58 12.58 0 0 1-2.069-.166.561.561 0 0 1-.549-.659c0-.261-.005-.522 0-.784a.489.489 0 0 1 .506-.513 4.669 4.669 0 0 1 1.1.115 1.294 1.294 0 0 0 1.292-.485 3.025 3.025 0 0 0 .517-1.073c.025-.08.021-.128-.086-.129a3.44 3.44 0 0 1-3.184-2.333 17.17 17.17 0 0 1-.829-2.368q-.471-1.554-.936-3.11c-.112-.375.038-.578.431-.581z"/>
        <path id="Path_9103" data-name="Path 9103" class="cls-4" d="M274.454 131.817a.452.452 0 0 1-.487.42q-.9.008-1.8 0a.482.482 0 0 1-.5-.466 1.61 1.61 0 0 1 0-.184v-7.313a7.459 7.459 0 0 1 .136-1.444 2.972 2.972 0 0 1 2.563-2.5 11.6 11.6 0 0 1 4.087-.008.551.551 0 0 1 .532.629c0 .262.005.523 0 .785a.5.5 0 0 1-.533.535 3.185 3.185 0 0 1-.8-.063 4.709 4.709 0 0 0-1.9.031 1.283 1.283 0 0 0-1.194 1.236 2.349 2.349 0 0 0-.026 1.087c.036.042.085.031.129.031h2.8a.219.219 0 0 0 .113-.019.439.439 0 0 1 .355.45c.012.345.012.692 0 1.038a.488.488 0 0 1-.547.494h-2.887c-.074.04-.039.11-.039.165v4.933a.3.3 0 0 0-.002.163z"/>
        <path id="Path_9104" data-name="Path 9104" class="cls-4" d="M307.355 124.154a7.346 7.346 0 0 1 1.316-.792 5.673 5.673 0 0 1 2.3-.4.462.462 0 0 1 .476.467q.02.669 0 1.338a.465.465 0 0 1-.514.475c-.408 0-.816-.01-1.222-.043a2.657 2.657 0 0 0-2.31 1.163c-.069.081-.048.174-.048.264v4.982c0 .46-.166.627-.624.627h-1.617c-.385 0-.573-.183-.573-.56v-7.981a.5.5 0 0 1 .571-.561h1.663a.506.506 0 0 1 .58.578c.003.133.002.263.002.443z"/>
        <path id="Path_9105" data-name="Path 9105" class="cls-4" d="M264.208 120.131a7.154 7.154 0 0 1 0 1.993 16.09 16.09 0 0 1-.992 3.683.39.39 0 0 1-.428.28.38.38 0 0 1-.358-.361c-.069-.494-.142-.988-.2-1.484-.018-.154-.048-.191-.207-.134-.679.247-1.365.475-2.044.72a.454.454 0 0 1-.534-.056.461.461 0 0 1-.042-.556 16.075 16.075 0 0 0 1.036-3.432 5.873 5.873 0 0 0-.018-2.6 3.5 3.5 0 0 0-.3-.646 10.625 10.625 0 0 1 4.008 2.462.214.214 0 0 1 .079.131z"/>
        <path id="Path_9106" data-name="Path 9106" class="cls-6" d="M251.817 118.115a4.528 4.528 0 0 1 .923-.415.293.293 0 0 1 .051.379 7.129 7.129 0 0 0-.536 2.622 6.8 6.8 0 0 0 .289 2.11 7.268 7.268 0 0 0 3.322 4.273c.212.128.245.2.187.429-.061.125-.205.117-.3.187a.79.79 0 0 1-.434.073 9.711 9.711 0 0 1-2-1.755 8.022 8.022 0 0 1-1.748-3.609 7.306 7.306 0 0 1-.134-1.164 8.007 8.007 0 0 1 .2-2.326 4.717 4.717 0 0 0 .18-.804z"/>
        <path id="Path_9107" data-name="Path 9107" d="M256.027 127.483c.033-.236-.164-.271-.306-.363a8.465 8.465 0 0 1-1.568-1.271 7.539 7.539 0 0 1-1.506-2.4 5.772 5.772 0 0 1-.417-1.716 8.031 8.031 0 0 1-.083-.936 8.153 8.153 0 0 1 .157-1.436 5.75 5.75 0 0 1 .4-1.32.821.821 0 0 0 .035-.341 3.01 3.01 0 0 1 .688-.242c.174.06.171.152.09.305a6.745 6.745 0 0 0-.685 2.209 6.677 6.677 0 0 0 1.632 5.287 6.74 6.74 0 0 0 2.31 1.711c.156.07.121.132 0 .2v.019a.246.246 0 0 0 .04.019.13.13 0 0 1-.076.129 2.367 2.367 0 0 1-.572.2.137.137 0 0 1-.139-.054z" style="fill:#fbfbfb"/>
        <path id="Path_9108" data-name="Path 9108" d="M250.519 118.891a3.632 3.632 0 0 1 .7-.45c.2.031.187.18.154.317a8.847 8.847 0 0 0-.187 3.107 8.553 8.553 0 0 0 .831 2.716 8.164 8.164 0 0 0 1.178 1.756 7.922 7.922 0 0 0 1.694 1.48.8.8 0 0 1 .248.352.71.71 0 0 0 .3.331c.264.168.539.316.8.494.08.055.176.1.177.218-.12.172-.276.1-.414.046a7.053 7.053 0 0 1-1.253-.635 9.174 9.174 0 0 1-4.318-6.824 8.807 8.807 0 0 1 .09-2.588c.013-.111-.032-.211 0-.32z" style="fill:#efeff0"/>
        <path id="Path_9109" data-name="Path 9109" d="M249.366 119.818a3.168 3.168 0 0 1 .548-.473c.156.053.153.184.136.305a8.012 8.012 0 0 0-.076 1.4 9.592 9.592 0 0 0 3.616 7.245 10.124 10.124 0 0 0 2.36 1.381.425.425 0 0 1 .3.321.459.459 0 0 1-.241.388.15.15 0 0 1-.1.024 7.517 7.517 0 0 0-1.257-.659 10.354 10.354 0 0 1-4.341-4.625 9.737 9.737 0 0 1-.784-2.47 10.46 10.46 0 0 1-.143-2.567c.001-.088-.063-.179-.018-.27z" style="fill:#e6e7e7"/>
        <path id="Path_9110" data-name="Path 9110" class="cls-10" d="M249.366 119.818a.3.3 0 0 1 .115.315 9.732 9.732 0 0 0 .075 2.039 10.442 10.442 0 0 0 .4 1.765 10.178 10.178 0 0 0 2.6 4.159 10.212 10.212 0 0 0 2.535 1.768c.214.1.439.177.651.286a.3.3 0 0 1 .177.237c.063.168-.041.233-.173.281a1.945 1.945 0 0 1-.733-.26 10.848 10.848 0 0 1-2.192-1.39 10.31 10.31 0 0 1-2.145-2.386 10.783 10.783 0 0 1-1.626-4.193 13.707 13.707 0 0 1-.114-2.064.5.5 0 0 1 .056-.2 2.154 2.154 0 0 1 .374-.357z"/>
        <path id="Path_9111" data-name="Path 9111" class="cls-11" d="M255.054 128.211c-.062-.216-.24-.316-.41-.435a8.462 8.462 0 0 1-3.538-8.141 8 8 0 0 1 .181-.925.231.231 0 0 0-.07-.269 3.082 3.082 0 0 1 .6-.326c.08.064.133.116.089.247a7.3 7.3 0 0 0-.378 2.05 7.942 7.942 0 0 0 1.829 5.5 9.418 9.418 0 0 0 1.788 1.619 1.684 1.684 0 0 1 .2.189 1.548 1.548 0 0 1-.291.491z"/>
        <path id="Path_9112" data-name="Path 9112" d="M247.977 121.379a1.568 1.568 0 0 1 .278-.365c.145-.034.165.069.187.17a3.922 3.922 0 0 1 .074.778 4.21 4.21 0 0 0 .1.7 12.089 12.089 0 0 0 .306 1.32 11.842 11.842 0 0 0 .639 1.646 11.04 11.04 0 0 0 1.675 2.521 12.343 12.343 0 0 0 2.146 1.875 11.169 11.169 0 0 0 1.549.851c.158.078.33.141.387.337a.317.317 0 0 1-.265.322 10.083 10.083 0 0 1-1.837-.943 11.751 11.751 0 0 1-2.227-1.887 10.764 10.764 0 0 1-1.885-2.738 11.408 11.408 0 0 1-.753-1.924 11.185 11.185 0 0 1-.418-2.3.645.645 0 0 1 .044-.363z" style="fill:#d6d7d8"/>
        <path id="Path_9113" data-name="Path 9113" d="M247.043 122.908a2.767 2.767 0 0 1 .291-.548c.15 0 .2.107.206.23a8.666 8.666 0 0 0 .429 1.892 11.535 11.535 0 0 0 1.265 2.736 12.1 12.1 0 0 0 4.908 4.464c.174.086.41.115.482.351.015.113-.061.177-.13.245a.222.222 0 0 1-.192.085 13.734 13.734 0 0 1-3.067-1.979 12.571 12.571 0 0 1-2.538-3.02 12.782 12.782 0 0 1-1.237-2.692 11.335 11.335 0 0 1-.417-1.764z" style="fill:#c9cacc"/>
        <path id="Path_9114" data-name="Path 9114" d="M248.992 120.177a3.581 3.581 0 0 1 .051.895 10.074 10.074 0 0 0 .69 3.5 10.408 10.408 0 0 0 4.643 5.385 13.179 13.179 0 0 0 1.372.658c.047.2-.063.3-.24.361a10.083 10.083 0 0 1-2.152-1.135 10.847 10.847 0 0 1-1.6-1.345 10.518 10.518 0 0 1-2.075-2.966 11.325 11.325 0 0 1-.483-1.142 10.038 10.038 0 0 1-.522-2.373 6.6 6.6 0 0 1-.067-1.4.116.116 0 0 1 .024-.062 2.586 2.586 0 0 1 .359-.376z" style="fill:#dddedf"/>
        <path id="Path_9115" data-name="Path 9115" class="cls-15" d="M248.628 120.56a4.711 4.711 0 0 1 .085.845 13.11 13.11 0 0 0 .152 1.345 10.748 10.748 0 0 0 .771 2.493 10.927 10.927 0 0 0 1.939 2.935 10.589 10.589 0 0 0 2.459 1.982 7.968 7.968 0 0 0 1.318.646c.074.026.106.085.153.133.062.105-.015.168-.073.237-.044.039-.087.079-.152.041a4.3 4.3 0 0 0-1.087-.578 8.439 8.439 0 0 1-1.2-.769 10.073 10.073 0 0 1-1.6-1.406 11.968 11.968 0 0 1-1.043-1.3 11.172 11.172 0 0 1-1.007-1.795 13.125 13.125 0 0 1-.816-2.605c-.121-.52-.08-1.047-.171-1.564-.014-.081-.019-.149-.1-.186a3.063 3.063 0 0 1 .372-.454z"/>
        <path id="Path_9116" data-name="Path 9116" d="M247.977 121.379c.045.588.155 1.167.24 1.75a6.15 6.15 0 0 0 .206.823 11.955 11.955 0 0 0 1.325 2.987 12.163 12.163 0 0 0 2.179 2.539 13.479 13.479 0 0 0 2.057 1.464 6.646 6.646 0 0 0 .893.413.684.684 0 0 1 .176.14c.043.16-.047.234-.18.28a3.093 3.093 0 0 1-.987-.419 11.585 11.585 0 0 1-3.266-2.573 12.316 12.316 0 0 1-1.754-2.565 13.468 13.468 0 0 1-.9-2.35c-.183-.633-.236-1.29-.37-1.933a2.94 2.94 0 0 1 .381-.556z" style="fill:#d1d2d4"/>
        <path id="Path_9117" data-name="Path 9117" d="M267.027 124.974a3.371 3.371 0 0 1 .181.831.177.177 0 0 1-.026.192 10.914 10.914 0 0 1-2.727 2.588 9.338 9.338 0 0 1-2.021.948.865.865 0 0 0-.528.3c-.017.027-.055.02-.084 0a.168.168 0 0 1-.047-.129.457.457 0 0 0-.076-.271.387.387 0 0 1 .008-.365.091.091 0 0 1 .057-.035c.02.023 0-.012.021.009a.093.093 0 0 1 .034.078.116.116 0 0 0-.031-.083c0-.152.116-.185.224-.219a8.925 8.925 0 0 0 1.841-.834 8.171 8.171 0 0 0 2.058-1.748 10.2 10.2 0 0 0 .8-1.09c.076-.11.152-.224.316-.172z" style="fill:#eff0f0"/>
        <path id="Path_9118" data-name="Path 9118" d="M261.56 127.62a.215.215 0 0 0 .052-.17c0-.186.1-.246.275-.3a6.006 6.006 0 0 0 1.031-.491 6.92 6.92 0 0 0 2.23-2.052 6.514 6.514 0 0 0 .63-1.191c.075-.167.139-.338.206-.508a.142.142 0 0 1 .219-.088 3.007 3.007 0 0 1 .306.649.082.082 0 0 1 .006.106 10.8 10.8 0 0 1-1.175 1.945 7.6 7.6 0 0 1-3.547 2.423c-.079.026-.159.065-.242.006a.212.212 0 0 1 .009-.329z" style="fill:#fafbfb"/>
        <path id="Path_9119" data-name="Path 9119" class="cls-6" d="M261.6 127.944a8.35 8.35 0 0 1 .988-.421 7.774 7.774 0 0 0 1.718-1.094 7.658 7.658 0 0 0 1.581-1.867 5.177 5.177 0 0 0 .413-.817 1.053 1.053 0 0 1 .206-.278 3.133 3.133 0 0 1 .281.729.227.227 0 0 1-.024.219 8.826 8.826 0 0 1-1.913 2.449 8.19 8.19 0 0 1-2.317 1.429c-.1.039-.206.062-.306.1-.17.067-.354.11-.438.3a.084.084 0 0 1-.1.039.186.186 0 0 1-.1-.143.905.905 0 0 0-.041-.327.979.979 0 0 1-.028-.151.2.2 0 0 1 .08-.167z"/>
        <path id="Path_9120" data-name="Path 9120" class="cls-19" d="M247.043 122.908c.138.038.126.167.144.263a10.89 10.89 0 0 0 .683 2.355 13.033 13.033 0 0 0 2.971 4.369 11.855 11.855 0 0 0 2.193 1.664 8.414 8.414 0 0 0 1.129.609.357.357 0 0 1 .158.161c.022.152-.069.219-.2.258a4.143 4.143 0 0 1-.928-.449 12.455 12.455 0 0 1-2.822-2.133 13.237 13.237 0 0 1-1.837-2.3 13.053 13.053 0 0 1-1.328-2.825 8.048 8.048 0 0 1-.384-1.509 1.828 1.828 0 0 1 .221-.463z"/>
        <path id="Path_9121" data-name="Path 9121" d="M256.194 130.017a.389.389 0 0 0-.235-.231 9.9 9.9 0 0 1-2.891-1.807 9.634 9.634 0 0 1-2.236-2.979 9.3 9.3 0 0 1-.919-3.418 9.086 9.086 0 0 1 .05-1.992.4.4 0 0 0-.049-.245.667.667 0 0 1 .233-.182c.18-.049.228.043.2.2a8.507 8.507 0 0 0-.126 1.76 11.375 11.375 0 0 0 .139 1.182 6.5 6.5 0 0 0 .334 1.4 9.578 9.578 0 0 0 .834 1.823 8.846 8.846 0 0 0 1.531 1.95c.285.268.578.522.882.764a7.067 7.067 0 0 0 1.5.92 6.876 6.876 0 0 0 .947.394.156.156 0 0 1 .077.075.137.137 0 0 1-.015.133.514.514 0 0 0-.147.2.116.116 0 0 1-.109.053z" style="fill:#e9e9ea"/>
        <path id="Path_9122" data-name="Path 9122" d="M246.825 123.373a.986.986 0 0 1 .218.549 11.772 11.772 0 0 0 .825 2.374 12.6 12.6 0 0 0 1.15 1.96 11.591 11.591 0 0 0 1.375 1.635 12.169 12.169 0 0 0 2.4 1.893c.383.225.764.452 1.167.64a.4.4 0 0 1 .157.131.356.356 0 0 1-.4.388.447.447 0 0 0-.29-.343 13.621 13.621 0 0 1-2.791-1.942 13.15 13.15 0 0 1-2.719-3.428 12.332 12.332 0 0 1-.991-2.273c-.077-.242-.142-.486-.22-.726a.909.909 0 0 1-.032-.5 1.1 1.1 0 0 1 .151-.358z" style="fill:#c0c1c3"/>
        <path id="Path_9123" data-name="Path 9123" class="cls-11" d="M261.707 128.726c.025-.33.308-.368.533-.44a6.9 6.9 0 0 0 2.071-1.116 7.514 7.514 0 0 0 1.324-1.239 8.356 8.356 0 0 0 .869-1.269 2.828 2.828 0 0 0 .286-.466 3.3 3.3 0 0 1 .237.778.52.52 0 0 0-.228.211 8.5 8.5 0 0 1-3.33 3.122 7.635 7.635 0 0 1-1.488.614.273.273 0 0 0-.184.128h-.048c-.156-.089-.161-.198-.042-.323z"/>
        <path id="Path_9124" data-name="Path 9124" d="M267.3 126.449a.629.629 0 0 1 .033.3.344.344 0 0 0 .013.274 1.265 1.265 0 0 1 .018.342.125.125 0 0 1-.057.116c-.372.283-.669.645-1.016.956a10.684 10.684 0 0 1-2.572 1.68c-.522.248-1.087.373-1.62.589-.207.085-.182-.123-.255-.208a.512.512 0 0 1-.024-.321.378.378 0 0 1 .272-.226 9.506 9.506 0 0 0 3.56-1.873 8.525 8.525 0 0 0 1.224-1.245 1.108 1.108 0 0 1 .424-.384z" style="fill:#e5e6e7"/>
        <path id="Path_9125" data-name="Path 9125" class="cls-23" d="M267.3 126.449c-.035.044.052.149-.082.149-.075 0-.108.078-.149.132a9.364 9.364 0 0 1-3.942 2.959 5.292 5.292 0 0 1-1.044.349.326.326 0 0 0-.192.118.174.174 0 0 1-.115-.15c0-.067 0-.135.071-.173.027-.193.15-.272.33-.323a8.777 8.777 0 0 0 3.171-1.695 8.672 8.672 0 0 0 1.592-1.716c.079-.114.232-.148.265-.294a2.16 2.16 0 0 1 .095.644z"/>
        <path id="Path_9126" data-name="Path 9126" d="M245.916 127.384a4.357 4.357 0 0 1 .048-.774c.158.007.187.142.234.249a13.919 13.919 0 0 0 2.2 3.465 14.5 14.5 0 0 0 3.967 3.254c.139.078.293.144.349.316a.4.4 0 0 1-.385.314c-.586-.455-1.253-.79-1.845-1.237-.416-.314-.806-.662-1.2-1.009a14.838 14.838 0 0 1-3.109-4 2.1 2.1 0 0 1-.259-.578z" style="fill:#a4a6a9"/>
        <path id="Path_9127" data-name="Path 9127" d="M252.684 133.892c-.526-.326-1.068-.63-1.574-.985a12.549 12.549 0 0 1-1.393-1.112c-.336-.314-.672-.627-.989-.959a14.478 14.478 0 0 1-1.69-2.194 17.359 17.359 0 0 1-1.074-2.032 3.069 3.069 0 0 1 .082-.6c.107-.01.113.082.146.146.273.533.49 1.093.787 1.615a14.729 14.729 0 0 0 2.924 3.682 18.238 18.238 0 0 0 1.718 1.35 6.583 6.583 0 0 0 1.067.629.283.283 0 0 1 .192.366c-.045.069-.089.145-.196.094z" style="fill:#aaacae"/>
        <path id="Path_9128" data-name="Path 9128" d="M246.673 123.736a15.2 15.2 0 0 0 .724 2.215 13.7 13.7 0 0 0 1.02 1.941 13.872 13.872 0 0 0 1.847 2.295 13.516 13.516 0 0 0 1.857 1.528 9.923 9.923 0 0 0 1.425.831c.277.132.3.182.166.384 0 .046-.027.058-.066.056a16.262 16.262 0 0 1-1.866-1.121 9.945 9.945 0 0 1-1.335-1.046 15.036 15.036 0 0 1-1.991-2.281c-.282-.428-.573-.854-.814-1.3a9.509 9.509 0 0 1-.65-1.435c-.082-.245-.2-.481-.271-.728a2.741 2.741 0 0 1-.219-.873 1.576 1.576 0 0 1 .173-.466z" style="fill:#bcbec0"/>
        <path id="Path_9129" data-name="Path 9129" class="cls-27" d="M245.916 127.384a1.091 1.091 0 0 1 .318.471 14.273 14.273 0 0 0 1.607 2.431 16.8 16.8 0 0 0 2.062 2.079c.558.471 1.168.857 1.755 1.281a2.225 2.225 0 0 0 .443.239.342.342 0 0 1 .226.287.109.109 0 0 1-.025.128c-.067.044-.127.106-.219.093a15.255 15.255 0 0 1-6.14-6.285c.076.182.076.182 0 .3a4.524 4.524 0 0 1-.027-1.024z"/>
        <path id="Path_9130" data-name="Path 9130" class="cls-19" d="M266.828 131.08a2.941 2.941 0 0 1-.2.553 4.709 4.709 0 0 1-1.244.772 9.794 9.794 0 0 1-1.7.707 11.725 11.725 0 0 1-2.006.5c-.433.058-.863.135-1.3.179a1.11 1.11 0 0 1-.3.012 5.246 5.246 0 0 0-1.354.025.151.151 0 0 1-.146-.046.569.569 0 0 1 .4-.537 14.974 14.974 0 0 0 2.252-.1 13.211 13.211 0 0 0 2.039-.455 14.683 14.683 0 0 0 2.583-1.145c.2-.11.386-.251.585-.368.124-.077.241-.156.391-.097z"/>
        <path id="Path_9131" data-name="Path 9131" class="cls-27" d="M264.355 135.144a2.824 2.824 0 0 1-.533.5 1.346 1.346 0 0 1-.532.258c-.677.178-1.373.246-2.056.384a.707.707 0 0 1-.138.01c-1.024.006-2.048.008-3.073 0a3.664 3.664 0 0 1-.705-.108 2.811 2.811 0 0 0-.523-.078.326.326 0 0 1-.282-.129c-.015-.236.073-.339.381-.444.416.006.809.17 1.228.171.113 0 .229.021.344.021.685 0 1.371.013 2.056 0a7.337 7.337 0 0 0 1.363-.149l1.416-.3c.254-.054.5-.152.757-.188.107-.018.214-.051.297.052z"/>
        <path id="Path_9132" data-name="Path 9132" class="cls-28" d="m256.448 129.653-.058-.05a10.289 10.289 0 0 1-2.4-1.292 9.608 9.608 0 0 1-2.222-2.347 9.994 9.994 0 0 1-1.219-2.683 9.481 9.481 0 0 1-.294-3.438 3.186 3.186 0 0 1 .13-.847l.136-.105c.128.021.145.086.117.211a7.2 7.2 0 0 0-.193 1.707 9.26 9.26 0 0 0 .281 2.136 9.126 9.126 0 0 0 1.156 2.722 9.317 9.317 0 0 0 1.205 1.5 9.07 9.07 0 0 0 2.7 1.9c.188.087.376.225.607.129.236-.039.309.03.293.275-.062.084-.098.2-.239.182z"/>
        <path id="Path_9133" data-name="Path 9133" d="M256.529 135.923a.471.471 0 0 0 .233.09 22.785 22.785 0 0 0 4.3.183 2.179 2.179 0 0 0 .636-.1c.4-.121.818-.074 1.216-.231.284-.112.618-.1.911-.222a2.41 2.41 0 0 1-.77.6 10.618 10.618 0 0 1-2.547.418c-.337.032-.672.035-1.008.039a15.3 15.3 0 0 1-2.4-.2 4.18 4.18 0 0 1-.938-.2c-.085-.222.122-.272.226-.383a.137.137 0 0 1 .141.006z" style="fill:#9a9c9f"/>
        <path id="Path_9134" data-name="Path 9134" class="cls-10" d="M261.937 130.479c.048.045.04.112.055.171a1.666 1.666 0 0 1 .6-.236 9.158 9.158 0 0 0 2.84-1.421 8.715 8.715 0 0 0 1.657-1.512c.015-.017.03-.043.049-.047.247-.053.212-.245.21-.421a3.54 3.54 0 0 1 .035.884 8.6 8.6 0 0 1-1.154 1.119 10.286 10.286 0 0 1-1.64 1.1 9.725 9.725 0 0 1-1.91.791.913.913 0 0 0-.563.286.083.083 0 0 1-.124.013c-.167-.172-.066-.4-.13-.6a.152.152 0 0 1 .075-.127z"/>
        <path id="Path_9135" data-name="Path 9135" d="M258.6 133.742a8.914 8.914 0 0 1 1.5-.047 6.044 6.044 0 0 0 1.3-.138 11.159 11.159 0 0 0 1.964-.449 13.119 13.119 0 0 0 1.812-.711c.49-.246.945-.557 1.454-.764a2.79 2.79 0 0 1-.221.508 3.571 3.571 0 0 1-.944.564 13.117 13.117 0 0 1-2.977 1.077c-.567.139-1.149.177-1.722.267-.351.055-.7.028-1.046.074-.327.043-.655-.056-.987-.009a.4.4 0 0 1-.32-.108c-.056-.173.014-.257.187-.264z" style="fill:#bfc1c3"/>
        <path id="Path_9136" data-name="Path 9136" d="M264.355 135.144c-.673.1-1.314.35-1.984.453-.353.054-.691.182-1.041.21a8.366 8.366 0 0 1-.636.026c-.777 0-1.553.006-2.33 0a4.826 4.826 0 0 1-1.472-.244c-.013-.14.08-.2.189-.245a2.536 2.536 0 0 1 1.11.021 1.316 1.316 0 0 0 .178.042c.52-.011 1.037.1 1.558.051.7-.066 1.4-.11 2.091-.23a17.494 17.494 0 0 0 2.088-.519c.083-.025.15-.08.228-.109.159-.059.323-.123.467.035a2.084 2.084 0 0 1-.446.509z" style="fill:#a5a6a9"/>
        <path id="Path_9137" data-name="Path 9137" d="M266.828 131.08a15.4 15.4 0 0 1-3.173 1.593 15.03 15.03 0 0 1-1.841.465 15.789 15.789 0 0 1-2.581.2c-.09 0-.187.019-.261-.057a.1.1 0 0 1-.018-.067.265.265 0 0 1 .218-.215 17.455 17.455 0 0 0 2.448-.221 7.865 7.865 0 0 0 1.206-.271c.31-.1.628-.18.934-.293a10.488 10.488 0 0 0 1.05-.454 12.957 12.957 0 0 0 1.22-.677c.206-.132.406-.271.612-.4.118-.075.23-.1.285.075a.879.879 0 0 1-.099.322z" style="fill:#c9cbcc"/>
        <path id="Path_9138" data-name="Path 9138" d="M246.267 124.978a.283.283 0 0 1 .046-.181c.207-.015.228.157.271.287a13.521 13.521 0 0 0 .959 2.234 14.041 14.041 0 0 0 1.508 2.228c.353.428.755.806 1.147 1.2a13.249 13.249 0 0 0 2.391 1.819c.222.139.468.232.688.374s.223.164.093.4a.14.14 0 0 1-.131.032c-.288-.205-.619-.336-.914-.528a15.372 15.372 0 0 1-2.031-1.5c-.249-.228-.5-.456-.735-.7a14.318 14.318 0 0 1-2.615-3.664 13.292 13.292 0 0 1-.572-1.352 1.134 1.134 0 0 1-.105-.649z" style="fill:#b4b6b9"/>
        <path id="Path_9139" data-name="Path 9139" class="cls-34" d="M252.835 133.756a.254.254 0 0 0-.14-.234 12.551 12.551 0 0 1-1.965-1.261 14 14 0 0 1-2.64-2.627 15.012 15.012 0 0 1-1.207-1.849c-.284-.5-.484-1.039-.757-1.543a1.424 1.424 0 0 1-.08-.236 1.55 1.55 0 0 1 .08-.427c.161.043.19.2.231.318a12.425 12.425 0 0 0 1.561 2.975 13.543 13.543 0 0 0 2.158 2.442c.3.264.61.513.911.774a2.253 2.253 0 0 0 .7.554 9.211 9.211 0 0 0 1.389.811.134.134 0 0 1 .031.063.246.246 0 0 1-.206.262.081.081 0 0 1-.066-.022z"/>
        <path id="Path_9140" data-name="Path 9140" d="M245.944 128.411V128c.2.383.394.694.582 1.009a12.338 12.338 0 0 0 .837 1.179c.29.375.594.741.911 1.094a14.705 14.705 0 0 0 1.351 1.278 21.018 21.018 0 0 0 2.029 1.462c.154.1.364.127.44.332 0 .179-.124.216-.269.225a7.8 7.8 0 0 0-1.1-.753c-.553-.386-1.082-.8-1.6-1.236a14.675 14.675 0 0 1-1.929-2.035 14.848 14.848 0 0 1-1.131-1.642c-.014-.023-.015-.053-.035-.073a.087.087 0 0 1-.039.078 1.474 1.474 0 0 1-.047-.507z" style="fill:#9b9da0"/>
        <path id="Path_9141" data-name="Path 9141" d="M247.594 121.935a.333.333 0 0 1 .157.289 12.349 12.349 0 0 0 .592 2.549 11.872 11.872 0 0 0 1.854 3.372 11.6 11.6 0 0 0 4.141 3.339c.172.083.348.16.522.24.043.15-.048.2-.17.224a12.824 12.824 0 0 1-2.887-1.789 12.586 12.586 0 0 1-2.111-2.252 13.6 13.6 0 0 1-1.324-2.328 11.669 11.669 0 0 1-.451-1.27 19.3 19.3 0 0 1-.456-2.029.174.174 0 0 1 .011-.154.383.383 0 0 1 .122-.191z" style="fill:#cdcfd1"/>
        <path id="Path_9142" data-name="Path 9142" d="M262.254 136.834a5.578 5.578 0 0 1-.739.416 7.707 7.707 0 0 1-2.477.2c-.582 0-1.158-.094-1.737-.156-.505-.054-.992-.188-1.491-.265a.355.355 0 0 1-.334-.238c0-.181.142-.225.273-.279a2.083 2.083 0 0 1 .5.042 11.179 11.179 0 0 0 1.786.284 18.805 18.805 0 0 0 2.524.027c.477-.02.939-.114 1.41-.152.108-.007.231-.028.285.121z" style="fill:#8f9193"/>
        <path id="Path_9143" data-name="Path 9143" d="M264.8 134.631c-.385-.038-.691.216-1.048.284a11.47 11.47 0 0 1-1.19.293 2.012 2.012 0 0 0-.442.109 2.467 2.467 0 0 1-.815.093c-.313-.005-.618.072-.925.1-.365.03-.73.039-1.094.044-.56.007-1.112-.1-1.669-.148a1.588 1.588 0 0 0-.537.007.123.123 0 0 1 .014-.128c.1-.126.187-.27.377-.272a.476.476 0 0 1 .105.041 15.274 15.274 0 0 0 2.618.111 10.085 10.085 0 0 0 1.865-.215 14.422 14.422 0 0 0 2.042-.513c.284-.092.557-.212.842-.3.087-.027.163-.046.229.036a1.339 1.339 0 0 1-.372.458z" style="fill:#aaacaf"/>
        <path id="Path_9144" data-name="Path 9144" d="M262.034 131.217c.052-.336.365-.331.581-.387a8.8 8.8 0 0 0 1.392-.535 9.8 9.8 0 0 0 3.018-2.154.825.825 0 0 1 .356-.244 3.624 3.624 0 0 1-.041.69 1.481 1.481 0 0 0-.442.323 11.275 11.275 0 0 1-3.464 2.13 6.215 6.215 0 0 1-.785.259.906.906 0 0 0-.492.23.085.085 0 0 1-.125 0c-.083-.104-.114-.209.002-.312z" style="fill:#dddee0"/>
        <path id="Path_9145" data-name="Path 9145" class="cls-40" d="M266.182 132.6a1.7 1.7 0 0 1-.227.416 8.831 8.831 0 0 1-2.233.965 16.853 16.853 0 0 1-2.812.6 2.051 2.051 0 0 1-.323.012h-2.194a.379.379 0 0 1-.367-.146.27.27 0 0 1 .017-.2.265.265 0 0 1 .264-.156 2.5 2.5 0 0 0 .592.076 15.251 15.251 0 0 0 2.868-.206 14.214 14.214 0 0 0 3.058-.9c.361-.153.711-.325 1.06-.5.106-.056.215-.104.297.039z"/>
        <path id="Path_9146" data-name="Path 9146" d="M266.182 132.6c-.2-.076-.311.089-.454.158a14.186 14.186 0 0 1-1.7.726c-.347.117-.689.255-1.045.337-.422.1-.853.167-1.277.256a14.1 14.1 0 0 1-3.048.18.407.407 0 0 1-.372-.139c-.016-.094.031-.134.118-.14.306.075.62-.022.929.042a4.17 4.17 0 0 0 .525-.013c.417.031.813-.1 1.22-.108a7.194 7.194 0 0 0 1.641-.283 11.1 11.1 0 0 0 2.139-.735q.612-.293 1.214-.606a1.627 1.627 0 0 1 .34-.135 2.342 2.342 0 0 1-.23.46z" style="fill:#bcbdc0"/>
        <path id="Path_9147" data-name="Path 9147" d="M246.357 130.724a6.42 6.42 0 0 1-.265-1.031c.027-.031 0-.092.061-.1a1.605 1.605 0 0 1 .393.491 16.2 16.2 0 0 0 1.444 1.755c.272.295.588.553.881.831s.637.548.963.812a8.447 8.447 0 0 0 .725.513c.295.19.583.393.881.581a.2.2 0 0 1 .088.156.188.188 0 0 1-.053.131.351.351 0 0 1-.3.1c-.4-.267-.821-.506-1.21-.794a18.413 18.413 0 0 1-1.772-1.467 22.311 22.311 0 0 1-1.6-1.775c-.069-.081-.1-.206-.236-.203z" style="fill:#919396"/>
        <path id="Path_9148" data-name="Path 9148" d="M267.3 129a1.888 1.888 0 0 1-.085.558 11.248 11.248 0 0 1-3.638 2.165 7.382 7.382 0 0 1-1.1.341.544.544 0 0 0-.21.091c-.077.055-.154.073-.222-.018a.555.555 0 0 1 0-.323.525.525 0 0 1 .412-.325 10.766 10.766 0 0 0 2.684-1.121 12.577 12.577 0 0 0 1.752-1.262c.114-.091.228-.226.407-.106z" style="fill:#d5d7d8"/>
        <path id="Path_9149" data-name="Path 9149" d="M265.789 133.3a1.472 1.472 0 0 1-.238.37c-.063.052-.1.13-.176.171a1.989 1.989 0 0 1-.519.229 11.393 11.393 0 0 1-1.835.614 11.718 11.718 0 0 1-1.679.3 1.791 1.791 0 0 0-.493.1.241.241 0 0 1-.076.011.593.593 0 0 0-.41.035.549.549 0 0 1-.162.01 2.975 2.975 0 0 0-1.291 0 1.25 1.25 0 0 1-.2-.01c-.22-.1-.465-.038-.691-.107-.14-.044-.3-.038-.413-.153-.029-.173.062-.255.218-.289.41.034.823.074 1.231.1a5.352 5.352 0 0 0 1.164-.031c.353-.058.716-.059 1.075-.1a13.989 13.989 0 0 0 2.38-.518 12.237 12.237 0 0 0 1.819-.714c.095-.052.191-.106.296-.018z" style="fill:#b0b2b5"/>
        <path id="Path_9150" data-name="Path 9150" class="cls-15" d="M267.3 129a.618.618 0 0 0-.371.208 14 14 0 0 1-1.686 1.222 13.016 13.016 0 0 1-1.878.886 3.647 3.647 0 0 1-.892.274.415.415 0 0 0-.352.224c-.134-.075-.143-.168-.039-.277.088-.3.376-.287.6-.352a10.708 10.708 0 0 0 2.425-1.074 13.06 13.06 0 0 0 1.491-1.061 4.677 4.677 0 0 0 .536-.5c.109-.118.157-.075.215.032a1.329 1.329 0 0 1-.049.418z"/>
        <path id="Path_9151" data-name="Path 9151" d="M265.789 133.3a16.508 16.508 0 0 1-1.762.731 16.1 16.1 0 0 1-2.641.616 9.607 9.607 0 0 0-1.318.154c-.159.046-.351-.039-.524-.022a12.248 12.248 0 0 1-1.614-.1.341.341 0 0 1-.106-.039c-.033-.178.08-.228.223-.25.218.2.489.088.73.1.652.028 1.307.024 1.96 0a10.428 10.428 0 0 0 1.225-.191 12.518 12.518 0 0 0 2.353-.625c.483-.174.948-.4 1.419-.6a.494.494 0 0 1 .221-.052.868.868 0 0 1-.166.278z" style="fill:#b5b7b9"/>
        <path id="Path_9152" data-name="Path 9152" d="M247.472 122.126a1.371 1.371 0 0 1 .176.635 11.787 11.787 0 0 0 .378 1.6 11.337 11.337 0 0 0 1 2.351 10.331 10.331 0 0 0 1.2 1.749 12.26 12.26 0 0 0 2.568 2.334 11.038 11.038 0 0 0 1.74.966.418.418 0 0 1 .164.15c.008.088-.037.128-.121.132-.081-.162-.257-.191-.4-.258a12.374 12.374 0 0 1-2.609-1.716 12.11 12.11 0 0 1-2.789-3.482 11.989 11.989 0 0 1-.778-1.785c-.1-.294-.205-.6-.278-.892a5.38 5.38 0 0 1-.252-1.206.511.511 0 0 0-.139-.348z" style="fill:#cdced0"/>
        <path id="Path_9153" data-name="Path 9153" d="M253.425 137.913a9.112 9.112 0 0 1-2.2-.963 9.8 9.8 0 0 1-1.975-1.491c.136-.156.3-.079.465-.069a.226.226 0 0 1 .258.169c.051.153.219.207.347.284a16.54 16.54 0 0 0 3.27 1.558.782.782 0 0 1 .23.1c.089.067.136.147.062.255a.531.531 0 0 1-.457.157z" style="fill:#004258"/>
        <path id="Path_9154" data-name="Path 9154" class="cls-40" d="M253.357 133.3c.066-.183-.041-.264-.185-.337a11.858 11.858 0 0 1-1.536-.926 14.3 14.3 0 0 1-2.671-2.478 13.368 13.368 0 0 1-1.811-2.817 12.167 12.167 0 0 1-.666-1.685.519.519 0 0 0-.175-.261.649.649 0 0 1 .1-.317c.152-.038.165.093.189.176a13.405 13.405 0 0 0 1.02 2.505 13.156 13.156 0 0 0 1.391 2.108 13.3 13.3 0 0 0 1.869 1.9 12.65 12.65 0 0 0 2.511 1.654c.108.053.2.11.219.243a.17.17 0 0 1 0 .071.212.212 0 0 1-.255.164z"/>
        <path id="Path_9155" data-name="Path 9155" d="m267.111 130.064-.039.138a3.919 3.919 0 0 1-.772.574 11.409 11.409 0 0 1-2.4 1.259 8.093 8.093 0 0 1-1.2.378.762.762 0 0 0-.379.2 11.579 11.579 0 0 1-2.841.356c-.068 0-.14.01-.194-.05-.043-.221.027-.34.277-.472.527-.139 1.077-.074 1.608-.186a1.32 1.32 0 0 0 .225-.036 2.51 2.51 0 0 0 .527.022 3.47 3.47 0 0 0 1.092-.248 11.339 11.339 0 0 0 3.65-1.879 1.53 1.53 0 0 1 .227-.157c.108-.053.194-.039.219.101z" style="fill:#cfd0d2"/>
        <path id="Path_9156" data-name="Path 9156" d="M246.357 130.724c.011-.051 0-.117.069-.131s.074.041.1.077a15.817 15.817 0 0 0 1.885 2.1 14.236 14.236 0 0 0 2.505 1.9.632.632 0 0 1 .256.259c-.042.21-.181.246-.364.2a3.106 3.106 0 0 0-.6-.485 15.94 15.94 0 0 1-1.593-1.207 21.294 21.294 0 0 1-1.588-1.563 3.9 3.9 0 0 1-.535-.734 1.345 1.345 0 0 1-.135-.416z" style="fill:#8d8f91"/>
        <path id="Path_9157" data-name="Path 9157" d="M267.111 130.064c-.069-.083-.124-.071-.209 0a11.553 11.553 0 0 1-4.572 2.233.61.61 0 0 1-.4.021c-.02-.115.038-.166.147-.174a24.526 24.526 0 0 0 2.615-.992 12.43 12.43 0 0 0 2.172-1.41c.1-.081.175-.228.345-.177a1.88 1.88 0 0 1-.098.499z" style="fill:#d1d3d4"/>
        <path id="Path_9158" data-name="Path 9158" d="M247.236 132.84a4.941 4.941 0 0 1-.465-.963c.086-.1.141-.106.25.013.146.158.306.3.446.465a12.62 12.62 0 0 0 1.3 1.231 16.46 16.46 0 0 0 1.7 1.266c.131.087.254.186.18.376a.285.285 0 0 1-.245.124.779.779 0 0 1-.367-.178 18.683 18.683 0 0 1-2.313-1.846c-.167-.159-.322-.328-.486-.488z" style="fill:#85878a"/>
        <path id="Path_9159" data-name="Path 9159" class="cls-40" d="M253.555 133.112c-.055-.26-.308-.287-.485-.381a15.54 15.54 0 0 1-1.735-1.125 13.069 13.069 0 0 1-1.562-1.39 12.625 12.625 0 0 1-2.113-2.858 17.041 17.041 0 0 1-.928-2.054c-.078-.2-.131-.408-.2-.612-.027-.078-.038-.167-.125-.212a.6.6 0 0 1 .091-.28 21.994 21.994 0 0 0 1.1 2.767 14.106 14.106 0 0 0 2.542 3.446 15.881 15.881 0 0 0 2.346 1.844c.308.209.653.365.981.547.078.043.179.063.2.173.018.092-.03.123-.112.135z"/>
        <path id="Path_9160" data-name="Path 9160" d="M259.3 132.865a8.183 8.183 0 0 0 2.006-.136 4.047 4.047 0 0 0 1-.219 16.642 16.642 0 0 0 1.726-.55 13.1 13.1 0 0 0 2.757-1.554c.075-.055.152-.158.242-.014l-.1.365c-.067-.085-.13-.068-.216-.015-.342.216-.673.448-1.028.647-.494.277-1 .522-1.519.753a11.393 11.393 0 0 1-1.449.493 8.99 8.99 0 0 1-1.505.29 16.026 16.026 0 0 1-1.969.146.308.308 0 0 1-.086-.024c-.047-.129.013-.18.141-.182z" style="fill:#cccdcf"/>
        <path id="Path_9161" data-name="Path 9161" class="cls-28" d="M250.383 119a16.932 16.932 0 0 0-.091 2.456 8.057 8.057 0 0 0 .535 2.531 9.207 9.207 0 0 0 3.179 4.277 9.429 9.429 0 0 0 2.173 1.2c.077.03.183.038.211.147a1.574 1.574 0 0 1-.707-.247 8.4 8.4 0 0 1-2.366-1.523 9.071 9.071 0 0 1-1.444-1.626 10.038 10.038 0 0 1-.841-1.462 10.552 10.552 0 0 1-.529-1.437 9.643 9.643 0 0 1-.328-1.78 6.758 6.758 0 0 1 .043-1.835 2.741 2.741 0 0 1 .056-.34c.04-.129-.036-.159-.127-.19a.536.536 0 0 1 .236-.171z"/>
        <path id="Path_9162" data-name="Path 9162" class="cls-53" d="M250.938 132.14a15.2 15.2 0 0 1-2.924-3.012 15.011 15.011 0 0 1-1.468-2.536c-.153-.332-.281-.675-.42-1.013a.426.426 0 0 1 .049-.23.437.437 0 0 1 .2.267 13.474 13.474 0 0 0 1.461 2.908 14.111 14.111 0 0 0 5.241 4.722c.083.044.14.094.124.2-.024.062-.063.1-.136.09v-.053a13.4 13.4 0 0 1-2.127-1.343z"/>
        <path id="Path_9163" data-name="Path 9163" d="M255.512 136.754a.383.383 0 0 0 .306.179 20.884 20.884 0 0 0 2.29.36 12.3 12.3 0 0 0 2.366.026c.346-.035.694-.047 1.041-.069a7.256 7.256 0 0 1-.829.375 8.116 8.116 0 0 1-1.35.027 9.056 9.056 0 0 1-1.967-.125 6.851 6.851 0 0 1-1.367-.246c-.159-.071-.376-.044-.555-.115-.1-.039-.214-.044-.278-.147.036-.227.114-.287.343-.265z" style="fill:#8a8c8e"/>
        <path id="Path_9164" data-name="Path 9164" class="cls-53" d="M253.159 133.443c-.056-.207-.268-.215-.41-.3a15.246 15.246 0 0 1-2.715-1.962 14.135 14.135 0 0 1-1.626-1.749 13.137 13.137 0 0 1-1.563-2.539 10.017 10.017 0 0 0-.65-1.412c-.023-.035-.014-.09-.02-.135a.824.824 0 0 1 .092-.371 5.56 5.56 0 0 0 .489 1.43 11.724 11.724 0 0 0 1.267 2.289 13.8 13.8 0 0 0 2.424 2.691 14.7 14.7 0 0 0 2.613 1.784c.078.041.177.071.193.182.002.068-.028.098-.094.092z"/>
        <path id="Path_9165" data-name="Path 9165" d="M262.254 136.834a3.172 3.172 0 0 0-.906.068 20.152 20.152 0 0 1-2.959.05 20.486 20.486 0 0 1-2.647-.385.067.067 0 0 1-.007-.068.271.271 0 0 1 .211-.134c.269-.1.511.054.765.087.5.065 1 .178 1.5.22a15.677 15.677 0 0 0 2.022.033c.733-.033 1.454-.168 2.181-.261.118-.015.259-.08.371.038a2.75 2.75 0 0 1-.531.352z" style="fill:#939598"/>
        <path id="Path_9166" data-name="Path 9166" d="M262.783 136.482c-.42.118-.86.086-1.284.178a10.558 10.558 0 0 1-2.584.129 3.4 3.4 0 0 1-1.034-.049c-.511-.182-1.075-.062-1.566-.3-.142-.07-.262.035-.389-.012 0-.161.083-.214.233-.181a17.529 17.529 0 0 0 3.669.371 15.743 15.743 0 0 0 2.1-.2 9.129 9.129 0 0 0 .946-.183.238.238 0 0 1 .178.018c-.043.129-.208.118-.269.229z" style="fill:#96989a"/>
        <path id="Path_9167" data-name="Path 9167" d="M245.99 128.919v-.261a17.768 17.768 0 0 0 2.084 2.8 14.691 14.691 0 0 0 2.333 2.042c.408.282.814.567 1.248.809a.243.243 0 0 1 .157.229c.023.1-.049.115-.12.129-.563-.456-1.217-.78-1.78-1.242a3.954 3.954 0 0 0-.811-.624.207.207 0 0 1-.053-.036.81.81 0 0 0-.366-.331.3.3 0 0 1-.073-.064 11.613 11.613 0 0 0-.793-.853 8.333 8.333 0 0 0-.785-.884.251.251 0 0 1-.044-.048 6.875 6.875 0 0 0-.5-.741 7.243 7.243 0 0 1-.485-.752z" style="fill:#999b9d"/>
        <path id="Path_9168" data-name="Path 9168" class="cls-58" d="M247.236 132.84c.32.089.5.367.721.573a15.271 15.271 0 0 0 1.807 1.442 3.923 3.923 0 0 0 .622.424c.014.1-.081.116-.134.164a.644.644 0 0 1-.429 0 .258.258 0 0 1-.246-.113 3.747 3.747 0 0 0-.634-.493c-.314-.242-.618-.5-.916-.758a6.571 6.571 0 0 1-.791-1.239z"/>
        <path id="Path_9169" data-name="Path 9169" d="M250.622 135.189a.337.337 0 0 0-.16-.231 17.468 17.468 0 0 1-2.47-1.937c-.366-.341-.685-.72-1.033-1.074-.053-.054-.094-.13-.188-.07a3.176 3.176 0 0 1-.28-.735.937.937 0 0 1 .332.339c.416.562.962 1 1.422 1.522a4.375 4.375 0 0 0 .54.461 12.659 12.659 0 0 0 1.6 1.176c.132.075.224.206.371.267.087.036.07.126.045.2a.07.07 0 0 1-.01.061c-.048.052-.104.08-.169.021z" style="fill:#8a8b8e"/>
        <path id="Path_9170" data-name="Path 9170" d="M260.04 137.86a3.532 3.532 0 0 1-.83.237 5.075 5.075 0 0 0-.938-.049 15 15 0 0 1-2.4-.343 6.659 6.659 0 0 1-.954-.25c-.092-.034-.173-.065-.182-.178a.2.2 0 0 1 .157-.173.923.923 0 0 1 .493.041 8.184 8.184 0 0 0 1.494.314 8.738 8.738 0 0 1 1.015.171 12.419 12.419 0 0 0 1.378.023c.191.009.384 0 .576 0 .129.004.227.047.191.207z" style="fill:#848588"/>
        <path id="Path_9171" data-name="Path 9171" class="cls-58" d="M254.77 137.253c.057.169.224.1.336.144a7.815 7.815 0 0 0 1.72.376c.266.03.528.088.793.133a6.814 6.814 0 0 0 1.1.045.752.752 0 0 1 .494.146 4.183 4.183 0 0 1-.926.188c-.045-.005.063-.066-.025-.062a4.1 4.1 0 0 1-1.639-.161c-.182-.066-.38.008-.57-.053-.464-.148-.945-.234-1.414-.361a.271.271 0 0 1-.208-.165c-.013-.071.033-.117.072-.165a.239.239 0 0 1 .267-.065z"/>
        <path id="Path_9172" data-name="Path 9172" d="M260.04 137.86a.209.209 0 0 0-.238-.137c-.437.02-.874-.023-1.313.039a3.288 3.288 0 0 1-1.158-.148 1.505 1.505 0 0 0-.614-.051.887.887 0 0 1-.466-.105c-.355-.139-.765-.08-1.1-.3-.082-.055-.158.062-.242.013-.028-.067.007-.11.055-.149.068-.048.138-.088.223-.034l1.048.274a4.628 4.628 0 0 0 .813.115 3.886 3.886 0 0 1 .777.124 2.6 2.6 0 0 0 .518.019 8.876 8.876 0 0 0 2.086.029.3.3 0 0 1 .255.079 2.922 2.922 0 0 1-.644.232z" style="fill:#87888b"/>
        <path id="Path_9173" data-name="Path 9173" class="cls-62" d="M260.226 135.047h.138a1.045 1.045 0 0 0 .416-.046h.046a1.9 1.9 0 0 0 .656-.053 13.762 13.762 0 0 0 2.351-.532c.408-.136.812-.28 1.206-.453.089-.039.189-.085.271.023 0 .093-.084.129-.137.185a1.339 1.339 0 0 0-.527.15 10.605 10.605 0 0 1-1.465.475c-.583.154-1.189.222-1.782.347a8.906 8.906 0 0 1-1.838.086 8.548 8.548 0 0 1-1.884-.09c-.06-.013-.119-.03-.178-.045.012-.2.157-.143.269-.128a8.1 8.1 0 0 0 .933.081h.185a5.72 5.72 0 0 0 1.34 0z"/>
        <path id="Path_9174" data-name="Path 9174" d="M254.45 137.453a5.645 5.645 0 0 0 1.037.3 1.791 1.791 0 0 1 .331.071 1.2 1.2 0 0 0 .625.1 1.1 1.1 0 0 1 .4.089 2.849 2.849 0 0 0 .816.121 2.326 2.326 0 0 1 .788.064c-.043.049-.132.016-.162.08a2.764 2.764 0 0 1-.647.082 6.113 6.113 0 0 0-.636-.013 10.571 10.571 0 0 1-2.161-.467c-.1-.034-.213-.03-.315-.062-.143-.044-.3-.066-.372-.231.052-.137.133-.221.296-.134z" style="fill:#7c7e80"/>
        <path id="Path_9175" data-name="Path 9175" d="M254.173 137.59a7.083 7.083 0 0 0 1.233.362 11.759 11.759 0 0 0 2.148.379.249.249 0 0 1 .083.036 7.67 7.67 0 0 1-1.817.01c.014-.032.052-.026.075-.044a.094.094 0 0 1-.066 0 11.484 11.484 0 0 1-1.723-.44c-.088-.028-.206-.032-.225-.162.066-.111.132-.222.292-.141z" style="fill:#797b7d"/>
        <path id="Path_9176" data-name="Path 9176" d="M253.9 137.723a10.512 10.512 0 0 0 1.55.424c.211.028.386.171.6.214l-.223.016a8.19 8.19 0 0 1-2.4-.464l.425-.2q.025-.019.048.01z" style="fill:#767779"/>
        <path id="Path_9177" data-name="Path 9177" d="M248.027 134.076a.156.156 0 0 1 .169.04 13.119 13.119 0 0 0 1.488 1.116c.1.059-.053.211.113.192a.026.026 0 0 1-.021.036h-.528a8.072 8.072 0 0 1-1.221-1.384z" style="fill:#7b7c7e"/>
        <path id="Path_9178" data-name="Path 9178" class="cls-34" d="M265.31 133.986a1.882 1.882 0 0 0-.757.246 14.21 14.21 0 0 1-2.765.723 2.115 2.115 0 0 1-.962.046c.384-.066.767-.135 1.156-.179a6.967 6.967 0 0 0 1.1-.236 16.278 16.278 0 0 0 1.65-.55 3.065 3.065 0 0 1 .67-.235.049.049 0 0 1 .007.068z"/>
        <path id="Path_9179" data-name="Path 9179" d="M267.03 130.392a.163.163 0 0 0-.194.025 6.224 6.224 0 0 1-.926.635 13.509 13.509 0 0 1-1.373.738 9.048 9.048 0 0 1-1.122.449 3.163 3.163 0 0 1-1.11.271.663.663 0 0 1 .33-.151 11.292 11.292 0 0 0 3.945-1.871 1.249 1.249 0 0 1 .492-.286.3.3 0 0 1-.042.19z" style="fill:#cecfd1"/>
        <path id="Path_9180" data-name="Path 9180" class="cls-68" d="M287.946 131.863a.409.409 0 0 1-.041-.268v-5.138a.409.409 0 0 1 .041-.268c.007.107.022.213.022.32v5.127c0 .075-.015.151-.022.227z"/>
        <path id="Path_9181" data-name="Path 9181" d="M274.454 131.817a.407.407 0 0 1-.042-.267v-4.71c0-.095-.033-.2.062-.279q0 2.48-.009 4.957c.001.1-.007.199-.011.299z" style="fill:#00659f"/>
        <path id="Path_9182" data-name="Path 9182" class="cls-70" d="M246 129.093c.159-.012.172.145.22.223.231.38.516.721.755 1.093a1.3 1.3 0 0 1 .08.163c-.147.05-.207-.062-.267-.153-.18-.269-.394-.514-.561-.792a.063.063 0 0 0-.1-.024l-.04.09z"/>
        <path id="Path_9183" data-name="Path 9183" class="cls-68" d="M277.553 124.577a.3.3 0 0 1-.2.042h-2.694c-.048 0-.125.044-.144-.052 1.014-.016 2.026-.039 3.038.01z"/>
        <path id="Path_9184" data-name="Path 9184" class="cls-23" d="M267.349 127.018a.213.213 0 0 1-.013-.274z"/>
        <path id="Path_9185" data-name="Path 9185" class="cls-62" d="m265.408 133.869-.007-.068a.272.272 0 0 1 .15-.135.529.529 0 0 1-.143.203z"/>
        <path id="Path_9186" data-name="Path 9186" class="cls-4" d="M261.6 127.944v.183c-.024.356-.038.369-.4.465a4 4 0 0 1-1.162.142 9.829 9.829 0 0 1-1.954-.093 8.657 8.657 0 0 1-2.067-.693c-.14-.073-.268-.155-.284-.333l.292-.132a5.27 5.27 0 0 0 .789-.276l2.8-.967c.384-.133.766-.272 1.15-.4a.4.4 0 0 1 .582.352c.074.476.14.954.209 1.431a.776.776 0 0 0 .045.321z"/>
        <path id="Path_9187" data-name="Path 9187" d="M283.751 128.48h1.245c.13 0 .174.041.171.172-.008.322 0 .644 0 .967 0 .079 0 .149-.083.2a4 4 0 0 1-2.74.655.976.976 0 0 1-.775-1.442 1.031 1.031 0 0 1 .893-.527c.429-.024.86-.005 1.291-.005z" style="fill:#fed228"/>
        <ellipse id="Ellipse_1428" data-name="Ellipse 1428" class="cls-68" cx="1.78" cy=".011" rx="1.78" ry=".011" transform="translate(282.054 128.412)"/>
        <path id="Path_9188" data-name="Path 9188" class="cls-72" d="M255.735 127.615a6.287 6.287 0 0 0 3.483 1.016 6.9 6.9 0 0 0 2.01-.147c.206-.06.347-.135.376-.357l.011.129c.056.1-.02.228.046.332l.046.138a.789.789 0 0 0 .042.323.927.927 0 0 0 .049.369.119.119 0 0 1 .009.117.307.307 0 0 1-.26.328 5.442 5.442 0 0 1-.608.119 10.318 10.318 0 0 1-2.841-.006 10.69 10.69 0 0 1-1.294-.312.249.249 0 0 1-.2-.205c.109-.238-.125-.194-.218-.266-.371-.227-.738-.462-1.116-.677-.13-.075-.143-.208-.22-.305a.481.481 0 0 1 .29-.492z"/>
        <path id="Path_9189" data-name="Path 9189" d="m262.079 132.14-.147.174a.539.539 0 0 1-.507-.027 1.462 1.462 0 0 1-.636-.307 2.209 2.209 0 0 1-.349-.212.178.178 0 0 0-.3.057 3.158 3.158 0 0 1-.209.268.228.228 0 0 1-.13.065 7.609 7.609 0 0 1-2.172-.118 11.255 11.255 0 0 1-1.91-.5c-.065-.023-.127-.052-.19-.081a.233.233 0 0 1-.147-.331l.122-.188a1.308 1.308 0 0 0 .243-.32.57.57 0 0 0 .171-.232l.057-.045a2.223 2.223 0 0 1 .464.17 5.692 5.692 0 0 0 1.2.311 9.246 9.246 0 0 0 2.4.172c.373-.041.746-.1 1.122-.114a1.7 1.7 0 0 0 .766-.263l.1.6.044.323a.651.651 0 0 0 .039.277.862.862 0 0 1-.031.321z" style="fill:#006588"/>
        <path id="Path_9190" data-name="Path 9190" d="M261.931 130.618a.333.333 0 0 1-.306.278c-.5.1-1.015.133-1.523.193a9.647 9.647 0 0 1-2.644-.2c-.432-.067-.841-.224-1.262-.333-.122-.032-.163-.13-.22-.218l.218-.325.061-.09a.248.248 0 0 1 .134-.189l.059-.085.16-.194a7.09 7.09 0 0 0 1.682.428 9.139 9.139 0 0 0 1.74.078 7.762 7.762 0 0 0 1.453-.189.345.345 0 0 0 .3-.266c.059.051.021.119.032.178.016.109-.036.224.031.328l.043.14a.927.927 0 0 0 .043.323z" style="fill:#00678c"/>
        <path id="Path_9191" data-name="Path 9191" d="M255.383 131.127c.005.141.083.208.215.255a11.051 11.051 0 0 0 3.071.676c.382.022.765.012 1.145.047.064.221-.087.306-.245.388a1.76 1.76 0 0 0-.274.372.44.44 0 0 0-.14.182l-.181.192c-.2.262-.481.166-.726.141a12.1 12.1 0 0 1-3.364-.829c-.167-.068-.387-.089-.442-.322l.132-.182.121-.132a.562.562 0 0 0 .165-.191.746.746 0 0 0 .193-.229.953.953 0 0 0 .227-.278z" style="fill:#006183"/>
        <path id="Path_9192" data-name="Path 9192" d="M254.442 132.229a8.5 8.5 0 0 0 1.715.648 13.415 13.415 0 0 0 2.548.449c.12.011.169-.1.269-.087v.043a2.978 2.978 0 0 0-.369.46.852.852 0 0 0-.2.237l-.118.14-.16.148c-.189.28-.45.238-.735.191a13.586 13.586 0 0 1-2.686-.7c-.265-.1-.526-.217-.789-.323a.527.527 0 0 1-.337-.322h-.021l.111-.135.046-.047a1.508 1.508 0 0 0 .4-.375l.208-.226z" style="fill:#005c7c"/>
        <path id="Path_9193" data-name="Path 9193" class="cls-72" d="M261.851 130.016c-.091-.1-.044-.222-.048-.335.021 0 .033.006.035.027l.012.125z"/>
        <path id="Path_9194" data-name="Path 9194" class="cls-11" d="M261.791 129.038a.181.181 0 0 1 .017.216z"/>
        <path id="Path_9195" data-name="Path 9195" class="cls-23" d="m261.838 129.708-.035-.027-.015-.171.01-.092c.069.089.041.192.04.29z"/>
        <path id="Path_9196" data-name="Path 9196" class="cls-4" d="M261.661 128.588c-.082-.1-.04-.22-.046-.332a.735.735 0 0 1 .046.332z"/>
        <path id="Path_9197" data-name="Path 9197" class="cls-28" d="M256.389 129.738a.462.462 0 0 1-.134.189c-.023-.111.009-.183.134-.189z"/>
        <path id="Path_9198" data-name="Path 9198" d="m257.13 135.324-.049.085a.579.579 0 0 0-.189.176l-.363.338-.1.039a1.032 1.032 0 0 1-.431-.031 18.019 18.019 0 0 1-3.266-1.166c-.125-.06-.242-.134-.361-.2a.217.217 0 0 1-.113-.308l.064-.082a1.647 1.647 0 0 0 .358-.28.319.319 0 0 0 .15-.136.2.2 0 0 1 .042 0 .131.131 0 0 1 .111.008 13.183 13.183 0 0 0 3.883 1.334c.129.019.275.037.264.223z" style="fill:#005370"/>
        <path id="Path_9199" data-name="Path 9199" d="M252.263 134.254c.049.294.332.321.526.415a16.223 16.223 0 0 0 3.481 1.215.873.873 0 0 1 .164.078l-.275.283c-.081.056-.179.09-.233.181l-.18.1a.4.4 0 0 1-.391.04 15.83 15.83 0 0 1-3.316-1.28 4.133 4.133 0 0 1-.423-.231c-.089-.061-.182-.119-.181-.246l.073-.078a.081.081 0 0 1 .056-.092c.036-.016.076.022.11-.011l.138-.091.282-.184c.059-.026.094-.095.169-.099z" style="fill:#004f6a"/>
        <path id="Path_9200" data-name="Path 9200" d="M257.13 135.324a.357.357 0 0 0-.281-.134 14.3 14.3 0 0 1-3.652-1.182.79.79 0 0 1-.32-.254l.189-.222.093-.089.094-.089c.04-.007.083-.009.1-.053l.219-.193a12.075 12.075 0 0 0 4.047 1.293.589.589 0 0 0 .5-.134l-.076.118-.223.25a.689.689 0 0 0-.2.211.225.225 0 0 1-.182.188z" style="fill:#005775"/>
        <path id="Path_9201" data-name="Path 9201" d="M250.938 132.14a.589.589 0 0 1 .277.153 12.287 12.287 0 0 0 1.634 1.018.483.483 0 0 1 .214.168 2.4 2.4 0 0 1-.853-.42c-.344-.21-.673-.445-1.01-.667a.851.851 0 0 1-.262-.252z" style="fill:#aeb0b3"/>
        <path id="Path_9202" data-name="Path 9202" d="M251.435 134.811a9.561 9.561 0 0 0 1.685.877 15.288 15.288 0 0 0 2.366.811 1.371 1.371 0 0 0 .26.029.172.172 0 0 0 0 .039l-.23.187-.323.231-.187.085a3.2 3.2 0 0 1-1.21-.32 15.822 15.822 0 0 1-2.588-1.184 2.249 2.249 0 0 1-.268-.176.268.268 0 0 1-.135-.249.182.182 0 0 0 .005-.031 1.131 1.131 0 0 0 .368-.182z" style="fill:#004b64"/>
        <path id="Path_9203" data-name="Path 9203" class="cls-34" d="m257.447 135.034.182-.188a6.193 6.193 0 0 0 1.072.2 4.307 4.307 0 0 1-.963-.025c-.1 0-.181-.027-.239.072z"/>
        <path id="Path_9204" data-name="Path 9204" d="m251.585 134.672-.077.061c-.413-.274-.834-.537-1.236-.827s-.819-.6-1.2-.932a15.606 15.606 0 0 1-2.261-2.4 6.2 6.2 0 0 1-.682-.972c.026-.195.088-.115.154-.022l.543.766a.8.8 0 0 0 .227.225c.266.317.537.628.811.938a5.7 5.7 0 0 0 .807.815l.046.046c.151.1.234.258.369.369a9.621 9.621 0 0 1 .842.663 12.057 12.057 0 0 0 1.343.912 2.421 2.421 0 0 1 .262.185c.067.045.104.101.052.173z" style="fill:#969899"/>
        <path id="Path_9205" data-name="Path 9205" class="cls-34" d="M260.226 135.047a1.748 1.748 0 0 1-1.34 0 4.3 4.3 0 0 1 1.34 0z"/>
        <path id="Path_9206" data-name="Path 9206" class="cls-34" d="M260.78 135a.368.368 0 0 1-.416.046.934.934 0 0 1 .416-.046z"/>
        <path id="Path_9207" data-name="Path 9207" d="m249.776 135.46.021-.036.435-.061a1.1 1.1 0 0 1 .554.253 16 16 0 0 0 3.238 1.486c.138.046.273.1.413.146.054.016.13.022.109.114l-.1.091a.8.8 0 0 0-.277.137l-.278.133-.045-.006c.046-.128-.062-.144-.135-.167a14.09 14.09 0 0 1-2.066-.851 14.892 14.892 0 0 1-1.716-.984c-.069-.047-.169-.1-.074-.218.03-.033-.049-.025-.079-.037z" style="fill:#00455b"/>
        <path id="Path_9208" data-name="Path 9208" d="m259.569 132.493.245-.388.081-.068c.307-.07.621-.076.93-.12a2.642 2.642 0 0 1 .6.37 7.34 7.34 0 0 1-1.856.206z" style="fill:#d4d6d7"/>
        <path id="Path_9209" data-name="Path 9209" d="M254.546 137.362a8.88 8.88 0 0 1-1.474-.5 16.39 16.39 0 0 1-2.544-1.284c-.1-.065-.2-.144-.3-.216l.154-.084a.506.506 0 0 0 .236-.09l.179-.048a6.088 6.088 0 0 0 1.586.923 18.7 18.7 0 0 0 2.257.875c.12.039.27.006.358.131l-.091.1-.141.085z" style="fill:#00485f"/>
        <path id="Path_9210" data-name="Path 9210" class="cls-70" d="M251.585 134.672c-.049-.186-.216-.251-.359-.331a15.119 15.119 0 0 1-2.05-1.5.647.647 0 0 1-.087-.106c.265.053.421.268.612.423q.56.453 1.158.851c.235.156.474.307.718.449.074.043.076.106.1.167a.087.087 0 0 1-.092.047z"/>
        <path id="Path_9211" data-name="Path 9211" class="cls-70" d="M248.674 132.325a1.357 1.357 0 0 1-.609-.5c-.288-.353-.6-.683-.9-1.027a.439.439 0 0 1-.109-.222.858.858 0 0 1 .311.3 15.753 15.753 0 0 0 1.253 1.38.584.584 0 0 1 .054.069z"/>
        <path id="Path_9212" data-name="Path 9212" class="cls-70" d="M249.089 132.74c-.2-.046-.248-.244-.369-.369a.631.631 0 0 1 .369.369z"/>
        <path id="Path_9213" data-name="Path 9213" d="M260.825 131.917a1.086 1.086 0 0 1-.93.12 3.585 3.585 0 0 1 .283-.437c.045-.082.1-.045.153-.011z" style="fill:#d7d9db"/>
    </g>
</svg>
