<?xml version="1.0" encoding="utf-8"?>
<!-- Generator: Adobe Illustrator 25.2.3, SVG Export Plug-In . SVG Version: 6.00 Build 0)  -->
<svg version="1.1" id="Layer_1" xmlns="http://www.w3.org/2000/svg" xmlns:xlink="http://www.w3.org/1999/xlink" x="0px" y="0px"
	 viewBox="0 0 921.33 288.6" style="enable-background:new 0 0 921.33 288.6;" xml:space="preserve">
<style type="text/css">
	.st0{fill:#010101;}
	.st1{fill:#ED2224;}
	.st2{fill:#FFFFFF;}
</style>
<g>
	<g>
		<g>
			<g>
				<path class="st2" d="M293.68,145.12c-8.28-10.35-12.42-22.15-12.42-35.19c0-15.53,5.59-28.98,16.56-39.95
					c10.97-10.97,24.43-16.56,39.95-16.56h4.35v30.43c-1.45-0.21-2.9-0.21-4.35-0.21c-17.6,0-26.29,8.69-26.29,26.29
					c0,1.45,0.21,3.11,0.41,4.76h86.33V53.41h33.54v91.71H293.68z"/>
				<path class="st2" d="M477.1,114.69h15.11v30.43h-45.13V5.38h30.02V114.69z"/>
				<path class="st2" d="M715.48,145.12c-11.39,14.28-26.29,21.32-44.51,21.32c-18.22,0-32.92-7.04-44.3-21.32H473.69v-30.43h140.97
					c-0.21-1.66-0.21-3.31-0.21-4.76c0-15.53,5.59-28.98,16.56-39.95c10.97-10.97,24.43-16.56,39.95-16.56
					c15.73,0,29.19,5.59,40.16,16.56c10.97,10.97,16.56,24.43,16.56,39.95c0,1.45,0,3.11-0.21,4.76h14.9v30.43H715.48z
					 M670.99,131.09c14.05,0,21.16-7.11,21.16-21.16s-7.11-21.16-21.16-21.16c-14.05,0-20.98,7.11-20.98,21.16
					S656.94,131.09,670.99,131.09z"/>
				<path class="st2" d="M753.44,114.69V5.38h30.22v109.3h14.9v30.43h-60.03v-30.43H753.44z"/>
				<path class="st2" d="M798.57,114.69h90.47c0.21-1.45,0.41-3.11,0.41-4.55c0-16.35-8.28-24.63-24.63-24.63l-51.34-0.21V53.2h0.62
					L903.73,0l16.77,32.92l-43.06,22.15c29.4,6.62,44.3,25.05,44.09,55.07l-0.21,34.99H798.57V114.69z"/>
			</g>
			<path class="st2" d="M415.21,29.11c-2.58,2.58-5.92,3.87-10.01,3.87c-4.09,0-7.42-1.29-10.01-3.87
				c-2.58-2.58-3.87-5.86-3.87-9.84c0-3.98,1.29-7.29,3.87-9.92c2.58-2.64,5.92-3.95,10.01-3.95c4.09,0,7.42,1.32,10.01,3.95
				c2.58,2.64,3.87,5.95,3.87,9.92C419.09,23.24,417.8,26.52,415.21,29.11z"/>
			<path class="st2" d="M377.29,29.11c-2.58,2.58-5.92,3.87-10.01,3.87c-4.09,0-7.42-1.29-10.01-3.87
				c-2.58-2.58-3.87-5.86-3.87-9.84c0-3.98,1.29-7.29,3.87-9.92c2.58-2.64,5.92-3.95,10.01-3.95c4.09,0,7.42,1.32,10.01,3.95
				c2.58,2.64,3.87,5.95,3.87,9.92C381.16,23.24,379.87,26.52,377.29,29.11z"/>
		</g>
	</g>
	<rect x="498.18" y="185.05" class="st1" width="423.35" height="103.55"/>
	<g>
		<path class="st2" d="M562.24,222.69h11.94v47.77h-11.94v-5.84c-3.16,4.62-8.21,6.93-15.13,6.93c-6.75,0-12.1-2.37-16.05-7.11
			c-3.95-4.74-5.93-10.7-5.93-17.87c0-7.17,1.97-13.13,5.93-17.87c3.95-4.74,9.3-7.11,16.05-7.11c6.93,0,11.97,2.31,15.13,6.93
			V222.69z M558.36,256.33c2.16-2.55,3.24-5.8,3.24-9.76c0-3.95-1.08-7.2-3.24-9.76c-2.16-2.55-5-3.83-8.52-3.83
			c-3.53,0-6.37,1.28-8.52,3.83c-2.16,2.55-3.24,5.8-3.24,9.76c0,3.95,1.08,7.2,3.24,9.76c2.16,2.55,5,3.83,8.52,3.83
			C553.36,260.16,556.21,258.88,558.36,256.33z"/>
		<path class="st2" d="M594.3,270.46h-12.95v-68.38h12.95V270.46z"/>
		<path class="st2" d="M644.31,243.29v27.17h-12.95v-28.35c0-6.26-2.55-9.39-7.66-9.39c-2.98,0-5.27,0.91-6.88,2.73
			c-1.61,1.82-2.42,4.35-2.42,7.57v27.44h-12.95v-47.77h11.94v5.84c2.49-4.62,7.08-6.93,13.77-6.93c6.32,0,10.94,2.25,13.86,6.75
			c4.07-4.5,9.36-6.75,15.86-6.75c5.59,0,9.88,1.73,12.85,5.2c2.98,3.47,4.47,8.08,4.47,13.86v29.81h-12.95v-28.35
			c0-6.26-2.55-9.39-7.66-9.39c-3.04,0-5.35,0.93-6.93,2.78C645.1,237.35,644.31,239.95,644.31,243.29z"/>
		<path class="st2" d="M726.86,250.31h-34.64c0.42,3.28,1.64,5.79,3.65,7.52s4.65,2.6,7.93,2.6c2.07,0,3.93-0.44,5.61-1.32
			c1.67-0.88,2.87-2.17,3.6-3.88h13.04c-1.4,4.86-4.15,8.8-8.25,11.81c-4.1,3.01-8.89,4.51-14.36,4.51
			c-7.05,0-12.83-2.34-17.32-7.02c-4.5-4.68-6.75-10.7-6.75-18.05c0-7.11,2.25-13.04,6.75-17.78c4.5-4.74,10.24-7.11,17.23-7.11
			c6.99,0,12.69,2.36,17.09,7.07c4.41,4.71,6.61,10.65,6.61,17.82L726.86,250.31z M703.25,231.99c-2.92,0-5.32,0.81-7.2,2.42
			c-1.88,1.61-3.1,3.81-3.65,6.61h21.7c-0.49-2.74-1.67-4.92-3.56-6.56C708.65,232.81,706.22,231.99,703.25,231.99z"/>
		<path class="st2" d="M746.15,222.69v5.84c2.49-4.62,7.23-6.93,14.22-6.93c5.65,0,10,1.72,13.04,5.15
			c3.04,3.43,4.56,8.07,4.56,13.91v29.81h-12.95v-28.35c0-6.26-2.71-9.39-8.12-9.39c-3.1,0-5.5,0.93-7.2,2.78
			c-1.7,1.85-2.55,4.39-2.55,7.61v27.35h-12.95v-47.77H746.15z"/>
		<path class="st2" d="M853.51,264.31c-4.62,4.83-10.67,7.25-18.14,7.25c-7.48,0-13.53-2.42-18.14-7.25
			c-4.62-4.83-6.93-10.74-6.93-17.73c0-6.99,2.31-12.9,6.93-17.73c4.62-4.83,10.67-7.25,18.14-7.25c7.48,0,13.52,2.42,18.14,7.25
			c4.62,4.83,6.93,10.74,6.93,17.73C860.43,253.57,858.12,259.48,853.51,264.31z M826.66,236.64c-2.28,2.43-3.42,5.74-3.42,9.94
			s1.14,7.51,3.42,9.94c2.28,2.43,5.18,3.65,8.71,3.65c3.52,0,6.43-1.22,8.71-3.65c2.28-2.43,3.42-5.74,3.42-9.94
			s-1.14-7.51-3.42-9.94c-2.28-2.43-5.18-3.65-8.71-3.65C831.84,232.99,828.94,234.21,826.66,236.64z"/>
		<path class="st2" d="M894.59,222.32v12.13c-0.91-0.18-1.76-0.27-2.55-0.27c-3.83,0-6.7,1-8.62,3.01
			c-1.91,2.01-2.87,5.17-2.87,9.48v23.8H867.6v-47.77h11.94v6.2c2.73-4.44,7.23-6.66,13.49-6.66L894.59,222.32z"/>
		<path class="st2" d="M801.78,261.12c-3.53,0-3.69-1.98-3.69-5.69l0.06-22.53h6.96v-10.21h-7.02v-11.85h-12.95v11.85l0.01,10.21
			v23.75c0,9.3,3.76,13.95,13,13.95c2.37,0,5.6-0.18,7-0.55v-9.39C804.11,260.97,802.99,261.12,801.78,261.12z"/>
	</g>
</g>
<g>
	<path class="st2" d="M91.02,89.43l35.6,0l0,27.39l-16.51,0c-0.05,3.33,1.35,5.72,4.11,6.68c3.14,1.1,6.52,1.53,9.81,2.21
		c0.84,0.17,1.72,0.16,2.67,0.24l0,17.16c-10.84-0.3-20.96-2.14-29.06-9.87c-4.47-4.26-6.67-9.65-6.75-15.79
		c-0.11-8.94-0.04-17.87-0.03-26.81C90.84,90.32,90.93,90.01,91.02,89.43z"/>
	<path class="st2" d="M140.2,89.43l35.6,0l0,27.39l-16.51,0c-0.05,3.33,1.35,5.72,4.11,6.68c3.14,1.1,6.52,1.53,9.81,2.21
		c0.84,0.17,1.72,0.16,2.67,0.24v17.16c-10.84-0.3-20.96-2.14-29.06-9.87c-4.47-4.26-6.67-9.65-6.75-15.79
		c-0.11-8.94-0.04-17.87-0.03-26.81C140.02,90.32,140.11,90.01,140.2,89.43z"/>
	<g>
		<g>
			<path class="st1" d="M239.2,70.62c-5.83-13.77-14.16-26.13-24.78-36.75c-10.61-10.62-22.98-18.95-36.75-24.77
				C163.41,3.06,148.27,0,132.66,0c-15.6,0-30.75,3.06-45.01,9.09C73.88,14.91,61.52,23.25,50.9,33.87
				C40.29,44.48,31.95,56.85,26.13,70.62c-6.03,14.26-9.09,29.41-9.09,45.01c0,15.61,3.06,30.75,9.09,45.01
				c5.82,13.77,14.16,26.13,24.77,36.75c10.62,10.61,22.98,18.95,36.75,24.77c3.86,1.64,7.79,3.05,11.78,4.24l4.11,62.19
				l29.58-42.01l30-42.93c-9.67,3.34-19.93,5.08-30.46,5.08c-12.14,0-23.92-2.31-34.85-6.72c-11.46-4.62-21.98-11.55-30.98-20.55
				c-17.58-17.58-27.27-40.96-27.27-65.83c0-24.87,9.68-48.25,27.27-65.83s40.96-27.27,65.83-27.27c24.87,0,48.25,9.68,65.83,27.27
				s27.27,40.96,27.27,65.83c0,24.87-9.68,48.25-27.27,65.83c-5.5,5.5-11.57,10.22-18.07,14.12l-23.09,33.04
				c6.94-1.51,13.73-3.66,20.34-6.46c13.77-5.83,26.13-14.16,36.75-24.77c10.61-10.62,18.95-22.98,24.77-36.75
				c6.03-14.26,9.09-29.41,9.09-45.01C248.29,100.02,245.23,84.88,239.2,70.62z"/>
		</g>
	</g>
</g>
</svg>
