<svg xmlns="http://www.w3.org/2000/svg" width="84.133" height="28.012" viewBox="0 0 84.133 28.012">
    <defs>
        <style>
            .cls-2{fill:#f2f2f2}
        </style>
    </defs>
    <g id="Group_4095" data-name="Group 4095" transform="translate(-625.592 -141.759)">
        <path id="Path_10183" data-name="Path 10183" d="M661.225 141.759c-.007.13-.018.261-.018.391q0 5.541.006 11.081c0 .32-.091.394-.4.394q-17.41-.012-34.819 0c-.316 0-.4-.074-.4-.392.012-3.825.008-7.65.008-11.475z" transform="translate(-.003)" style="fill:#259bd5"/>
        <path id="Path_10184" data-name="Path 10184" class="cls-2" d="M814.948 147.728a3.173 3.173 0 0 0-.194.746 4.45 4.45 0 0 1-4.132 3.32 7.9 7.9 0 0 1-3.228-.438 1.676 1.676 0 0 0-.9.074 7.367 7.367 0 0 1-1.3.121q-6.308-.007-12.617 0c-.291 0-.373-.048-.307-.353.1-.468.153-.948.215-1.424.023-.17.083-.24.269-.239 1.424.009 2.848.007 4.272.008a1.726 1.726 0 0 1 .706.15v-2.136a7.681 7.681 0 0 0-.134-1.956 2.031 2.031 0 0 0-1.385-1.641 2.321 2.321 0 0 0-.651-.067c-.734 0-1.468-.007-2.2 0-.2 0-.245-.056-.213-.245.089-.527.164-1.057.242-1.586.014-.1.007-.2.153-.2a19.372 19.372 0 0 1 3.635.132 4.026 4.026 0 0 1 3.185 3.391 17.362 17.362 0 0 1 .143 3.236c.008.292-.123.67.053.854s.561.056.853.058c1.3.006 2.607-.007 3.91.01.285 0 .4-.113.433-.361a4.839 4.839 0 0 0 .04-.588c0-1.17.035-2.341-.005-3.509-.071-2.071.985-2.755 2.536-3.137a6.621 6.621 0 0 0 .978-.2h1.512c.013.051.052.057.1.063a4.362 4.362 0 0 1 3.82 3.232c.093.295.15.6.223.9zm-2.671-1.024a4.143 4.143 0 0 0-.225-1.514 1.528 1.528 0 0 0-1.268-1.056 4.835 4.835 0 0 0-2.107.2c-.242.079-.422.162-.278.486a1.414 1.414 0 0 1 .046.55q.005 1.836 0 3.671c0 .167 0 .289.218.316a10.28 10.28 0 0 0 1.667.13 1.778 1.778 0 0 0 1.71-1.2 4.189 4.189 0 0 0 .238-1.587z" transform="translate(-105.224)"/>
        <path id="Path_10185" data-name="Path 10185" class="cls-2" d="M838.991 194.459a.6.6 0 0 1 0-.178v-.445c-.034-.044-.01-.11-.019-.161a2.67 2.67 0 0 0-1.745-2.2 4.832 4.832 0 0 0-1.307-.294 12.815 12.815 0 0 0-4.987.791c-.139.043-.147.119-.126.246.078.474.146.95.211 1.426.055.39.054.4.426.267a10.021 10.021 0 0 1 3.5-.645c1.023.015 1.407.427 1.43 1.448.007.3-.083.355-.363.351a13.708 13.708 0 0 0-3.141.174 2.864 2.864 0 0 0-2.122 1.38 2.727 2.727 0 0 0 1.788 4 7.043 7.043 0 0 0 3.028-.042 2.424 2.424 0 0 1 1-.079c.415.094.836.174 1.257.232a5.384 5.384 0 0 0 1.171.169v-.135a1.634 1.634 0 0 1 0-.185v-6.115a.126.126 0 0 0-.001-.005zm-2.576 2.468c-.012.251 0 .5 0 .754v.033c0 .937 0 .94-.931 1.138a3.179 3.179 0 0 1-1.525.076.978.978 0 0 1-.8-.921 1.079 1.079 0 0 1 .626-1.124 2.011 2.011 0 0 1 .83-.168c.526-.011 1.051 0 1.576-.01.175-.005.233.051.224.222z" transform="translate(-129.317 -31.187)"/>
        <path id="Path_10186" data-name="Path 10186" d="M643.39 197.415q-8.689 0-17.378.007c-.312 0-.421-.049-.419-.4q.023-5.541 0-11.082c0-.279.043-.388.365-.388q17.427.014 34.854 0c.321 0 .4.092.4.4q-.017 5.541 0 11.082c0 .293-.067.384-.377.384q-8.723-.01-17.445-.003z" transform="translate(0 -27.652)" style="fill:#84b740"/>
        <path id="Path_10187" data-name="Path 10187" class="cls-2" d="M744.149 152.98h-5.651a6.106 6.106 0 0 1-1.785-.222 3.684 3.684 0 0 1-2.686-2.826 9.33 9.33 0 0 1 .02-4.449 4.091 4.091 0 0 1 4.053-3.244c1.171-.037 2.344-.006 3.515-.013.169 0 .236.036.206.219a42.154 42.154 0 0 0-.234 1.621c-.023.187-.126.188-.267.188-.712 0-1.425.02-2.136-.006a2.149 2.149 0 0 0-2.412 2.057 9.839 9.839 0 0 0-.011 2.843 1.972 1.972 0 0 0 2.039 1.8c2.355.024 4.71.019 7.064.028 1.161 0 2.321.012 3.482.014a6.077 6.077 0 0 0 .655-.031 1.326 1.326 0 0 0-.146-2.648c-1.073-.017-2.147.053-3.218-.044a2.748 2.748 0 0 1-2.774-2.579 2.914 2.914 0 0 1 2.1-3.289 5.557 5.557 0 0 1 1.771-.305c2.114-.01 4.227 0 6.341-.015.243 0 .261.087.229.283-.08.485-.155.971-.215 1.458-.028.224-.108.3-.35.3-1.829-.013-3.658-.008-5.487-.006a3.13 3.13 0 0 0-.848.073 1.049 1.049 0 0 0-.843 1.161 1.114 1.114 0 0 0 .932 1.142 4.582 4.582 0 0 0 .653.048 23.906 23.906 0 0 1 3.247.082 2.976 2.976 0 0 1 2.55 3.28 2.821 2.821 0 0 1-2.513 2.928 6.729 6.729 0 0 1-1.4.155l-5.881-.003z" transform="translate(-68.302 -.201)"/>
        <path id="Path_10188" data-name="Path 10188" class="cls-2" d="M733.885 196.73v-3.442a1.413 1.413 0 0 1 1.16-1.627 8.822 8.822 0 0 1 4.817-.275 1.517 1.517 0 0 1 .572.233.787.787 0 0 0 .888.045 6.4 6.4 0 0 1 3.99-.3 2.628 2.628 0 0 1 2.088 2.536c.08 1.19.024 2.381.034 3.572.008.972 0 1.945.006 2.918 0 .218-.041.307-.285.3q-1.1-.024-2.2 0c-.246.006-.283-.086-.282-.3.007-1.792 0-3.585 0-5.377 0-1.288-.425-1.668-1.708-1.524a2.132 2.132 0 0 0-.386.075 1.679 1.679 0 0 0-.577.219c-.2.161.069.359.049.554a3.588 3.588 0 0 0 .015.392c0 1.879 0 3.759.007 5.639 0 .258-.065.332-.326.325a39.954 39.954 0 0 0-2.134 0c-.271.008-.321-.084-.32-.332.01-1.814.006-3.628 0-5.442a3.2 3.2 0 0 0-.021-.425 1.039 1.039 0 0 0-1.124-1.035 3.92 3.92 0 0 0-1.258.19c-.2.057-.207.173-.207.335v3.475c0 .972-.01 1.945.007 2.917 0 .256-.075.307-.313.3q-1.1-.023-2.2 0c-.244.005-.316-.059-.312-.309.028-1.211.02-2.424.02-3.637z" transform="translate(-68.373 -31.195)"/>
        <path id="Path_10189" data-name="Path 10189" class="cls-2" d="M808.3 184.422v-3.845c0-.209.043-.31.268-.344q1.134-.175 2.262-.388c.242-.046.29.027.29.258q-.01 5.753-.006 11.506a1.353 1.353 0 0 1-1.12 1.547 8.98 8.98 0 0 1-4.179.371 4.025 4.025 0 0 1-3.558-3.823 7.277 7.277 0 0 1 .327-3.2 3.5 3.5 0 0 1 3.1-2.4 4.823 4.823 0 0 1 1.309 0 10.692 10.692 0 0 1 1.307.318zm0 4.5v-1.539c0-1.006 0-1.006-1-1.169a1.731 1.731 0 0 0-2.182 1.322 4.967 4.967 0 0 0 .029 2.652 1.8 1.8 0 0 0 1.872 1.383 7.8 7.8 0 0 0 1.039-.128c.188-.025.252-.1.248-.295-.014-.738-.006-1.481-.006-2.223z" transform="translate(-111.514 -24.039)"/>
        <path id="Path_10190" data-name="Path 10190" class="cls-2" d="M783.371 197.364v3.311c0 .222-.019.3-.282.24-.714-.157-1.441-.26-2.157-.408a2.631 2.631 0 0 0-1.033.083 6.868 6.868 0 0 1-3.026.029 2.466 2.466 0 0 1-2.014-2 2.628 2.628 0 0 1 .857-2.728 4.362 4.362 0 0 1 2.364-.777 22.983 22.983 0 0 1 2.4-.047c.193 0 .283-.036.258-.249-.021-.173 0-.351-.017-.523a1.143 1.143 0 0 0-1.212-1.015 9.277 9.277 0 0 0-3.289.5c-.247.079-.548.293-.732.185s-.119-.475-.16-.729c-.054-.334-.1-.669-.157-1-.02-.118-.031-.207.118-.252a13.16 13.16 0 0 1 4.821-.808 6 6 0 0 1 1.036.158 2.756 2.756 0 0 1 2.221 2.788c0 .087.006.175.006.262q-.002 1.489-.002 2.98zm-2.609.3h-.01v-.752c0-.12-.009-.213-.171-.208a17.487 17.487 0 0 0-2.029.052 1.118 1.118 0 0 0-1.038 1.244 1.082 1.082 0 0 0 1.17.993 5.364 5.364 0 0 0 1.485-.214c.6-.145.6-.15.593-.782l-.001-.331z" transform="translate(-94.207 -31.187)"/>
    </g>
</svg>
