<svg xmlns="http://www.w3.org/2000/svg" width="86" height="28">
    <defs>
        <style>
            .cls-2{fill:#fff}
        </style>
    </defs>
    <g id="Group_3486" data-name="Group 3486" transform="translate(-21.596 -17.79)">
        <g id="Group_3479" data-name="Group 3479" transform="translate(-218.022 -123.315)">
            <rect id="Rectangle_3429" data-name="Rectangle 3429" width="86" height="24.431" rx="2.201" transform="translate(239.618 143.105)" style="fill:#009cde"/>
            <path id="Path_9214" data-name="Path 9214" class="cls-2" d="M275.837 154.792c-.2 1.327-1.215 1.327-2.2 1.327h-.558l.391-2.478a.308.308 0 0 1 .3-.26h.255c.667 0 1.3 0 1.623.38a1.239 1.239 0 0 1 .179 1.031m-.427-3.463h-3.7a.515.515 0 0 0-.508.434l-1.494 9.481a.308.308 0 0 0 .256.352.26.26 0 0 0 .048 0h1.765a.513.513 0 0 0 .507-.434l.4-2.558a.513.513 0 0 1 .507-.434h1.17c2.436 0 3.841-1.178 4.208-3.515a2.849 2.849 0 0 0-.471-2.386 3.432 3.432 0 0 0-2.7-.944m8.583 6.867a1.974 1.974 0 0 1-2 1.691 1.371 1.371 0 0 1-1.466-1.721 1.98 1.98 0 0 1 1.984-1.7 1.489 1.489 0 0 1 1.18.482 1.519 1.519 0 0 1 .3 1.252m2.468-3.447h-1.77a.308.308 0 0 0-.305.26l-.077.5-.124-.179a2.518 2.518 0 0 0-2.091-.743 4.07 4.07 0 0 0-3.952 3.561 3.343 3.343 0 0 0 .659 2.72 2.773 2.773 0 0 0 2.23.9 3.391 3.391 0 0 0 2.451-1.013l-.079.492a.308.308 0 0 0 .255.352.413.413 0 0 0 .049 0h1.617a.514.514 0 0 0 .508-.434l.957-6.06a.309.309 0 0 0-.257-.352.379.379 0 0 0-.048 0m9.431 0h-1.78a.511.511 0 0 0-.424.226l-2.455 3.615-1.041-3.474a.514.514 0 0 0-.492-.367h-1.749a.308.308 0 0 0-.308.308.29.29 0 0 0 .017.1l1.959 5.752-1.844 2.6a.309.309 0 0 0 .252.486h1.778a.516.516 0 0 0 .422-.22l5.917-8.542a.308.308 0 0 0-.252-.484m6.317.043c-.2 1.327-1.215 1.327-2.195 1.327h-.558l.391-2.478a.307.307 0 0 1 .3-.26h.256c.667 0 1.3 0 1.622.38a1.239 1.239 0 0 1 .179 1.031m-.427-3.463h-3.7a.514.514 0 0 0-.508.434l-1.494 9.481a.308.308 0 0 0 .257.352.255.255 0 0 0 .047 0h1.9a.36.36 0 0 0 .355-.3l.424-2.688a.513.513 0 0 1 .508-.434h1.169c2.436 0 3.841-1.178 4.209-3.515a2.849 2.849 0 0 0-.472-2.386 3.432 3.432 0 0 0-2.7-.944m8.583 6.867a1.974 1.974 0 0 1-2 1.691 1.371 1.371 0 0 1-1.466-1.721 1.98 1.98 0 0 1 1.984-1.7 1.493 1.493 0 0 1 1.181.482 1.522 1.522 0 0 1 .3 1.252m2.468-3.447h-1.77a.308.308 0 0 0-.305.26l-.077.5-.124-.179a2.518 2.518 0 0 0-2.091-.743 4.071 4.071 0 0 0-3.952 3.561 3.343 3.343 0 0 0 .66 2.72 2.772 2.772 0 0 0 2.229.9 3.392 3.392 0 0 0 2.452-1.013l-.079.492a.307.307 0 0 0 .253.352.43.43 0 0 0 .05 0h1.594a.515.515 0 0 0 .508-.434l.957-6.06a.308.308 0 0 0-.256-.352.409.409 0 0 0-.049 0m2.087-3.159-1.518 9.654a.308.308 0 0 0 .257.352.381.381 0 0 0 .047 0h1.527a.515.515 0 0 0 .508-.434l1.5-9.481a.308.308 0 0 0-.256-.352.265.265 0 0 0-.048 0h-1.708a.308.308 0 0 0-.305.26" transform="translate(-.644 -.176)"/>
            <g id="Group_3479-2" data-name="Group 3479" transform="translate(248.65 146.586)">
                <path id="Path_9215" data-name="Path 9215" class="cls-2" d="M254.338 151.059a.672.672 0 0 1 .662-.567h4.2a8.843 8.843 0 0 1 1.385.1 5.7 5.7 0 0 1 .687.154 3.706 3.706 0 0 1 .739.295 3.423 3.423 0 0 0-.725-3.08c-.8-.909-2.241-1.3-4.087-1.3h-5.356a.767.767 0 0 0-.757.647l-2.23 14.143a.459.459 0 0 0 .382.526.452.452 0 0 0 .072.006h3.307l.831-5.268z" transform="translate(-248.848 -146.662)"/>
                <path id="Path_9216" data-name="Path 9216" d="M262.087 151.136c-.017.1-.034.209-.055.314-.707 3.626-3.123 4.88-6.21 4.88h-1.572a.764.764 0 0 0-.754.647l-.8 5.1-.229 1.447a.4.4 0 0 0 .335.46.456.456 0 0 0 .064 0h2.787a.671.671 0 0 0 .662-.566l.026-.142.526-3.33.033-.184a.671.671 0 0 1 .663-.566h.418c2.7 0 4.814-1.1 5.432-4.27a3.641 3.641 0 0 0-.558-3.21 2.665 2.665 0 0 0-.763-.589" transform="translate(-248.925 -146.758)" style="fill:#a1e0f7"/>
                <path id="Path_9217" data-name="Path 9217" d="M261.37 150.83c-.108-.032-.218-.061-.333-.086s-.233-.048-.354-.067a8.606 8.606 0 0 0-1.385-.1h-4.2a.668.668 0 0 0-.662.567l-.892 5.658-.026.164a.764.764 0 0 1 .754-.647h1.572c3.087 0 5.5-1.254 6.21-4.88.021-.108.038-.211.055-.314a3.816 3.816 0 0 0-.58-.245c-.053-.018-.106-.033-.16-.05" transform="translate(-248.948 -146.746)" style="fill:#e3f5fc"/>
            </g>
        </g>
        <path id="Rectangle_3432" data-name="Rectangle 3432" transform="translate(21.596 17.79)" style="fill:none" d="M0 0h86v28H0z"/>
    </g>
</svg>
