<svg xmlns="http://www.w3.org/2000/svg" width="141.934" height="42.054" viewBox="0 0 141.934 42.054">
    <defs>
        <linearGradient id="linear-gradient" x1=".915" x2="-.384" y1="6.617" y2="5.947" gradientUnits="objectBoundingBox">
            <stop offset="0" stop-color="#00a0ff"/>
            <stop offset=".007" stop-color="#00a1ff"/>
            <stop offset=".26" stop-color="#00beff"/>
            <stop offset=".512" stop-color="#00d2ff"/>
            <stop offset=".76" stop-color="#00dfff"/>
            <stop offset="1" stop-color="#00e3ff"/>
        </linearGradient>
        <linearGradient id="linear-gradient-2" x1="1.076" x2="-1.305" y1="17.089" y2="17.089" gradientUnits="objectBoundingBox">
            <stop offset="0" stop-color="#ffe000"/>
            <stop offset=".409" stop-color="#ffbd00"/>
            <stop offset=".775" stop-color="orange"/>
            <stop offset="1" stop-color="#ff9c00"/>
        </linearGradient>
        <linearGradient id="linear-gradient-3" x1=".863" x2="-.502" y1="10.864" y2="9.095" gradientUnits="objectBoundingBox">
            <stop offset="0" stop-color="#ff3a44"/>
            <stop offset="1" stop-color="#c31162"/>
        </linearGradient>
        <linearGradient id="linear-gradient-4" x1="-.188" x2=".421" y1="13.585" y2="12.794" gradientUnits="objectBoundingBox">
            <stop offset="0" stop-color="#32a071"/>
            <stop offset=".068" stop-color="#2da771"/>
            <stop offset=".476" stop-color="#15cf74"/>
            <stop offset=".801" stop-color="#06e775"/>
            <stop offset="1" stop-color="#00f076"/>
        </linearGradient>
        <style>
            .cls-2{fill:#fff;stroke:#fff;stroke-miterlimit:10;stroke-width:.2px}.cls-9{opacity:.12}
        </style>
    </defs>
    <g id="play_store">
        <g id="Group_57">
            <path id="Path_54" d="M136.677 42.054H5.257A5.272 5.272 0 0 1 0 36.8V5.257A5.272 5.272 0 0 1 5.257 0h131.42a5.272 5.272 0 0 1 5.257 5.257V36.8a5.272 5.272 0 0 1-5.257 5.254z"/>
        </g>
        <g id="Group_59">
            <g id="Group_58">
                <path id="Path_55" fill="#a6a6a6" d="M136.677.841a4.415 4.415 0 0 1 4.416 4.416V36.8a4.415 4.415 0 0 1-4.416 4.416H5.257A4.415 4.415 0 0 1 .841 36.8V5.257A4.415 4.415 0 0 1 5.257.841h131.42m0-.841H5.257A5.272 5.272 0 0 0 0 5.257V36.8a5.272 5.272 0 0 0 5.257 5.257h131.42a5.272 5.272 0 0 0 5.257-5.257V5.257A5.272 5.272 0 0 0 136.677 0z"/>
            </g>
        </g>
        <g id="Group_60" transform="translate(43.474 7.223)">
            <path id="Path_56" d="M47.732 10.413a2.815 2.815 0 0 1-.789 2.1 3.057 3.057 0 0 1-2.313.936 3.249 3.249 0 0 1-3.28-3.291 3.147 3.147 0 0 1 .957-2.345 3.321 3.321 0 0 1 3.617-.683 2.675 2.675 0 0 1 .988.7l-.557.557a2.139 2.139 0 0 0-1.724-.746 2.382 2.382 0 0 0-1.724.7 2.407 2.407 0 0 0-.725 1.819 2.483 2.483 0 0 0 4.218 1.83 1.967 1.967 0 0 0 .526-1.283H44.63V9.94h3.06a3.939 3.939 0 0 1 .042.473z" class="cls-2" transform="translate(-41.35 -6.87)"/>
            <path id="Path_57" d="M52.21 7.778h-2.87v2h2.586v.757H49.34v2h2.87v.778h-3.68V7h3.68z" class="cls-2" transform="translate(-40.981 -6.863)"/>
            <path id="Path_58" d="M55.406 13.308H54.6v-5.53h-1.77V7h4.332v.778H55.4v5.53z" class="cls-2" transform="translate(-40.76 -6.863)"/>
            <path id="Path_59" d="M59.94 13.308V7h.81v6.308z" class="cls-2" transform="translate(-40.395 -6.863)"/>
            <path id="Path_60" d="M64.256 13.308h-.81v-5.53H61.68V7h4.332v.778h-1.767v5.53z" class="cls-2" transform="translate(-40.306 -6.863)"/>
            <path id="Path_61" d="M73.881 12.495a3.274 3.274 0 0 1-4.626 0 3.229 3.229 0 0 1-.925-2.334 3.212 3.212 0 0 1 .925-2.334 3.078 3.078 0 0 1 2.313-.957 3.11 3.11 0 0 1 2.313.957 3.238 3.238 0 0 1 .936 2.334 3.246 3.246 0 0 1-.936 2.334zm-4.027-.526a2.437 2.437 0 0 0 3.427 0 2.481 2.481 0 0 0 .7-1.808 2.44 2.44 0 0 0-.7-1.808 2.424 2.424 0 0 0-3.427-.011 2.523 2.523 0 0 0-.7 1.819 2.481 2.481 0 0 0 .7 1.808z" class="cls-2" transform="translate(-39.964 -6.87)"/>
            <path id="Path_62" d="M75.58 13.308V7h.988l3.07 4.91h.032l-.032-1.22V7h.81v6.308h-.841L76.4 8.167h-.032l.032 1.22v3.922z" class="cls-2" transform="translate(-39.592 -6.863)"/>
        </g>
        <path id="Path_63" fill="#fff" d="M69.532 21.991a4.468 4.468 0 1 0 4.489 4.468 4.41 4.41 0 0 0-4.489-4.468zm0 7.181a2.72 2.72 0 1 1 2.523-2.713 2.584 2.584 0 0 1-2.523 2.713zm-9.8-7.181a4.468 4.468 0 1 0 4.489 4.468 4.41 4.41 0 0 0-4.488-4.468zm0 7.181a2.72 2.72 0 1 1 2.523-2.713 2.584 2.584 0 0 1-2.522 2.713zm-11.649-5.8v1.892h4.542a3.992 3.992 0 0 1-1.03 2.387 4.638 4.638 0 0 1-3.5 1.388 5.047 5.047 0 0 1 0-10.093 4.806 4.806 0 0 1 3.417 1.354l1.335-1.335a6.619 6.619 0 0 0-4.763-1.913 6.95 6.95 0 1 0 0 13.9A6.339 6.339 0 0 0 52.931 29a6.275 6.275 0 0 0 1.64-4.437 5.736 5.736 0 0 0-.105-1.188h-6.382zm47.637 1.472a4.149 4.149 0 0 0-3.827-2.849 4.246 4.246 0 0 0-4.216 4.468 4.373 4.373 0 0 0 4.437 4.468 4.431 4.431 0 0 0 3.722-1.977l-1.524-1.02a2.544 2.544 0 0 1-2.2 1.241 2.274 2.274 0 0 1-2.166-1.356l5.982-2.471zm-6.1 1.493a2.451 2.451 0 0 1 2.334-2.607 1.737 1.737 0 0 1 1.661.946zm-4.857 4.332h1.966V17.523h-1.963zm-3.214-7.679h-.074a3.091 3.091 0 0 0-2.355-1 4.477 4.477 0 0 0 0 8.947 3.046 3.046 0 0 0 2.355-1.02h.063v.641c0 1.714-.915 2.628-2.387 2.628A2.475 2.475 0 0 1 76.9 31.6l-1.714.715a4.261 4.261 0 0 0 3.964 2.639c2.3 0 4.247-1.356 4.247-4.658v-8.031h-1.859v.725zm-2.26 6.182a2.567 2.567 0 0 1-2.489-2.691 2.582 2.582 0 0 1 2.492-2.723 2.522 2.522 0 0 1 2.387 2.723 2.486 2.486 0 0 1-2.391 2.691zm25.643-11.649h-4.7v13.142h1.968v-4.983h2.744a4.086 4.086 0 1 0-.011-8.159zm.042 6.329h-2.786v-4.51h2.786a2.256 2.256 0 1 1 0 4.51zm12.133-1.882a3.7 3.7 0 0 0-3.5 2.008l1.745.725a1.855 1.855 0 0 1 1.787-.967 1.881 1.881 0 0 1 2.061 1.693v.137a4.391 4.391 0 0 0-2.05-.5c-1.882 0-3.785 1.03-3.785 2.954a3.034 3.034 0 0 0 3.259 2.891 2.764 2.764 0 0 0 2.5-1.283h.063v1.02h1.892v-5.04c.012-2.334-1.734-3.638-3.973-3.638zm-.242 7.2c-.641 0-1.535-.326-1.535-1.114 0-1.009 1.114-1.4 2.082-1.4a3.462 3.462 0 0 1 1.787.442 2.372 2.372 0 0 1-2.335 2.074zm11.123-6.918l-2.25 5.7h-.063l-2.334-5.7h-2.113l3.5 7.969-2 4.426h2.05l5.393-12.4zm-17.663 8.411h1.966v-13.14h-1.966z" transform="translate(2.108 .876)"/>
        <g id="Group_62" transform="translate(10.482 7.508)">
            <path id="Path_64" fill="url(#linear-gradient)" d="M10.464 7.544a2.116 2.116 0 0 0-.484 1.471v23.257a2.079 2.079 0 0 0 .484 1.472l.074.074L23.564 20.8v-.315L10.537 7.47z" transform="translate(-9.969 -7.124)"/>
            <path id="Path_65" fill="url(#linear-gradient-2)" d="M27.242 24.72L22.9 20.378v-.315l4.342-4.342.095.053 5.141 2.926c1.472.831 1.472 2.2 0 3.038l-5.141 2.923z" transform="translate(-9.306 -6.701)"/>
            <path id="Path_66" fill="url(#linear-gradient-3)" d="M27.977 24.447L23.54 20l-13.1 13.1a1.705 1.705 0 0 0 2.187.063l15.35-8.716" transform="translate(-9.946 -6.481)"/>
            <path id="Path_67" fill="url(#linear-gradient-4)" d="M27.977 16.224L12.617 7.5a1.705 1.705 0 0 0-2.187.063l13.11 13.1z" transform="translate(-9.946 -7.141)"/>
            <g id="Group_61" transform="translate(.011 17.861)">
                <path id="Path_68" d="M27.882 24.13L12.616 32.8a1.747 1.747 0 0 1-2.1.011l-.074.074.074.074a1.748 1.748 0 0 0 2.1-.011l15.36-8.726z" opacity="0.2" transform="translate(-9.956 -24.13)"/>
                <path id="Path_69" d="M10.464 32.392a2.116 2.116 0 0 1-.484-1.472v.158a2.079 2.079 0 0 0 .484 1.472l.074-.074z" class="cls-9" transform="translate(-9.98 -23.781)"/>
            </g>
            <path id="Path_70" d="M32.266 21.367l-5.246 2.975.095.095 5.141-2.923A1.848 1.848 0 0 0 33.36 20a1.913 1.913 0 0 1-1.094 1.367z" class="cls-9" transform="translate(-9.094 -6.481)"/>
            <path id="Path_71" fill="#fff" d="M12.64 7.644l20.5 11.649a1.965 1.965 0 0 1 1.1 1.367 1.835 1.835 0 0 0-1.1-1.514L12.64 7.5c-1.472-.831-2.67-.137-2.67 1.545V9.2c0-1.692 1.209-2.386 2.67-1.556z" opacity="0.25" transform="translate(-9.97 -7.141)"/>
        </g>
    </g>
</svg>
