<svg xmlns="http://www.w3.org/2000/svg" width="224.728" height="153.056">
    <defs>
        <linearGradient id="linear-gradient" x1=".5" y1="1" x2=".5" gradientUnits="objectBoundingBox">
            <stop offset="0" stop-color="gray" stop-opacity=".251"/>
            <stop offset=".54" stop-color="gray" stop-opacity=".122"/>
            <stop offset="1" stop-color="gray" stop-opacity=".102"/>
        </linearGradient>
        <style>
            .cls-11,.cls-3{fill:#0a8db1}.cls-3,.cls-8{opacity:.1}.cls-4{fill:#65617d}.cls-6{fill:#ee8e9e}.cls-12{fill:#fff}.cls-13{fill:#ffd037}.cls-14{fill:#9d9cb5}
        </style>
    </defs>
    <g id="undraw_studying_s3l7" transform="translate(-.012 -14.361)">
        <path id="Path_6390" data-name="Path 6390" d="M293.464 176.8c-.041.24-.081.48-.126.719a88.255 88.255 0 0 1-7.345 23.263q-.173.36-.353.719a66.488 66.488 0 0 1-8.276 12.763 26.485 26.485 0 0 1-5.945 5.579c-3.19 2.034-6.919 2.86-10.584 3.536-3.808.7-7.666 1.284-11.515 1.927q-2.047.334-4.067.7c-3.718.672-7.409 1.449-11.012 2.479a57.242 57.242 0 0 0-12.844 5.283q-.488.278-.965.572c-.319.193-.642.39-.953.591s-.623.4-.931.6l-.475.321c-.156.1-.31.214-.465.317-.458.313-.91.642-1.362.959l-.017.013q-.446.321-.888.642c-1.668 1.235-3.3 2.528-4.924 3.825l-1.025.82-1.588 1.257c-.31.246-.625.49-.938.734-.227.178-.452.355-.683.531a90.655 90.655 0 0 1-4.384 3.193 45.15 45.15 0 0 1-7.608 4.191l-.034.015a30.183 30.183 0 0 1-4.042 1.394 24.2 24.2 0 0 1-2.38.516 21.038 21.038 0 0 1-6.454.111c-4.215-.6-8.165-2.569-12.369-3.228-8.674-1.347-17.1 3-25.261 6.407q-3 1.254-6.06 2.355-2.029.732-4.078 1.394a128.4 128.4 0 0 1-25.588 5.474 59.13 59.13 0 0 1-10.864.293 36.707 36.707 0 0 1-4.067-.529 23.476 23.476 0 0 1-12.286-5.994 28.778 28.778 0 0 1-6.411-9.974q-.927-2.233-1.633-4.568A50.946 50.946 0 0 1 71 238.544a36.576 36.576 0 0 1-.214-1.713q-.167-1.471-.248-2.954a51.163 51.163 0 0 1 1.522-15.627c1.458-5.649 3.89-11.059 4.96-16.762.045-.24.086-.48.126-.719q.214-1.284.325-2.616c.539-6.974-1.548-13.8-3.2-20.639-.058-.24-.116-.479-.171-.719q-.268-1.137-.507-2.276a57.551 57.551 0 0 1-.589-22.186c.043-.24.092-.482.141-.719a35.887 35.887 0 0 1 5-12.508 43.347 43.347 0 0 1 9.419-9.965q2.6-2.076 5.38-3.885 2-1.3 4.067-2.455a67.792 67.792 0 0 1 36.452-8.563q1 .051 2 .137 1.045.09 2.083.214c8.1.936 15.978 3.254 23.811 5.791q3.937 1.284 7.861 2.569 1.747.569 3.492 1.124c5.705 1.8 11.5 3.425 17.357 4.65q2.036.428 4.067.781a96.137 96.137 0 0 0 14.255 1.469q2.783.068 5.566-.058 1.406-.064 2.815-.188c9.7-.831 19.052-3.616 28.444-6.232 1.357-.379 2.717-.756 4.067-1.12 1.785-.48 3.573-.944 5.367-1.372 11.17-2.682 21.125-1.141 31.509 4.391a15.416 15.416 0 0 1 6.165 5.118c1.456 2.346 1.809 5.251 2.079 8.047.381 3.977.642 8.011.726 12.061 0 .24 0 .48.015.719a128.318 128.318 0 0 1-1.678 24.461z" transform="translate(-70.44 -99.783)" style="opacity:.3;fill:#0a8db1"/>
        <path id="Path_6391" data-name="Path 6391" d="M228.718 201.089h-.73v.719h.826zm-8.274 0a.046.046 0 0 0 0 .017l-.064.6v.107h6.337v-.043l.452-.676zm-16.944 0v-23.263h7.278a4.916 4.916 0 0 0-.238-.188l-.107-.081c-.045-.036-.09-.071-.137-.1s-.158-.113-.242-.169-.135-.092-.214-.137l-.049-.032H203.5v-1.274l-.169.081-.18.1h-.013l-.039.024-.111.073c-.039.024-.077.047-.113.073-.111.075-.214.156-.332.24l-.107.086c-.073.056-.141.113-.214.171-.285.233-.565.477-.856.7l-.214.167a5.524 5.524 0 0 1-.484.317 2.3 2.3 0 0 1-.214.118l-.12.056-.109.047a4.545 4.545 0 0 1-.8.253v22.741h-10.914a.329.329 0 0 0 .021.075c.06.214.12.428.178.642h10.721v24.937h.167l.191.013.347.026.561.056.253.03.278.034h.041c.161.021.323.047.488.073l.1.017.235.039.338.06.811-.043.111.024a.648.648 0 0 1 .137.028v-25.294h16.871v-.109l.064-.6a.046.046 0 0 1 0-.017zm25.218 0h-.73v.719h.826zm-8.73 0-.073.719h7.049l.48-.719zm-16.484 0v-23.263h7.278a4.916 4.916 0 0 0-.238-.188l-.107-.081c-.045-.036-.09-.071-.137-.1s-.158-.113-.242-.169-.135-.092-.214-.137l-.049-.032h-6.3v-1.274l-.169.081-.18.1h-.013l-.039.024-.111.073c-.039.024-.077.047-.113.073-.111.075-.214.156-.332.24l-.107.086c-.073.056-.141.113-.214.171-.285.233-.565.477-.856.7l-.214.167a5.524 5.524 0 0 1-.484.317 2.3 2.3 0 0 1-.214.118l-.12.056-.109.047a4.545 4.545 0 0 1-.8.253v22.741h-10.909a.329.329 0 0 0 .021.075c.06.214.122.428.18.642h10.719v24.935l.167.011.191.013.347.026.561.056.253.03.278.034h.041c.161.021.323.047.488.073l.1.017.235.039.338.06.811-.043.111.024a.649.649 0 0 1 .137.028v-25.3h16.421l.077-.719zm55.158-48.445h45.861c0-.24 0-.48-.015-.719h-45.845v-28.244c-1.361.364-2.721.741-4.067 1.12v27.125h-49.879l-.126-.137.191-.214 18.552-20.36q-2.783.128-5.566.058L203.5 146.921V129.81q-2.042-.353-4.067-.781v17.1l-20.857-22.878c-2.618-.856-5.236-1.728-7.861-2.569l28.35 31.1-.126.137H146.9v-37.028q-1.04-.118-2.083-.214-1-.088-2-.137v37.386h-36.443v-28.815q-2.074 1.156-4.067 2.455v26.359H82.481c-.049.238-.1.48-.141.719h19.949v24.462H83.445c.056.24.113.48.171.719H102.3v23.263H86.48c-.041.24-.081.48-.126.719H102.3v65.046a36.707 36.707 0 0 0 4.067.529v-65.573h36.461v59.808q2.051-.666 4.078-1.394v-58.414h52.521v52.255a30.181 30.181 0 0 0 4.042-1.394l.034-.015v-50.846h51.082v24.5q2.032-.366 4.067-.7v-23.8h36.322q.18-.36.353-.719h-36.664v-23.264h44.02c.045-.24.086-.48.126-.719h-44.146zm-152.287 0h36.45v24.462h-36.451zm0 48.445v-23.263h36.45v23.263zm40.53-48.445h52.518v24.462H146.9zm0 48.445v-23.263h52.518v23.263zm107.678 0H203.5v-23.263h51.082zm0-23.976H203.5V153.3l.717-.655h50.365zm-34.138 23.976a.046.046 0 0 0 0 .017l-.064.6v.107h6.337v-.043l.452-.676zm8.274 0h-.73v.719h.826zm-25.218 0v-23.263h7.278a4.916 4.916 0 0 0-.238-.188l-.107-.081c-.045-.036-.09-.071-.137-.1s-.158-.113-.242-.169-.135-.092-.214-.137l-.049-.032H203.5v-1.274l-.169.081-.18.1h-.013l-.039.024-.111.073c-.039.024-.077.047-.113.073-.111.075-.214.156-.332.24l-.107.086c-.073.056-.141.113-.214.171-.285.233-.565.477-.856.7l-.214.167a5.524 5.524 0 0 1-.484.317 2.3 2.3 0 0 1-.214.118l-.12.056-.109.047a4.545 4.545 0 0 1-.8.253v22.741h-10.914a.329.329 0 0 0 .021.075c.06.214.12.428.178.642h10.721v24.937h.167l.191.013.347.026.561.056.253.03.278.034h.041c.161.021.323.047.488.073l.1.017.235.039.338.06.811-.043.111.024a.648.648 0 0 1 .137.028v-25.294h16.871v-.109l.064-.6a.046.046 0 0 1 0-.017z" transform="translate(-79.783 -100.094)" style="opacity:.4;fill:#0a8db1"/>
        <path id="Path_6392" data-name="Path 6392" class="cls-3" d="M271.529 208.248h.325a.779.779 0 0 1-.387-.627c0-.5.608-.9 1.351-.9h9.451c.743 0 1.351.4 1.351.9 0 .495-.608.9-1.351.9h-.315a.781.781 0 0 1 .385.627c0 .428-.441.779-1.032.876h2.721c.741 0 1.349.4 1.349.9s-.608.9-1.349.9h-9.462c-.741 0-1.349-.4-1.349-.9 0-.428.441-.779 1.032-.876h-2.721c-.741 0-1.349-.4-1.349-.9s.605-.9 1.35-.9z" transform="translate(-227.411 -172.541)"/>
        <path id="Path_6393" data-name="Path 6393" class="cls-3" d="M750.049 248.318h.317a.781.781 0 0 1-.388-.629c0-.495.608-.9 1.351-.9h9.451c.743 0 1.351.4 1.351.9s-.608.9-1.351.9h-.315a.783.783 0 0 1 .385.629c0 .428-.441.777-1.032.873h2.721c.741 0 1.349.407 1.349.9s-.608.9-1.349.9h-9.449c-.741 0-1.349-.4-1.349-.9 0-.428.441-.779 1.032-.873h-2.725c-.741 0-1.349-.407-1.349-.9s.613-.9 1.35-.9z" transform="translate(-603.494 -204.033)"/>
        <path id="Path_6394" data-name="Path 6394" class="cls-3" d="M203.8 419.781h.317a.783.783 0 0 1-.385-.629c0-.494.606-.9 1.349-.9h9.451c.743 0 1.351.407 1.351.9 0 .5-.608.9-1.351.9h-.315a.783.783 0 0 1 .385.629c0 .428-.441.777-1.032.873h2.721c.743 0 1.349.4 1.349.9s-.606.9-1.349.9h-9.453c-.741 0-1.349-.407-1.349-.9 0-.428.443-.779 1.032-.876H203.8c-.741 0-1.349-.4-1.349-.9s.607-.897 1.349-.897z" transform="translate(-174.181 -338.788)"/>
        <path id="Path_6395" data-name="Path 6395" class="cls-4" d="m663.426 713.44-1.588 1.257c-.31.246-.625.49-.938.734-.227.178-.452.355-.683.531a90.655 90.655 0 0 1-4.384 3.193 45.144 45.144 0 0 1-7.608 4.191l-.034.015v-9.921z" transform="translate(-524.5 -570.786)"/>
        <path id="Path_6396" data-name="Path 6396" d="m471.71 339.762.24-7.4c-.143-.111-.289-.214-.428-.317a39.435 39.435 0 0 0-.377-6.6c-.968-7.4-7.251-7.557-9.023-6.03a4.28 4.28 0 0 1-.764.527c.161-1.055.36-2.113.5-3.158.775-5.634-.428-11.973-4.8-15.614-1.83-1.522-4.067-2.458-6.078-3.731-3.6-2.271-6.446-5.626-10.087-7.837s-8.756-3.04-11.932-.2c-1.231 1.1-2.025 2.627-3.288 3.688-2.355 1.978-6.026 2.109-8.081 4.318-.1.111-.2.225-.3.345-1.713 2.2-1.244 5.311-.7 8.036.657 3.28.385 5.908 3.2 6.85.011.131.019.261.034.39a13.9 13.9 0 0 0 6.114 10l-.456.163c-1.216.428-2.31.843-3.01 1.128-2.569 1.047-7.976 2.41-7.976 2.41s-.128 1.541-.1 3.815c-1.8 1.959-4.81 5.4-5.694 7.441-1.284 2.976-8.542 11.5-10.475 12.784s-4.029 2.83-4.029 2.83a18.9 18.9 0 0 1-4.51 1.85 24.3 24.3 0 0 1-4.11-.484s-12.405-15.2-11.6-3.536 10.72 12.054 10.72 12.054l9.991-.161s5.4.724 7.816-1.284c2.064-1.713 12.759-11.108 16.195-15.37.079.088.158.173.242.257 0 0 1.368-1.768 1.531 0s-.888 2.569-.323 3.211 2.256 2.894 2.336 3.778-2.254 4.5 1.691 7.236c.062.043.128.083.2.124a10.1 10.1 0 0 0 2.943 3.173l12.084-.161 22.8 1.768s.679-.6 1.6-1.573a4.99 4.99 0 0 0 4.847 1.5s2.74-3.295 2.821-5.465c0 0-1.773-4.583-2.569-5.949s.565-4.341.565-4.341.966-2.894 1.531-2.894.161-1.927.161-1.927a2.342 2.342 0 0 1-.242-2.171 20.773 20.773 0 0 0 .79-3.473z" transform="translate(-308.963 -236.104)" style="fill:url(#linear-gradient)"/>
        <path id="Path_6397" data-name="Path 6397" class="cls-6" d="m676.644 446.88-.856 1-3.459 4.029-4.519.274-7.234.445s-9.753-11.753-7.921-14.311a4.683 4.683 0 0 0 .642-3.29 7.477 7.477 0 0 0-.068-.473 13.679 13.679 0 0 0-1.139-3.511l.24-.109.154-.071 8.529-3.892 2.111-.963a5.7 5.7 0 0 0 .578 1.665c.041.081.086.163.133.24 2.909 4.817 12.239 1.77 12.239 1.77z" transform="translate(-527.565 -344.887)"/>
        <path id="Path_6398" data-name="Path 6398" class="cls-6" d="M771.18 448.054a14.063 14.063 0 0 1-.539 4.174l-12.071 1.839-.452-3.134-1.787-12.376 1.678-1.678a4.481 4.481 0 0 0 3.838-.959c1.758-1.52 7.993-1.359 8.952 5.994a40.708 40.708 0 0 1 .381 6.14z" transform="translate(-609.49 -352.074)"/>
        <path id="Path_6399" data-name="Path 6399" d="M787.4 608.822s2.717-3.277 2.8-5.435l-2.719-4.558-2.4-2.569-4.481 8.64s2.958 5.121 6.8 3.922z" transform="translate(-628.565 -478.691)" style="fill:#dfe5ee"/>
        <path id="Path_6400" data-name="Path 6400" class="cls-8" d="M787.4 608.822s2.717-3.277 2.8-5.435l-2.719-4.558-2.4-2.569-4.481 8.64s2.958 5.121 6.8 3.922z" transform="translate(-628.565 -478.691)"/>
        <path id="Path_6401" data-name="Path 6401" d="M208.056 694.855c-.227.178-.452.355-.683.531a90.655 90.655 0 0 1-4.384 3.193H134.7l-20.2-.724-16.248-.137-4.067-.214-20.294-1.07a50.948 50.948 0 0 1-1.672-7.463 36.576 36.576 0 0 1-.214-1.713l22.171 1.229 4.067.229 36.452 2.034 4.078.227 52.521 2.933 4.042.227h.034z" transform="translate(-71.656 -550.211)" style="fill:#cc988f"/>
        <path id="Path_6402" data-name="Path 6402" d="M234.533 628.9a57.247 57.247 0 0 0-12.844 5.283 54.181 54.181 0 0 0-1.918 1.163c-.311.201-.623.4-.931.6l-.475.321-.465.317c-.458.315-.91.642-1.361.959l-.017.013-.888.642c-1.668 1.235-3.3 2.528-4.924 3.825q-.514.411-1.03.82l-1.584 1.257c-.31.246-.625.49-.938.734-.227.178-.452.355-.683.531l-11.988-.572h-.034l-4.042-.188-52.544-2.49-4.078-.195-36.452-1.732-4.069-.188-21.968-1.036a36.576 36.576 0 0 1-.214-1.713q-.167-1.471-.248-2.954l22.426-7.921 4.067-1.441 3.695-1.306 6.733.351 15.561.8 10.472.55 4.078.214 2.605.137.623.034 21.925 1.145.231.015 9.783.51h.176l.978.049 3.335.175 4.17.214 1.374.073.259.015 1.944.1.554.028 1.856.1.739.041h.178l1.736.092 2.689.141h.013l.835.043h.09l.5.028 1.224.064 1.07.056h.011l1.2.062h.019l.91.049.7.036 2.477.131.445.023h.154l.214.013.726.039.325.017 2.526.131h.231l3.729-.032h.026l14.178-.116h1.4l4.564-.036h.681z" transform="translate(-70.745 -500.202)" style="fill:#efccc6"/>
        <path id="Path_6403" data-name="Path 6403" class="cls-11" d="m387.229 640.818 1.319 7.015 35.853-.539s2.7.779 2.637-1.379c0 0 5.457-5.157 33.1.839l-10.612-8.334-29.007 1.558-33.635-.9z" transform="translate(-319.129 -511.826)"/>
        <path id="Path_6404" data-name="Path 6404" class="cls-12" d="m391.59 640.36 1.259 7.615s30.826-.9 35.673-.06l-3.663-6.955s-18.639-1.739-33.269-.6z" transform="translate(-322.831 -513.046)"/>
        <path id="Path_6405" data-name="Path 6405" class="cls-8" d="m391.59 640.36 1.259 7.615s30.826-.9 35.673-.06l-3.663-6.955s-18.639-1.739-33.269-.6z" transform="translate(-322.831 -513.046)"/>
        <path id="Path_6406" data-name="Path 6406" class="cls-12" d="m393.74 640.329 1.242 7.081s30.435-.835 35.23-.056l-3.611-6.467s-18.415-1.618-32.861-.558z" transform="translate(-324.521 -513.044)"/>
        <path id="Path_6407" data-name="Path 6407" class="cls-8" d="m396.35 641.42 1.21 6.623s29.767-.781 34.466-.051l-3.532-6.052s-18.013-1.52-32.144-.52z" transform="translate(-326.572 -513.916)"/>
        <path id="Path_6408" data-name="Path 6408" class="cls-12" d="m397.47 640.307 1.216 6.636s29.767-.781 34.466-.051l-3.541-6.058s-18.011-1.519-32.141-.527z" transform="translate(-327.452 -513.045)"/>
        <path id="Path_6409" data-name="Path 6409" class="cls-11" d="M283.363 557.41s1.558 2.036-.717 5.112-4.155 5.671-3.4 7.589c0 0 3.425-5.711 6.229-5.78s.964-3.487-2.112-6.921z" transform="translate(-234.405 -448.158)"/>
        <path id="Path_6410" data-name="Path 6410" class="cls-8" d="M283.686 557.41a2.475 2.475 0 0 1 .319.642c2.727 3.211 4.181 6.208 1.558 6.272-2.443.069-5.371 4.436-6.073 5.54q.036.124.083.25s3.425-5.711 6.229-5.78.96-3.49-2.116-6.924z" transform="translate(-234.728 -448.158)"/>
        <path id="Path_6411" data-name="Path 6411" class="cls-13" d="M311.3 567.852c0 .715-.081 1.3-.18 1.3s-.18-.582-.18-1.3.1-.381.2-.381.16-.336.16.381z" transform="translate(-259.446 -456.003)"/>
        <path id="Path_6412" data-name="Path 6412" class="cls-13" d="M312.753 571.717c-.629.345-1.177.552-1.224.465s.428-.428 1.053-.779.381-.094.428 0 .372-.029-.257.314z" transform="translate(-259.906 -459.014)"/>
        <path id="Path_6413" data-name="Path 6413" class="cls-11" d="M247.825 557.41s-1.558 2.036.719 5.112 4.153 5.671 3.4 7.589c0 0-3.436-5.711-6.232-5.78s-.963-3.487 2.113-6.921z" transform="translate(-207.094 -448.158)"/>
        <path id="Path_6414" data-name="Path 6414" class="cls-8" d="M247.825 557.41a2.569 2.569 0 0 0-.319.642c-2.727 3.211-4.181 6.208-1.558 6.272 2.443.069 5.373 4.436 6.075 5.54a2.575 2.575 0 0 1-.083.25s-3.436-5.711-6.232-5.78-.959-3.49 2.117-6.924z" transform="translate(-207.095 -448.158)"/>
        <path id="Path_6415" data-name="Path 6415" class="cls-13" d="M247.13 567.852c0 .715.081 1.3.18 1.3s.18-.582.18-1.3-.1-.381-.2-.381-.16-.336-.16.381z" transform="translate(-209.296 -456.003)"/>
        <path id="Path_6416" data-name="Path 6416" class="cls-13" d="M241.088 571.717c.629.345 1.18.552 1.227.465s-.428-.428-1.053-.779-.381-.094-.428 0-.375-.029.254.314z" transform="translate(-204.248 -459.014)"/>
        <path id="Path_6417" data-name="Path 6417" class="cls-4" d="m257.465 600.42-.077.642-.109.9-.045.375-.109.9-.047.375-.111.9-1.246 10.216c-.111.912-1.6 1.623-3.4 1.623h-6.469c-1.8 0-3.286-.711-3.4-1.623l-1.248-10.216-.109-.9-.045-.375-.111-.9-.045-.375-.109-.9-.079-.642c-.062-.516.743-.951 1.762-.951h13.242c1.019.001 1.826.431 1.755.951z" transform="translate(-204.246 -481.214)"/>
        <path id="Path_6418" data-name="Path 6418" class="cls-14" d="m187.258 551.59-.109.9h-16.39l-.109-.9z" transform="translate(-134.109 -431.748)"/>
        <path id="Path_6419" data-name="Path 6419" class="cls-14" d="m187.669 557.54-.109.9h-16.079l-.111-.9z" transform="translate(-134.675 -436.424)"/>
        <path id="Path_6420" data-name="Path 6420" class="cls-14" d="m188.087 563.49-.109.9h-15.769l-.109-.9z" transform="translate(-135.248 -441.1)"/>
        <path id="Path_6421" data-name="Path 6421" class="cls-6" d="M396.6 594.66s-4.157-4-4 1.2 4-1.2 4-1.2z" transform="translate(-323.624 -476.28)"/>
        <path id="Path_6422" data-name="Path 6422" class="cls-6" d="M418.839 499.431a6.065 6.065 0 0 1-1.237 1.907c-3.602 4.342-13.861 13.362-15.871 15.039-2.4 2-7.754 1.284-7.754 1.284l-9.912.161s-9.832-.4-10.633-11.988 11.511 3.517 11.511 3.517a24.043 24.043 0 0 0 4.078.48 18.709 18.709 0 0 0 4.476-1.837s2.079-1.52 4-2.8 9.113-9.753 10.393-12.712c.811-1.877 3.425-4.947 5.23-6.938 1.036-1.145 1.8-1.927 1.8-1.927s4.48 13.335 3.919 15.814z" transform="translate(-308.531 -390.164)"/>
        <path id="Path_6423" data-name="Path 6423" class="cls-8" d="M564.672 499.4a6.066 6.066 0 0 1-1.237 1.907c-3.639-3.706-4.4-11.1-4.485-15.8 1.036-1.145 1.8-1.927 1.8-1.927s4.481 13.341 3.922 15.82z" transform="translate(-454.364 -390.133)"/>
        <path id="Path_6424" data-name="Path 6424" class="cls-8" d="m675.786 465.707-3.457 4.029-4.519.274-7.234.445s-9.753-11.753-7.921-14.311a4.683 4.683 0 0 0 .642-3.29 7.477 7.477 0 0 0-.068-.473 13.679 13.679 0 0 0-1.139-3.511l.24-.109.154-.071a15.348 15.348 0 0 1 .784 3.277c.024.152.045.31.066.473.075.578.143 1.22.214 1.927.557 6.469 4.626 8.9 6.463 9.678a18.651 18.651 0 0 1 1.73.837 9.229 9.229 0 0 0 5.8 1.049 17.544 17.544 0 0 0 8.231-3.89l.019 3.243z" transform="translate(-527.565 -362.712)"/>
        <path id="Path_6425" data-name="Path 6425" class="cls-12" d="M604.253 487.119s-29.737-.081-33.656-2.8-1.6-6.315-1.678-7.195-1.758-3.117-2.316-3.759.48-1.439.319-3.2-1.518 0-1.518 0c-5.6-5.677-4.4-20.065-4.4-20.065s5.352-1.357 7.921-2.4c.7-.283 1.779-.685 3-1.12l.452-.163c3.14-1.124 6.874-2.393 6.874-2.393s.717-.507 1.439 1.01a13.343 13.343 0 0 1 .927 3.618c.024.152.045.31.066.473.075.578.143 1.22.214 1.927.557 6.469 4.626 8.9 6.463 9.678a18.629 18.629 0 0 1 1.73.837 9.228 9.228 0 0 0 5.8 1.049 17.544 17.544 0 0 0 8.231-3.89l.019 3.243.056 9.745z" transform="translate(-455.893 -358.986)"/>
        <path id="Path_6426" data-name="Path 6426" class="cls-6" d="m638.549 582.565-.479 3.038s-11.832 2.956-16.466 3.836-14.63-.24-15.349 1.678 3.038 4.558 3.038 4.558l11.988-.161 22.623 1.76s8.633-7.6 5.836-12.872-11.191-1.837-11.191-1.837z" transform="translate(-491.469 -467.062)"/>
        <path id="Path_6427" data-name="Path 6427" class="cls-8" d="M626.931 474.58s-5.437 4.476-4.4 6.636 4.4-6.636 4.4-6.636z" transform="translate(-504.232 -383.059)"/>
        <path id="Path_6428" data-name="Path 6428" class="cls-8" d="M593.066 512.29s-5.517 9.513-5.2 10.233 1.839 3.277 1.758 1.359 3.442-11.592 3.442-11.592z" transform="translate(-477.082 -412.697)"/>
        <path id="Path_6429" data-name="Path 6429" class="cls-8" d="M612.306 520.14s-1.284 5.915-2.558 8.394 2.558-8.394 2.558-8.394z" transform="translate(-494.083 -418.866)"/>
        <path id="Path_6430" data-name="Path 6430" class="cls-8" d="M632.588 427.945a13.829 13.829 0 0 1-10.511 7.111h-.026a13.805 13.805 0 0 1-9.732-2.547c3.211-1.16 7.326-2.556 7.326-2.556s.717-.507 1.439 1.01l10.793-4.924a5.725 5.725 0 0 0 .711 1.906z" transform="translate(-496.309 -344.911)"/>
        <path id="Path_6431" data-name="Path 6431" class="cls-6" d="M613.338 351.02a13.768 13.768 0 0 1-1.82 6.863 13.933 13.933 0 0 1-2.062 2.744 13.771 13.771 0 0 1-8.383 4.144h-.028a13.5 13.5 0 0 1-1.537.088 13.829 13.829 0 0 1-13.741-12.271 13.409 13.409 0 0 1-.088-1.56 13.829 13.829 0 1 1 27.658 0z" transform="translate(-475.371 -275.089)"/>
        <path id="Path_6432" data-name="Path 6432" class="cls-8" d="m753.22 499.215 1.284-1.927s7.034-8.394 13.915-3.038l-.24 7.355a19.5 19.5 0 0 1-.8 3.425 2.34 2.34 0 0 0 .24 2.16s.4 1.927-.158 1.927-1.52 2.877-1.52 2.877-1.359 2.958-.559 4.318 2.558 5.915 2.558 5.915a8.813 8.813 0 0 1-3.6-4.476s-6.795-5.277-12.072-1.927z" transform="translate(-606.299 -397.115)"/>
        <path id="Path_6433" data-name="Path 6433" class="cls-8" d="M777.743 489.984a14.062 14.062 0 0 1-.539 4.174L765.132 496l-.452-3.134c1.58-1.651 7.325-6.891 13.063-2.882z" transform="translate(-616.053 -394.005)"/>
        <path id="Path_6434" data-name="Path 6434" class="cls-12" d="m753.22 497.215 1.284-1.927s7.034-8.394 13.915-3.038l-.24 7.356a19.5 19.5 0 0 1-.8 3.425 2.34 2.34 0 0 0 .24 2.16s.4 1.927-.158 1.927-1.52 2.877-1.52 2.877-1.359 2.958-.559 4.318 2.558 5.915 2.558 5.915a8.813 8.813 0 0 1-3.6-4.476s-6.795-5.277-12.072-1.927z" transform="translate(-606.299 -395.543)"/>
        <path id="Path_6435" data-name="Path 6435" class="cls-8" d="M769.159 496.61s-11.59 7.116-11.031 13.356c0 0 6.472-11.438 11.031-13.356z" transform="translate(-610.888 -400.374)"/>
        <path id="Path_6436" data-name="Path 6436" class="cls-8" d="m623.5 378.059.056 9.745a8.013 8.013 0 0 1-5.891-1.606 7.069 7.069 0 0 1-2.141-3.832 13.572 13.572 0 0 1-.278-3.624.191.191 0 0 1 0-.036c.135-2.691.754-5.382.428-8.056s-1.946-5.5-4.592-6.058a2.773 2.773 0 0 1-1.481-.537 2.148 2.148 0 0 1-.347-1.687l.077-1c.019-.257.028-.512.028-.766a9.811 9.811 0 0 0-7.921-9.62l-.086-.015a5.409 5.409 0 0 0-2.265-.126c-1.417.328-2.333 1.7-3.639 2.355-2.5 1.25-6.681-.118-9.3-.548a5.65 5.65 0 0 1-.49-.1 13.441 13.441 0 0 1-.088-1.561 13.829 13.829 0 1 1 25.839 6.863c.041.081.086.163.133.24 2.909 4.817 12.239 1.77 12.239 1.77l.561 17.188z" transform="translate(-475.285 -275.062)"/>
        <path id="Path_6437" data-name="Path 6437" d="M582.824 316.6c1.3-.655 2.214-2.029 3.639-2.355a5.461 5.461 0 0 1 2.267.124l.086.017a9.82 9.82 0 0 1 7.884 10.389l-.077 1a2.117 2.117 0 0 0 .349 1.685 2.706 2.706 0 0 0 1.479.535c2.646.565 4.266 3.372 4.592 6.06s-.3 5.388-.428 8.09.372 5.684 2.415 7.458c3.211 2.783 8.092 1.2 12.341.944-1.88 0-3.288-1.939-3.391-3.815a11.432 11.432 0 0 1 1.531-5.352 10.62 10.62 0 0 0 1.421-5.38c-.244-2.569-2.269-4.626-3.044-7.1-.9-2.877-.032-5.966.377-8.957.769-5.6-.428-11.9-4.763-15.525-1.815-1.513-4.035-2.445-6.031-3.712-3.575-2.267-6.394-5.592-10.008-7.8s-8.687-3.023-11.84-.2c-1.22 1.094-2.008 2.612-3.263 3.667-2.451 2.066-6.347 2.1-8.312 4.639-1.691 2.181-1.233 5.279-.691 7.987.721 3.611.315 6.422 4.174 7.064 2.612.424 6.786 1.792 9.293.537z" transform="translate(-462.155 -238.708)" style="fill:#0c0e0e"/>
        <path id="Path_6438" data-name="Path 6438" class="cls-8" d="M614.524 384.616c-3.093.379-6.159.574-8.411-1.379-2.042-1.775-2.545-4.755-2.415-7.458s.756-5.405.428-8.092-1.946-5.493-4.592-6.058a2.746 2.746 0 0 1-1.479-.535 2.134 2.134 0 0 1-.349-1.687l.077-1a9.817 9.817 0 0 0-7.884-10.387l-.086-.017a5.461 5.461 0 0 0-2.267-.124c-1.417.328-2.333 1.713-3.639 2.355-2.507 1.252-6.679-.116-9.306-.546-3.853-.632-3.451-3.447-4.174-7.064a13.588 13.588 0 0 1-.214-6.174 3.379 3.379 0 0 0-.3.345c-1.691 2.181-1.233 5.279-.691 7.987.721 3.611.315 6.422 4.174 7.064 2.625.428 6.8 1.8 9.306.546 1.3-.655 2.214-2.029 3.639-2.355a5.461 5.461 0 0 1 2.267.124l.086.017a9.819 9.819 0 0 1 7.884 10.389l-.077 1a2.117 2.117 0 0 0 .349 1.685 2.706 2.706 0 0 0 1.479.535c2.646.565 4.266 3.372 4.592 6.06s-.3 5.388-.428 8.09.372 5.684 2.415 7.458c3.211 2.783 8.092 1.2 12.341.944a3.256 3.256 0 0 1-2.725-1.723z" transform="translate(-462.052 -274.499)"/>
        <path id="Path_6439" data-name="Path 6439" d="m369.64 576.441 13.2-4.924a1.257 1.257 0 0 1 1.616.736 1.257 1.257 0 0 1-.736 1.616l-13.2 4.924-2.83-.283z" transform="translate(-304.047 -459.183)" style="fill:#5c5c8e"/>
        <path id="Path_6440" data-name="Path 6440" d="M384.024 572.576a1.257 1.257 0 0 1-.739 1.616l-13.206 4.941-2.124-.214-.306.325 2.83.283 13.2-4.924a1.257 1.257 0 0 0 .736-1.616 1.257 1.257 0 0 0-.514-.627 1.457 1.457 0 0 1 .123.216z" transform="translate(-304.016 -459.907)" style="fill:#fff;opacity:.1"/>
        <path id="Path_6441" data-name="Path 6441" d="m299.21 539.52.878 2.353-2.321-.233-.507-.051.694-.736z" transform="translate(-233.615 -422.262)" style="fill:#efc8c4"/>
        <path id="Path_6442" data-name="Path 6442" d="M368.407 601a.56.56 0 0 1 .137.148.214.214 0 0 1 0 .229.456.456 0 0 1-.126.092.428.428 0 0 0-.188.317l-.51-.049z" transform="translate(-304.071 -482.417)" style="fill:#727a9c"/>
        <path id="Path_6443" data-name="Path 6443" class="cls-12" d="M569.474 636.84s11.432-2.4 30.612.642l-7.514-5.515-13.671-2.8-9.672 2.569z" transform="translate(-462.443 -504.556)"/>
        <path id="Path_6444" data-name="Path 6444" class="cls-8" d="M569.474 636.84s11.432-2.4 30.612.642l-7.514-5.515-13.671-2.8-9.672 2.569z" transform="translate(-462.443 -504.556)"/>
        <path id="Path_6445" data-name="Path 6445" class="cls-12" d="M550.718 641.85s5.756-15.572 35.322.049l-10.612-6.829s-25.421-7.024-28.358 1.07z" transform="translate(-445.027 -506.972)"/>
        <path id="Path_6446" data-name="Path 6446" class="cls-8" d="M550.663 637.687s5.756-16.648 35.322.3l-10.612-7.407s-25.43-8.4-28.373.392z" transform="translate(-444.972 -502.819)"/>
        <path id="Path_6447" data-name="Path 6447" class="cls-12" d="M550.718 637.46s5.756-16.895 35.322.053l-10.612-7.407s-25.421-8.16-28.358.642z" transform="translate(-445.027 -502.586)"/>
        <path id="Path_6448" data-name="Path 6448" class="cls-8" d="M550.686 634.944s5.756-18.776 35.322.289l-10.62-8.334s-25.421-8.563-28.358 1.319z" transform="translate(-444.995 -500.065)"/>
        <path id="Path_6449" data-name="Path 6449" class="cls-12" d="M550.686 634.053s5.756-19.005 35.322.06l-10.62-8.334s-25.421-8.563-28.358 1.319z" transform="translate(-444.995 -499.185)"/>
    </g>
</svg>
