<svg xmlns="http://www.w3.org/2000/svg" xmlns:xlink="http://www.w3.org/1999/xlink" width="114.241" height="96.423" viewBox="0 0 114.241 96.423">
  <defs>
    <style>
      .cls-1 {
        fill: #eeffd4;
      }

      .cls-13, .cls-2 {
        fill: #0a8db1;
      }

      .cls-2 {
        opacity: 0.25;
      }

      .cls-3 {
        clip-path: url(#clip-path);
      }

      .cls-4 {
        fill: #2bc3c7;
        opacity: 0.24;
      }

      .cls-5 {
        fill: #8de34b;
      }

      .cls-27, .cls-6 {
        fill: none;
        stroke-miterlimit: 10;
      }

      .cls-6 {
        stroke: #535461;
        stroke-width: 2px;
      }

      .cls-7 {
        fill: #87c755;
      }

      .cls-8 {
        fill: #ffb9b9;
      }

      .cls-9 {
        fill: #777b9b;
      }

      .cls-10 {
        opacity: 0.66;
      }

      .cls-11, .cls-22 {
        opacity: 0.1;
      }

      .cls-12 {
        fill: #85cddc;
      }

      .cls-14 {
        fill: #e4b0b0;
      }

      .cls-15 {
        fill: #617bff;
      }

      .cls-16 {
        opacity: 0.05;
      }

      .cls-17 {
        fill: #0c0e0e;
      }

      .cls-18 {
        fill: #2a2b31;
      }

      .cls-19 {
        opacity: 0.7;
      }

      .cls-20 {
        fill: url(#linear-gradient);
      }

      .cls-21 {
        fill: #e0e0e0;
      }

      .cls-22 {
        fill: #fff;
      }

      .cls-23 {
        fill: #d2e95e;
      }

      .cls-24 {
        opacity: 0.2;
      }

      .cls-25 {
        fill: #515a17;
      }

      .cls-26 {
        fill: #47a200;
      }

      .cls-27 {
        stroke: #515a17;
      }
    </style>
    <clipPath id="clip-path">
      <path id="Path_3649" data-name="Path 3649" class="cls-1" d="M166.67,76.439c-7.8,3.037-18.581.437-28.967,1.809-8.427.587-18.972,2.257-26.309,2.551-6.244-.043-21.419,2.888-30.212-2.551C71.844,72.426,63.753,74.912,61.625,63.2c-3.614-10.465,2.517-20.7.773-28.4-2.826-12.472,2.657-15.423,3.151-23.3.351-5.595,3.513-26.624,24.1-26.187C115.522-15.274,110.885-1.247,118.063.6c8.276,1.742,6.215-3.111,26.071-3.331,8.6.076,18.125,7.627,16.527,29.262-.436,7.26,9.584,9.583,12.924,24.684C172.426,62.4,175.471,72.55,166.67,76.439Z" transform="translate(-60.463 14.704)"/>
    </clipPath>
    <linearGradient id="linear-gradient" x1="0.5" y1="-2.244" x2="0.5" y2="-1.244" gradientUnits="objectBoundingBox">
      <stop offset="0" stop-color="gray" stop-opacity="0.251"/>
      <stop offset="0.54" stop-color="gray" stop-opacity="0.122"/>
      <stop offset="1" stop-color="gray" stop-opacity="0.102"/>
    </linearGradient>
  </defs>
  <g id="Group_2238" data-name="Group 2238" transform="translate(0 0)">
    <path id="Path_3694" data-name="Path 3694" class="cls-2" d="M167.98,76.6c-7.909,3.043-18.836.437-29.366,1.812-8.543.588-19.233,2.261-26.671,2.556-6.33-.043-21.714,2.893-30.628-2.556C71.849,72.58,63.647,75.07,61.49,63.337c-3.664-10.484.109-20.654.784-28.447,1.066-13.1,2.694-15.45,3.195-23.343.356-5.6,3.561-26.671,24.436-26.233,26.224-.589,28.582,17.33,48.71,17.109,19.151,0,34.119,9.866,33.539,42.945C173.314,59.3,177.714,72.311,167.98,76.6Z" transform="translate(-59.912 14.703)"/>
    <g id="Mask_Group_214" data-name="Mask Group 214" class="cls-3" transform="translate(0.409)">
      <ellipse id="Ellipse_352" data-name="Ellipse 352" class="cls-4" cx="69.288" cy="16.403" rx="69.288" ry="16.403" transform="translate(-8.231 69.751)"/>
      <path id="Path_3650" data-name="Path 3650" class="cls-5" d="M81.464,279.54a15.416,15.416,0,0,1,2.811,16.034c-3.643,9.58,6.245,25.5,6.245,25.5s-.106-.015-.3-.05a18.793,18.793,0,0,1-12.47-28.765C80.488,288.074,82.732,283.162,81.464,279.54Z" transform="translate(-72.743 -238.104)"/>
      <path id="Path_3651" data-name="Path 3651" class="cls-6" d="M115.048,279.54s3.643,7.91,0,14.364-.625,24.566,9.056,27.169" transform="translate(-106.327 -238.104)"/>
      <path id="Path_3652" data-name="Path 3652" class="cls-7" d="M40.09,470.818s7.364-1.173,8.031,5.427,14.157,7.514,14.157,7.514l-.253.169c-11.13,7.308-21.777,4.653-20.172-5.056C42.449,475.262,42.4,471.634,40.09,470.818Z" transform="translate(-42.863 -403.274)"/>
      <path id="Path_3654" data-name="Path 3654" class="cls-6" d="M40.09,471.33s5.717,1.255,5.246,6.452,8.489,11.435,16.949,6.489" transform="translate(-42.863 -403.787)"/>
      <path id="Path_3655" data-name="Path 3655" class="cls-8" d="M587.619,561.82s5.595-.444,7.205,1.481,7.359,6.338,4.986,7.321-15.11-2.942-15.11-2.942Z" transform="translate(-513.338 -481.92)"/>
      <path id="Path_3656" data-name="Path 3656" d="M260.1,31.942a4.644,4.644,0,0,1-.834-.817,5.888,5.888,0,0,0-4.145-1.678,14.846,14.846,0,0,0-4.508.749c-2.935.845-6.036,2.085-7.6,4.71-2.374,4-.184,9.38-2.061,13.632-.817,1.857-2.374,3.373-2.88,5.339-.681,2.626.662,5.29,1.695,7.8a37.175,37.175,0,0,1,2.1,6.97,15.63,15.63,0,0,1,.178,6.4,6.857,6.857,0,0,0-.362,2.777c.272,1.4,1.623,2.277,2.85,2.995l.32.188a15.258,15.258,0,0,0,5.617,2.347,5.827,5.827,0,0,0,3.675-.66,4.023,4.023,0,0,0,2.011-3.057c.1-1.431-.693-2.77-.864-4.2a1.272,1.272,0,0,1,.048-.643,1.574,1.574,0,0,1,.618-.617A11.42,11.42,0,0,0,260.554,63c-.525-2.85-2.159-5.685-1.368-8.474.437-1.541,1.563-2.789,2.194-4.261a7.156,7.156,0,0,0,.234-4.958c-.361-1.124-1.014-2.247-.79-3.4.4-2.053,1.793-3.836,1.909-5.852C262.846,34.294,260.835,32.4,260.1,31.942Z" transform="translate(-213.739 -22.051)"/>
      <path id="Path_3657" data-name="Path 3657" class="cls-9" d="M292.767,494.7H263.5V479.05l16.335,6.262,12.932-6.262Z" transform="translate(-235.862 -410.456)"/>
      <path id="Path_3658" data-name="Path 3658" class="cls-10" d="M292.767,494.7H263.5V479.05l16.335,6.262,12.932-6.262Z" transform="translate(-235.862 -410.456)"/>
      <path id="Path_3659" data-name="Path 3659" class="cls-8" d="M415,595.117s-5.309,1.269-5.853,3.594,3.131,2.114,3.131,2.114,5.173-1.058,5.853-5.286S415,595.117,415,595.117Z" transform="translate(-361.638 -509.364)"/>
      <path id="Path_3660" data-name="Path 3660" class="cls-11" d="M415,595.117s-5.309,1.269-5.853,3.594,3.131,2.114,3.131,2.114,5.173-1.058,5.853-5.286S415,595.117,415,595.117Z" transform="translate(-361.638 -509.364)"/>
      <path id="Path_3661" data-name="Path 3661" class="cls-12" d="M315.573,616.894s-5.005.325-5.073,4.386c-.009.544,5.214.7,11.414-2.631s6.622-3.685,6.622-3.685-2.4-3.86-4.084-4.386S315.573,616.894,315.573,616.894Z" transform="translate(-276.464 -524.054)"/>
      <path id="Path_3662" data-name="Path 3662" class="cls-13" d="M122.745,522.194s-5.717,4.764,4.9,11.435a34.877,34.877,0,0,0,20.827,5.445s11.075-1.311,12.752-6.51-8.26-9.553-8.26-9.553-10.89,0-15.79-3.131S122.745,522.194,122.745,522.194Z" transform="translate(-112.939 -444.89)"/>
      <path id="Path_3663" data-name="Path 3663" class="cls-13" d="M318.239,473.975s4.9,2.859,11.571,0c5.132-2.2,16.389-1.337,21.308-.817a5.691,5.691,0,0,1,4.911,4.061c.515,1.82.136,4.056-2.943,6.153-6.806,4.628-11.571,5.99-13.34,7.9s-6.806,2.859-6.806,2.859-6.4-.953-6.4-2.314,5.853-8.031,5.853-8.031-8.576,7.9-17.424-2.723S318.239,473.975,318.239,473.975Z" transform="translate(-277.532 -404.838)"/>
      <path id="Path_3664" data-name="Path 3664" class="cls-14" d="M231.788,166,214.5,154.159s8.293-5.623,9-10.649a4.084,4.084,0,0,0-.565-2.827c-3.4-5.445,11.979,0,11.979,0a32.152,32.152,0,0,0,.579,4.22c.668,3.315,2.079,7.729,5,9.937C245.537,158.651,231.788,166,231.788,166Z" transform="translate(-193.532 -116.058)"/>
      <path id="Path_3665" data-name="Path 3665" class="cls-11" d="M285.938,144.9a10.08,10.08,0,0,1-11.993-1.387,4.084,4.084,0,0,0-.565-2.827c-3.4-5.445,11.979,0,11.979,0A32.057,32.057,0,0,0,285.938,144.9Z" transform="translate(-243.972 -116.058)"/>
      <ellipse id="Ellipse_353" data-name="Ellipse 353" class="cls-8" cx="9.221" cy="10.073" rx="9.221" ry="10.073" transform="translate(26.822 9.788)"/>
      <path id="Path_3666" data-name="Path 3666" class="cls-11" d="M156.348,210.4s-2.042,11.979-5.445,11.3-14.021-12.66-14.021-12.66-11.026,3.675-9.256,12.66,3.539,16.607-.136,19.466-5.989,16.2-5.989,16.2,11.707-4.9,17.832-2.995,12.387.953,13.885-.817a50.161,50.161,0,0,0,3.675-5.581s-3.131-4.628-1.633-6.942,3.4-2.45,4.492-8.984,9.665-8.848,8.031-12.524S163.018,210.4,156.348,210.4Z" transform="translate(-113.191 -177.201)"/>
      <path id="Path_3667" data-name="Path 3667" class="cls-15" d="M156.348,206.4s-2.042,11.979-5.445,11.3-14.021-12.66-14.021-12.66-11.026,3.675-9.256,12.66,4.027,17.4-.136,20.01c-3.942,2.477-5.989,15.654-5.989,15.654s11.707-4.9,17.832-2.995,12.387.953,13.885-.817a50.163,50.163,0,0,0,3.675-5.581s-3.4-4.084-1.906-6.4,3.812-3.267,4.9-9.8,9.529-8.576,7.9-12.251S163.018,206.4,156.348,206.4Z" transform="translate(-113.191 -173.746)"/>
      <path id="Path_3668" data-name="Path 3668" class="cls-8" d="M425.406,572.666s5.445-1.361,7.351.272,8.3,5.036,6.126,6.4-15.382-.408-15.382-.408Z" transform="translate(-374.082 -490.869)"/>
      <g id="Group_1354" data-name="Group 1354" class="cls-16" transform="translate(8.309 31.294)">
        <path id="Path_3669" data-name="Path 3669" d="M240.784,217.7a1.453,1.453,0,0,0,.935-.136c-3.782-1.459-13.595-12.524-13.595-12.524s-.387.129-1,.4C229,207.522,237.753,217.094,240.784,217.7Z" transform="translate(-212.742 -205.04)"/>
        <path id="Path_3670" data-name="Path 3670" d="M318.817,280.886c3.754-1.444-6.942,5.99-8.031,12.523s-2.995,6.67-4.492,8.984,1.633,6.942,1.633,6.942a50.173,50.173,0,0,1-3.675,5.581c-.858,1.014-3.279,1.757-6.342,1.851,3.694.117,6.722-.693,7.7-1.851a50.162,50.162,0,0,0,3.675-5.581s-3.131-4.628-1.633-6.942,3.4-2.45,4.492-8.984S317.933,281.226,318.817,280.886Z" transform="translate(-273.896 -270.404)"/>
        <path id="Path_3671" data-name="Path 3671" d="M121.6,537.687c-.069.363-.1.569-.1.569s7.612-3.187,13.773-3.421C130.518,534.637,124.374,536.66,121.6,537.687Z" transform="translate(-121.5 -489.93)"/>
      </g>
      <path id="Path_3672" data-name="Path 3672" class="cls-8" d="M415.509,277.04s1.225.136,2.45,6.534,5.99,12.524,5.99,12.524a29.661,29.661,0,0,1,4.356,8.3c1.634,4.9,8.916,11.366,11.5,11.639,0,0-4.969,4.969-4.424,6.33s-.545,0-.545,0-6.806-2.586-8.3-6.806-8.031-11.026-8.031-11.026-8.712-16.88-9.12-19.6S415.509,277.04,415.509,277.04Z" transform="translate(-361.871 -235.945)"/>
      <path id="Path_3673" data-name="Path 3673" class="cls-11" d="M179,445.54s10.482,1.225,12.8,4.492,13.034-1.9,13.034-1.9" transform="translate(-162.864 -381.508)"/>
      <path id="Path_3674" data-name="Path 3674" class="cls-11" d="M182.42,289.945s4.492,16.471,6.126,18.513,14.293,18.785,20.283,17.7c0,0-1.477,6.948-2.7,7.22,0,0-12.68-11.576-16.9-11.44,0,0-7.759-6.4-8.576-9.529s-7.351-13.34-7.351-13.34-3.267-7.215-1.906-10.346S179.97,286.95,182.42,289.945Z" transform="translate(-156.007 -244.493)"/>
      <path id="Path_3675" data-name="Path 3675" class="cls-8" d="M183.42,287.945s4.492,16.471,6.126,18.513,14.293,18.785,20.283,17.7c0,0-.662,6.994-2.5,6.907s-7.294-6.806-17.1-11.127c0,0-7.759-6.4-8.576-9.529s-7.351-13.34-7.351-13.34-3.267-7.215-1.906-10.346S180.97,284.95,183.42,287.945Z" transform="translate(-156.871 -242.766)"/>
      <path id="Path_3676" data-name="Path 3676" class="cls-11" d="M213.019,15.949a2.918,2.918,0,0,0-2.379-2.653c-.852-.136-1.8.1-2.536-.354a4.644,4.644,0,0,1-.834-.817,5.888,5.888,0,0,0-4.145-1.678,14.847,14.847,0,0,0-4.508.749c-2.935.845-6.036,2.085-7.6,4.71-2.374,4-.184,9.38-2.061,13.632-.817,1.857-2.374,3.373-2.88,5.339-.681,2.626.662,5.29,1.695,7.8.927,2.249,2.392,4.168,2.863,6.554.415,2.107-.57,4.254-1.039,6.354a9.082,9.082,0,0,0,.094,3.236c.272,1.4,1.623,2.277,2.85,2.995l.32.188a15.258,15.258,0,0,0,5.617,2.347,5.827,5.827,0,0,0,3.675-.66,4.023,4.023,0,0,0,2.011-3.057c.1-1.431-.693-2.77-.864-4.2a1.272,1.272,0,0,1,.048-.643,1.574,1.574,0,0,1,.618-.617A11.42,11.42,0,0,0,208.554,44c-.525-2.85-3.383-4.334-2.592-7.123.437-1.541,2.786-4.14,3.418-5.611a7.156,7.156,0,0,0,.234-4.958c-.361-1.124-1.457-2.118-1.232-3.274.4-2.053,3.573-2.837,4.606-4.655a3.23,3.23,0,0,0-.98-4.127" transform="translate(-168.818 -5.638)"/>
      <path id="Path_3677" data-name="Path 3677" class="cls-17" d="M211.019,9.765a2.918,2.918,0,0,0-2.379-2.653,12.036,12.036,0,0,1-3.37-1.987,5.888,5.888,0,0,0-4.145-1.678,21.545,21.545,0,0,0-5.461.749,11.5,11.5,0,0,0-6.644,5.527c-2.374,4-.184,9.38-2.061,13.632-.817,1.857-2.374,3.373-2.88,5.339-.681,2.626.662,5.29,1.695,7.8.927,2.249,3.17,4.694,3.641,7.081.415,2.107-1.077,3.426-1.545,5.527a6.358,6.358,0,0,0,2.672,6.531l.32.188a15.258,15.258,0,0,0,5.617,2.347,5.827,5.827,0,0,0,3.675-.66,4.023,4.023,0,0,0,2.011-3.057c.1-1.431-.826-2.471-1-3.9a1.515,1.515,0,0,1,.8-1.559,11.42,11.42,0,0,0,4.59-11.173c-.525-2.85-3.679-4.144-2.889-6.933.437-1.541,3.083-4.33,3.715-5.8a7.155,7.155,0,0,0,.234-4.958C207.253,19,205.6,17.955,205.82,16.8c.4-2.053,4.135-2.784,5.169-4.6a3.23,3.23,0,0,0-.98-4.127" transform="translate(-167.09 0.409)"/>
      <path id="Path_3682" data-name="Path 3682" class="cls-18" d="M469.145,633.6H483.36a.885.885,0,0,1,.885.885v.489a.885.885,0,0,1-.885.885H469.145a.885.885,0,0,1-.885-.885v-.489A.885.885,0,0,1,469.145,633.6Z" transform="translate(-412.749 -543.968)"/>
      <g id="Group_1356" data-name="Group 1356" class="cls-19" transform="translate(65.24 64.45)">
        <path id="Path_3683" data-name="Path 3683" class="cls-20" d="M543.572,448.61h32.045a3.841,3.841,0,0,1,3.841,3.841v19.787a3.841,3.841,0,0,1-3.841,3.841H543.572a3.841,3.841,0,0,1-3.841-3.841V452.451A3.842,3.842,0,0,1,543.572,448.61Z" transform="translate(-539.73 -448.61)"/>
      </g>
      <path id="Path_3684" data-name="Path 3684" d="M548.594,452.33h30.327a3.654,3.654,0,0,1,3.654,3.654v19.655a3.654,3.654,0,0,1-3.654,3.654H548.594a3.654,3.654,0,0,1-3.654-3.654V455.984A3.654,3.654,0,0,1,548.594,452.33Z" transform="translate(-478.991 -387.373)"/>
      <path id="Path_3685" data-name="Path 3685" class="cls-18" d="M552.424,452.33h30.327a3.654,3.654,0,0,1,3.654,3.654v19.655a3.654,3.654,0,0,1-3.654,3.654H552.424a3.654,3.654,0,0,1-3.654-3.654V455.984A3.654,3.654,0,0,1,552.424,452.33Z" transform="translate(-482.299 -387.373)"/>
      <ellipse id="Ellipse_357" data-name="Ellipse 357" class="cls-21" cx="1.216" cy="1.216" rx="1.216" ry="1.216" transform="translate(85.831 77.037)"/>
      <path id="Path_3687" data-name="Path 3687" class="cls-22" d="M196.981,641.2a3.472,3.472,0,0,1-.046-3.345,2.7,2.7,0,0,1,3.2-1.172l.11-.039a3.518,3.518,0,0,1,2.54.057,3.517,3.517,0,0,0-2.995-.286l-.11.039a2.7,2.7,0,0,0-3.2,1.172,3.472,3.472,0,0,0,.046,3.345,5.169,5.169,0,0,0,2.45,2.314A5.354,5.354,0,0,1,196.981,641.2Z" transform="translate(-177.614 -546.216)"/>
      <g id="Group_1357" data-name="Group 1357" transform="translate(18.457 85.449)">
        <path id="Path_3686" data-name="Path 3686" class="cls-23" d="M199.966,636.909a2.926,2.926,0,0,0-3.472,1.271,3.765,3.765,0,0,0,.05,3.627,5.324,5.324,0,0,0,5.166,2.923c2.453-.131,3.27-2,3.491-3.745a3.847,3.847,0,0,0-5.109-4.118Z" transform="translate(-196.054 -632.675)"/>
        <path id="Path_3688" data-name="Path 3688" class="cls-24" d="M214.36,645.18s.869.683,2.979,0" transform="translate(-211.658 -639.952)"/>
        <path id="Path_3689" data-name="Path 3689" class="cls-25" d="M213.1,611.54s1.489,4.034,1.365,5.09l1.181-.124s-1.987-3.543-1.489-4.966Z" transform="translate(-210.584 -611.278)"/>
        <path id="Path_3691" data-name="Path 3691" class="cls-26" d="M227.7,610.364s-2.344-1.2-3.4-.208-1.21,3.522-1.21,3.522A4.094,4.094,0,0,0,227.7,610.364Z" transform="translate(-219.099 -609.764)"/>
        <path id="Path_3693" data-name="Path 3693" class="cls-27" d="M223.1,617.144s.616-2.939,4.6-3.314" transform="translate(-219.108 -613.23)"/>
      </g>
    </g>
  </g>
</svg>
