<svg id="Group_2239" data-name="Group 2239" xmlns="http://www.w3.org/2000/svg" xmlns:xlink="http://www.w3.org/1999/xlink" width="111.047" height="94.368" viewBox="0 0 111.047 94.368">
  <defs>
    <style>
      .cls-1 {
        fill: #e8e8e8;
      }

      .cls-12, .cls-2 {
        fill: #0a8db1;
      }

      .cls-2 {
        opacity: 0.25;
      }

      .cls-3 {
        clip-path: url(#clip-path);
      }

      .cls-4 {
        fill: #83ea33;
      }

      .cls-20, .cls-5 {
        fill: none;
        stroke-miterlimit: 10;
      }

      .cls-5 {
        stroke: #535461;
        stroke-width: 2px;
      }

      .cls-6 {
        fill: #619b34;
      }

      .cls-7 {
        fill: url(#linear-gradient);
      }

      .cls-8 {
        fill: #00416c;
      }

      .cls-9 {
        fill: #e4b89f;
      }

      .cls-10 {
        fill: #f7c4a7;
      }

      .cls-11, .cls-13 {
        opacity: 0.1;
      }

      .cls-14 {
        fill: #0a1726;
      }

      .cls-15 {
        fill: #2a2b31;
      }

      .cls-16, .cls-19 {
        fill: #fff;
      }

      .cls-17 {
        fill: #617bff;
      }

      .cls-18 {
        fill: #3b4242;
      }

      .cls-19 {
        opacity: 0.29;
      }

      .cls-20 {
        stroke: #0a1726;
      }
    </style>
    <clipPath id="clip-path">
      <path id="Path_3647" data-name="Path 3647" class="cls-1" d="M2.116,45.765s-.795-19.53,10.925-26.63,18.62-.729,29.417-4.64S55.742-7.031,81.364,3.1s31.584,35.569,29.2,60.488-19.1,30.3-39.044,30.3S2.291,98.038.515,81.951,2.116,45.765,2.116,45.765Z" transform="translate(0.002 0)"/>
    </clipPath>
    <linearGradient id="linear-gradient" x1="0.787" y1="0.175" x2="0.787" y2="1.175" gradientUnits="objectBoundingBox">
      <stop offset="0" stop-color="gray" stop-opacity="0.251"/>
      <stop offset="0.54" stop-color="gray" stop-opacity="0.122"/>
      <stop offset="1" stop-color="gray" stop-opacity="0.102"/>
    </linearGradient>
  </defs>
  <path id="Path_3648" data-name="Path 3648" class="cls-2" d="M2.116,45.765s-.795-19.53,10.925-26.63,18.62-.729,29.417-4.64S55.742-7.031,81.364,3.1s31.584,35.569,29.2,60.488-19.1,30.3-39.044,30.3S2.291,98.038.515,81.951,2.116,45.765,2.116,45.765Z" transform="translate(0.002 0)"/>
  <g id="Mask_Group_213" data-name="Mask Group 213" class="cls-3" transform="translate(0 0)">
    <g id="Group_1353" data-name="Group 1353" transform="translate(-1.203 4.221)">
      <path id="Path_3612" data-name="Path 3612" class="cls-4" d="M63.639,229a22.578,22.578,0,0,1,4.119,23.487c-5.339,14.029,9.151,37.377,9.151,37.377s-.155-.023-.443-.074A27.528,27.528,0,0,1,58.2,247.647C62.208,241.506,65.5,234.309,63.639,229Z" transform="translate(-46.793 -199.991)"/>
      <path id="Path_3613" data-name="Path 3613" class="cls-5" d="M115.972,229s5.339,11.594,0,21.05-.915,36,13.271,39.814" transform="translate(-99.126 -199.991)"/>
      <path id="Path_3614" data-name="Path 3614" class="cls-6" d="M.21,524.622S11,522.9,11.986,532.575s20.753,11.013,20.753,11.013-.129.088-.37.247c-16.323,10.711-31.926,6.825-29.574-7.4C3.668,531.143,3.6,525.83.21,524.622Z" transform="translate(-0.21 -457.361)"/>
      <path id="Path_3616" data-name="Path 3616" class="cls-5" d="M.21,525.42s8.376,1.839,7.689,9.455,12.44,16.752,24.84,9.511" transform="translate(-0.21 -458.159)"/>
      <path id="Path_3617" data-name="Path 3617" class="cls-7" d="M268.094,44.406a53.194,53.194,0,0,1-.8-7.318h0a9.808,9.808,0,0,0-6.9-8.953c-.7-.217-1.48-.419-2.337-.6-7.511-1.6-9.792-.2-10.051-.019a9.718,9.718,0,0,1-.572-1.24c-.013-.044-.025-.088-.037-.129a9.612,9.612,0,0,0,2.569-5.793,6.338,6.338,0,0,0,1.985-4.453,6.113,6.113,0,0,0-1.49-3.9V9.752A9.751,9.751,0,0,0,240.712,0h-.791a9.751,9.751,0,0,0-9.752,9.752h0v2.417A6.051,6.051,0,0,0,228.82,15.9a6.3,6.3,0,0,0,1.907,4.372,9.62,9.62,0,0,0,2.676,5.98c.053.366.107.76.16,1.176L220.13,30.262s-5.18.213-8.517,7.1c-2.822,5.832-8.438,20.814-10.1,25.274h0c-.3.808-.471,1.271-.471,1.271s.055-.055.16-.151l-.16.435s.081-.083.236-.218c-.235,1.866-.268,5.07,2.176,5.469,2.049.334,7.33.472,11.319.528h.276C217.691,70,219.7,70,219.7,70v-.035h42.9v-.44a2.972,2.972,0,0,0-.236-1.161l.059-.072a2.356,2.356,0,0,1,.445,1.032,1.059,1.059,0,0,1-.021.108l.026-.066a1.1,1.1,0,0,1-.026.35s5.5-14.181,5.444-22.649A14.259,14.259,0,0,0,268.094,44.406ZM233.787,29.34a9.96,9.96,0,0,1-.137-1.223v-.012C233.7,28.5,233.744,28.917,233.787,29.34ZM217.111,59.8v3.38L215,63.633Z" transform="translate(-175.473)"/>
      <path id="Path_3618" data-name="Path 3618" class="cls-8" d="M436.863,10.57h0c5.386,0,10.238,4.366,10.238,9.752l.486,4.16H426.14l.486-4.16C426.626,14.936,431.478,10.57,436.863,10.57Z" transform="translate(-372.265 -9.206)"/>
      <ellipse id="Ellipse_350" data-name="Ellipse 350" class="cls-8" cx="11.116" cy="7.638" rx="11.116" ry="7.638" transform="translate(53.549 9.002)"/>
      <path id="Path_3619" data-name="Path 3619" class="cls-9" d="M446.533,170.177s2.323,12.139,0,15.413,7.1,4.57,7.1,4.57l9.751-3.546,1.364-8.73s-5.936-3.342-4.706-10.094Z" transform="translate(-389.005 -146.298)"/>
      <path id="Path_3620" data-name="Path 3620" class="cls-10" d="M608.521,478.995s.614,2.66-2.728,3.137a18.911,18.911,0,0,1-5.947-.071l-.737-6.681h7.775Z" transform="translate(-522.302 -414.41)"/>
      <path id="Path_3621" data-name="Path 3621" class="cls-10" d="M212.508,451.195s-1.476,6,1.866,6.541,15.615.546,15.615.546v-7.1l-5.557,1.187-5.216-5Z" transform="translate(-185.012 -390.009)"/>
      <path id="Path_3622" data-name="Path 3622" class="cls-11" d="M242.607,212.695l-13.061,2.762s-4.979.205-8.184,6.82S211.2,247.784,211.2,247.784s5.936-6,12.89.409l4.638-8.388-1.023,13.3h35.937v-6.276s7.5,4.024,6.957,6.274c0,0,6.42-16.541,5.033-24.058a51.082,51.082,0,0,1-.767-7.033h0a9.422,9.422,0,0,0-6.63-8.6c-.676-.208-1.42-.4-2.245-.577-7.707-1.636-9.678,0-9.678,0s-1.493,4.857-1.466,7.059c.034,2.83-4.024,4.706-4.024,4.706s-6-1.432-6.274-2.591S242.127,214.059,242.607,212.695Z" transform="translate(-184.321 -185.006)"/>
      <path id="Path_3623" data-name="Path 3623" class="cls-12" d="M242.6,210.585l-13.061,2.762s-4.979.205-8.184,6.82-10.164,25.51-10.164,25.51,5.936-6,12.89.409l4.638-8.388-1.023,13.3h35.938v-6.274s7.5,4.024,6.957,6.274c0,0,5.589-16.434,5.033-24.058-.228-3.127-.466-4.035-.767-7.033h0a9.422,9.422,0,0,0-6.63-8.6c-.676-.208-1.419-.4-2.245-.577-7.707-1.636-9.679,0-9.679,0s-1.493,4.341-1.466,6.543c.034,2.83-2.555,4.059-4.033,4.362-1.641.336-5.412.088-6.265-2.376C244.15,218.125,242.119,211.949,242.6,210.585Z" transform="translate(-184.311 -183.165)"/>
      <path id="Path_3624" data-name="Path 3624" class="cls-11" d="M464.442,177.4a9.239,9.239,0,0,1-.356-4.842l-13.506,2.386s.195,1.021.416,2.55c2.4,5.122,9.062,6.864,13.112.243q.17-.165.332-.337Z" transform="translate(-392.836 -150.432)"/>
      <path id="Path_3625" data-name="Path 3625" class="cls-10" d="M450.668,93.57c-.022,5.123-4.07,10.832-9.193,10.81-5-.022-9.211-5.583-9.355-10.586V93.57a9.277,9.277,0,0,1,5.2-8.335c.277-.136.564-.258.857-.367a9.34,9.34,0,0,1,4.775-.444h0a9.27,9.27,0,0,1,7.693,8.53C450.66,93.158,450.668,93.364,450.668,93.57Z" transform="translate(-376.76 -73.417)"/>
      <g id="Group_1347" data-name="Group 1347" class="cls-13" transform="translate(55.359 11.218)">
        <path id="Path_3626" data-name="Path 3626" d="M438.153,90.378l.013-.008c-.293.108-.579.231-.857.366a9.277,9.277,0,0,0-5.2,8.335V99.3a2.07,2.07,0,0,0,.832-.2c2.261-1.056,3.613-4.284,4.15-6.536A3.431,3.431,0,0,1,438.153,90.378Z" transform="translate(-432.11 -89.926)"/>
        <path id="Path_3627" data-name="Path 3627" d="M480.334,87.641a9.2,9.2,0,0,0-2.306-.711,2.972,2.972,0,0,1,1.656,1.04,4.22,4.22,0,0,1,.507.9,9.3,9.3,0,0,0-7.8.161c.582,1.276,2.387,1.972,3.593,2.438q1.98.765,4,1.4l-1.192-.968,2.693.428a4.687,4.687,0,0,0-.188-1.587,16.377,16.377,0,0,0,1.76.9c1.049.662,1.487,1.936,2.058,3.039a2.012,2.012,0,0,0,.6.774A9.277,9.277,0,0,0,480.334,87.641Z" transform="translate(-467.192 -86.93)"/>
      </g>
      <path id="Path_3628" data-name="Path 3628" class="cls-14" d="M438.153,88.748l.013-.008c-.293.108-.579.231-.857.366a9.277,9.277,0,0,0-5.2,8.335v.225a2.07,2.07,0,0,0,.832-.2c2.261-1.056,3.613-4.284,4.15-6.536A3.447,3.447,0,0,1,438.153,88.748Z" transform="translate(-376.709 -77.288)"/>
      <path id="Path_3629" data-name="Path 3629" class="cls-14" d="M480.334,86.021a9.2,9.2,0,0,0-2.306-.711,2.972,2.972,0,0,1,1.656,1.04,4.22,4.22,0,0,1,.507.9,9.3,9.3,0,0,0-7.8.161,7.284,7.284,0,0,0,3.248,3.317,45.54,45.54,0,0,0,5.846,1.973l-3.336-2.678,3.829,1.038a7.941,7.941,0,0,0-.682-1.941,16.379,16.379,0,0,0,1.76.9c1.049.662,1.487,1.936,2.058,3.039a2.012,2.012,0,0,0,.6.774A9.277,9.277,0,0,0,480.334,86.021Z" transform="translate(-411.848 -74.301)"/>
      <path id="Path_3630" data-name="Path 3630" class="cls-11" d="M423.91,84.747s9.549-11.872,20.6,0l-.955-2.66s-5.184-7.57-8.866-5.936-7.3,2.8-7.3,2.8Z" transform="translate(-369.61 -66.123)"/>
      <path id="Path_3631" data-name="Path 3631" class="cls-8" d="M423.91,83.117s9.549-11.872,20.6,0l-.955-2.66s-5.184-7.57-8.866-5.936-7.3,2.8-7.3,2.8Z" transform="translate(-369.61 -64.703)"/>
      <path id="Path_3632" data-name="Path 3632" class="cls-11" d="M351.625,340.88s-2.045,5.456.818,10.366-2.523,6.957-2.523,6.957" transform="translate(-305.055 -297.196)"/>
      <path id="Path_3633" data-name="Path 3633" class="cls-11" d="M613.525,302.83s3.546,4.5,1.227,8.525-2.182,13.709-2.182,13.709" transform="translate(-534.006 -264.04)"/>
      <path id="Path_3634" data-name="Path 3634" class="cls-15" d="M316.733,506.3h39.42a3.274,3.274,0,0,1,3.274,3.274H313.46A3.275,3.275,0,0,1,316.733,506.3Z" transform="translate(-273.416 -441.348)"/>
      <path id="Path_3635" data-name="Path 3635" class="cls-15" d="M335.933,331.89h31.4a5.033,5.033,0,0,1,5.033,5.033v18.224H330.9V336.923A5.034,5.034,0,0,1,335.933,331.89Z" transform="translate(-288.602 -289.382)"/>
      <circle id="Ellipse_351" data-name="Ellipse 351" class="cls-16" cx="2.456" cy="2.456" r="2.456" transform="translate(60.555 52.708)"/>
      <g id="Group_1348" data-name="Group 1348" class="cls-13" transform="translate(54.846 8.455)">
        <path id="Path_3636" data-name="Path 3636" d="M428.14,70.123a10.616,10.616,0,0,1,.964-.964c.338-.306.7-.586,1.063-.861a15.505,15.505,0,0,1,2.352-1.421,13.82,13.82,0,0,1,2.6-.96,13.2,13.2,0,0,1,2.755-.395,11.8,11.8,0,0,1,2.776.266c.226.055.453.106.677.165l.663.212a6.922,6.922,0,0,1,.65.245l.32.134.16.067.155.079a14.556,14.556,0,0,1,4.373,3.262,20.53,20.53,0,0,0-4.615-2.709,12.752,12.752,0,0,0-7.743-.614,15.84,15.84,0,0,0-2.522.8,19.527,19.527,0,0,0-2.391,1.187A19.1,19.1,0,0,0,428.14,70.123Z" transform="translate(-428.14 -65.519)"/>
      </g>
      <rect id="Rectangle_1335" data-name="Rectangle 1335" class="cls-17" width="0.942" height="5.341" transform="translate(75.721 12.462)"/>
      <path id="Path_3637" data-name="Path 3637" class="cls-14" d="M580.62,123.35h0a3.246,3.246,0,0,1,3.247,3.247v.209a3.246,3.246,0,0,1-3.247,3.247h0v-6.7Z" transform="translate(-506.158 -107.529)"/>
      <path id="Path_3638" data-name="Path 3638" class="cls-17" d="M576.483,120.92h0a.732.732,0,0,1,.733.733v5.865a.732.732,0,0,1-.733.733h0a.733.733,0,0,1-.733-.733v-5.865A.733.733,0,0,1,576.483,120.92Z" transform="translate(-501.906 -105.412)"/>
      <rect id="Rectangle_1336" data-name="Rectangle 1336" class="cls-17" width="0.942" height="5.341" transform="translate(52.453 12.567)"/>
      <path id="Path_3639" data-name="Path 3639" class="cls-14" d="M404.147,130.863h0a3.246,3.246,0,0,1-3.247-3.247v-.209a3.246,3.246,0,0,1,3.247-3.247h0v6.7Z" transform="translate(-349.494 -108.235)"/>
      <path id="Path_3640" data-name="Path 3640" class="cls-17" d="M420.3,129.051h0a.732.732,0,0,1-.733-.733v-5.865a.732.732,0,0,1,.733-.733h0a.732.732,0,0,1,.733.733v5.865A.732.732,0,0,1,420.3,129.051Z" transform="translate(-365.764 -106.109)"/>
      <path id="Path_3641" data-name="Path 3641" class="cls-14" d="M430.542,11.307c-1.276-2.792-4.056-6.169-10.048-6.439V4.86h-.072l-2.123.106v.011c-5.952.288-8.718,3.652-9.991,6.435a15.112,15.112,0,0,0-1.319,6.03l.733-.019.733-.018a13.7,13.7,0,0,1,1.191-5.367c1.616-3.493,4.589-5.35,8.836-5.522h0l1.878-.11h0c4.25.171,7.224,2.03,8.838,5.522a13.7,13.7,0,0,1,1.194,5.37l.733.018.733.019A15.1,15.1,0,0,0,430.542,11.307Z" transform="translate(-354.876 -4.86)"/>
      <rect id="Rectangle_1337" data-name="Rectangle 1337" class="cls-18" width="99.313" height="26.842" transform="translate(9.559 68.11)"/>
      <rect id="Rectangle_1338" data-name="Rectangle 1338" class="cls-11" width="99.313" height="3.484" transform="translate(9.559 70.044)"/>
      <rect id="Rectangle_1339" data-name="Rectangle 1339" class="cls-17" width="112.724" height="3.484" transform="translate(2.852 67.863)"/>
      <g id="Group_1373" data-name="Group 1373" transform="translate(55.694 16.64)">
        <circle id="Ellipse_364" data-name="Ellipse 364" class="cls-19" cx="3.963" cy="3.963" r="3.963" transform="translate(9.948 0)"/>
        <rect id="Rectangle_1357" data-name="Rectangle 1357" class="cls-16" width="7.387" height="0.485" transform="translate(13.642 7.758) rotate(-70.561)"/>
        <rect id="Rectangle_1358" data-name="Rectangle 1358" class="cls-16" width="7.819" height="0.256" transform="translate(12.996 7.837) rotate(-70.561)"/>
        <rect id="Rectangle_1359" data-name="Rectangle 1359" class="cls-16" width="7.387" height="0.485" transform="translate(3.787 7.759) rotate(-70.561)"/>
        <rect id="Rectangle_1360" data-name="Rectangle 1360" class="cls-16" width="7.819" height="0.256" transform="translate(3.142 7.838) rotate(-70.561)"/>
        <circle id="Ellipse_365" data-name="Ellipse 365" class="cls-19" cx="3.963" cy="3.963" r="3.963" transform="translate(0 0)"/>
        <line id="Line_182" data-name="Line 182" class="cls-20" x2="2.062" transform="translate(7.899 3.64)"/>
        <circle id="Ellipse_366" data-name="Ellipse 366" class="cls-20" cx="3.963" cy="3.963" r="3.963" transform="translate(0 0)"/>
        <circle id="Ellipse_367" data-name="Ellipse 367" class="cls-20" cx="3.963" cy="3.963" r="3.963" transform="translate(9.948 0)"/>
      </g>
    </g>
  </g>
</svg>
