<svg xmlns="http://www.w3.org/2000/svg" width="38.25" height="38.25" viewBox="0 0 38.25 38.25">
    <path fill="#eee" d="M22.5 3.375A19.125 19.125 0 1 0 41.625 22.5 19.122 19.122 0 0 0 22.5 3.375zm5.02 3.347A16.592 16.592 0 0 1 38.278 17.48l-8.165.552A8.829 8.829 0 0 0 27 14.905zM10.8 10.8a16.432 16.432 0 0 1 6.68-4.078l.52 8.183a9.031 9.031 0 0 0-3.117 3.117l-8.17-.542A16.615 16.615 0 0 1 10.8 10.8zm6.68 27.478A16.592 16.592 0 0 1 6.722 27.52l8.183-.52a8.9 8.9 0 0 0 3.108 3.1zm5.02-9.526a6.252 6.252 0 1 1 6.252-6.252 6.259 6.259 0 0 1-6.252 6.252zM34.2 34.2a16.493 16.493 0 0 1-6.685 4.073l-.537-8.173a8.857 8.857 0 0 0 3.135-3.145l8.165.552A16.464 16.464 0 0 1 34.2 34.2z" transform="translate(-3.375 -3.375)"/>
</svg>
