<svg xmlns="http://www.w3.org/2000/svg" width="55.371" height="39.617" viewBox="0 0 55.371 39.617">
    <defs>
        <style>
            .cls-1{fill:#eee}
        </style>
    </defs>
    <g id="Group_2831" transform="translate(331.685 -248.573)">
        <path id="Path_6505" d="M-309.3 278.81l-6.01-17.69h-10.29l-5.4 17.56a6.448 6.448 0 0 0 .14 6.05c1.2 1.98 3.61 3.24 6.62 3.44.2.01.39.02.59.02h6.87c.2 0 .39-.01.59-.02 3-.2 5.41-1.44 6.63-3.38a6.4 6.4 0 0 0 .26-5.98zm-15.77 5.81c-1.97 0-3.57-1.91-3.57-4.27a.721.721 0 0 1 .72-.71.713.713 0 0 1 .71.71c0 1.57.96 2.85 2.14 2.85a.713.713 0 0 1 .71.71.706.706 0 0 1-.71.71z" class="cls-1"/>
        <path id="Path_5903" d="M-326 254.735a2.066 2.066 0 0 0 1.944 1.4h6.5a2.067 2.067 0 0 0 1.944-1.4 5 5 0 0 1 1.371-2.163 2.127 2.127 0 0 0 .723-2.023 2.031 2.031 0 0 0-1.369-1.554 5.6 5.6 0 0 0-5.482.689.682.682 0 0 1-.87 0 5.6 5.6 0 0 0-5.481-.689 2.027 2.027 0 0 0-1.373 1.553 2.127 2.127 0 0 0 .72 2.024 5 5 0 0 1 1.373 2.163z" class="cls-1"/>
        <path id="Path_5904" d="M-315.1 259.365v-1.806a.712.712 0 0 0-.712-.712h-9.259a.713.713 0 0 0-.712.713.712.712 0 0 0 .712.711h8.546v.712h-8.546a.713.713 0 0 0-.712.713.712.712 0 0 0 .712.711h9.011a3.529 3.529 0 0 0 4.78-.209.712.712 0 0 0 0-1.007.712.712 0 0 0-1.007 0 2.132 2.132 0 0 1-2.813.174z" class="cls-1"/>
        <g id="Group_2561">
            <path id="Path_5906" d="M-299.44 278.93a19 19 0 0 0-4.45.49c.06.02.13.03.2.05.16.03.31.07.47.1l.23.04c.17.03.34.06.52.09l.17.02c.23.03.46.06.69.08l.17.02c.17.01.35.03.52.04l.22.01c.16.01.32.02.47.02l.19.01c.21.01.41.01.6.01s.4 0 .6-.01l.2-.01c.15 0 .31-.01.47-.02l.22-.01c.18-.01.35-.03.53-.05l.16-.01c.23-.02.46-.05.69-.08l.17-.03c.18-.02.35-.05.52-.08l.23-.04c.16-.03.31-.06.47-.1.07-.02.14-.03.2-.05a19.085 19.085 0 0 0-4.46-.49zm5.7.9v1.45a.49.49 0 0 1-.07.11l.02.02a.12.12 0 0 1-.05.05.861.861 0 0 1-.1.07.923.923 0 0 1-.1.05 1.193 1.193 0 0 1-.15.09 11.076 11.076 0 0 1-5.24 1.09h-.01c-3.01 0-5.06-.83-5.57-1.28-.01-.01-.02-.01-.03-.02l-.03-.03c-.01 0-.01-.01-.02-.02l.01-.01a.133.133 0 0 1-.05-.06v-1.51c-.82.35-1.39.85-1.43 1.51v4c0 1.76 3.7 2.85 7.12 2.85s7.13-1.09 7.13-2.85v-4c-.04-.66-.61-1.16-1.43-1.51zm0 5.45c-.17.45-2.34 1.48-5.69 1.48h-.01c-3.36 0-5.52-1.03-5.69-1.42v-2.32c.02.01.04.01.06.02.17.07.35.14.54.2l.03.01c.19.06.4.12.61.17.06.02.13.03.2.05.16.03.31.07.47.1l.23.04c.17.03.34.06.52.09l.17.02c.23.03.46.06.69.08l.17.02c.17.01.35.03.52.04l.22.01c.16.01.32.02.47.02l.19.01c.21.01.41.01.6.01s.4 0 .6-.01l.2-.01c.15 0 .31-.01.47-.02l.22-.01c.18-.01.35-.03.53-.05l.16-.01c.23-.02.46-.05.69-.08l.17-.03c.18-.02.35-.05.52-.08l.23-.04c.16-.03.31-.06.47-.1.07-.02.14-.03.2-.05.22-.05.43-.11.62-.17l.03-.01c.19-.06.36-.13.53-.2l.06-.03z" class="cls-1"/>
        </g>
        <path id="Path_5906-2" d="M-283.436 278.927c-2.645 0-7.122.525-7.122 2.493v3.917c0 1.76 3.7 2.849 7.122 2.849s7.122-1.09 7.122-2.849v-3.917c0-1.967-4.475-2.493-7.122-2.493zm5.647 2.487a.413.413 0 0 1-.048.046 1.055 1.055 0 0 1-.1.07c-.039.024-.1.061-.166.093s-.1.052-.164.078-.163.067-.254.1c-.073.027-.146.054-.229.082-.1.034-.224.068-.344.1-.094.026-.187.053-.291.079-.135.033-.288.064-.439.1-.115.024-.224.048-.348.07-.171.03-.362.056-.551.081-.129.018-.249.038-.387.053-.224.026-.471.043-.718.061-.125.009-.239.022-.37.03-.389.021-.8.034-1.24.034s-.851-.013-1.24-.034c-.131-.007-.245-.02-.37-.03-.246-.019-.494-.036-.718-.061-.137-.016-.258-.036-.387-.053-.189-.026-.38-.051-.551-.081-.124-.022-.233-.046-.348-.07-.152-.031-.3-.062-.439-.1-.1-.026-.2-.052-.291-.079-.12-.033-.239-.068-.344-.1-.083-.027-.156-.055-.229-.082-.09-.034-.179-.068-.254-.1s-.113-.053-.164-.078-.119-.063-.166-.093a.855.855 0 0 1-.1-.07.415.415 0 0 1-.048-.046c.4-.367 2.281-1.062 5.643-1.062s5.255.694 5.655 1.062zm-5.644 5.347c-3.362 0-5.522-1.034-5.7-1.424v-2.32c.019.009.043.015.063.023a5.47 5.47 0 0 0 .538.2l.031.01c.194.063.4.119.607.171.068.017.139.033.209.048.152.035.306.068.464.1l.229.043c.173.031.347.058.523.083l.166.025q.345.047.689.08l.172.015c.176.016.35.03.522.041l.221.014c.16.009.315.016.469.022l.193.007c.209.006.412.009.6.009s.4 0 .6-.009l.2-.007c.152-.006.307-.013.466-.022l.224-.014c.173-.011.347-.025.523-.042l.169-.015c.229-.023.459-.049.689-.08l.168-.025c.175-.024.349-.052.521-.083l.229-.043c.157-.031.312-.063.465-.1.07-.016.14-.031.208-.048.213-.053.421-.11.618-.174l.028-.01c.186-.061.362-.129.529-.2l.063-.024v2.27c-.176.446-2.338 1.479-5.7 1.479z" class="cls-1"/>
        <g id="Group_2560">
            <path id="Path_5907" d="M-299.44 274.93c-2.64 0-7.12.52-7.12 2.49v4c.05.65.59 1.2 1.43 1.63a13.22 13.22 0 0 0 5.69 1.14 13.267 13.267 0 0 0 5.7-1.14c.84-.43 1.38-.98 1.43-1.63v-4c0-1.97-4.48-2.49-7.13-2.49zm0 1.42c3.36 0 5.25.7 5.65 1.06a.12.12 0 0 1-.05.05.861.861 0 0 1-.1.07c-.04.02-.1.06-.16.09a.654.654 0 0 1-.17.08 2.158 2.158 0 0 1-.25.1 1.558 1.558 0 0 1-.23.08 2.746 2.746 0 0 1-.34.1 2.625 2.625 0 0 1-.3.08c-.13.04-.28.07-.43.1-.12.02-.23.05-.35.07-.17.03-.36.05-.55.08-.13.02-.25.04-.39.05-.22.03-.47.04-.72.06l-.37.03c-.39.02-.8.04-1.24.04s-.85-.02-1.24-.04c-.13 0-.24-.02-.37-.03-.24-.02-.49-.03-.72-.06-.13-.01-.25-.03-.38-.05-.19-.03-.38-.05-.55-.08-.13-.02-.24-.05-.35-.07-.15-.03-.3-.06-.44-.1a2.452 2.452 0 0 1-.29-.08 3.573 3.573 0 0 1-.35-.1 2.1 2.1 0 0 1-.23-.08c-.09-.03-.17-.07-.25-.1a1.186 1.186 0 0 1-.16-.08 1.393 1.393 0 0 1-.17-.09.607.607 0 0 1-.1-.07c-.02-.01-.03-.03-.05-.05.4-.36 2.28-1.06 5.65-1.06zm5.7 4.93a.49.49 0 0 1-.07.11 1.217 1.217 0 0 1-.23.19 1.193 1.193 0 0 1-.15.09 11.076 11.076 0 0 1-5.24 1.09h-.01c-3.01 0-5.06-.83-5.57-1.28-.01-.01-.02-.01-.03-.02l-.03-.03a.037.037 0 0 1-.01-.03.133.133 0 0 1-.05-.06v-2.32c.02.01.04.01.06.02.17.07.35.14.54.2l.03.01c.19.06.39.12.6.17h.01c.06.02.13.03.2.05.16.03.31.07.47.1l.23.04c.17.03.34.06.52.09l.17.02c.23.03.46.06.69.08l.17.02c.17.01.35.03.52.04l.22.01c.16.01.32.02.47.02l.19.01c.21.01.41.01.6.01s.4 0 .6-.01l.2-.01c.15 0 .31-.01.47-.02l.22-.01c.18-.01.35-.03.53-.05l.16-.01c.23-.02.46-.05.69-.08l.17-.03c.18-.02.35-.05.52-.08l.23-.04c.16-.03.31-.06.47-.1.07-.02.14-.03.2-.05h.01c.22-.05.42-.11.61-.17l.03-.01c.19-.06.36-.13.53-.2l.06-.03z" class="cls-1"/>
        </g>
    </g>
</svg>
