<svg xmlns="http://www.w3.org/2000/svg" width="60.541" height="38" viewBox="0 0 60.541 38">
    <defs>
        <style>
            .cls-1{fill:#eee}
        </style>
    </defs>
    <g id="Group_2393" transform="translate(-98.484 -32.6)">
        <path id="Icon_awesome-chalkboard-teacher" d="M12.583 21.551a1.384 1.384 0 0 0-.427.066 7.981 7.981 0 0 1-2.477.418 7.987 7.987 0 0 1-2.479-.418 1.38 1.38 0 0 0-.427-.066A6.776 6.776 0 0 0 0 28.365a2.9 2.9 0 0 0 2.9 2.866h13.555a2.9 2.9 0 0 0 2.9-2.866 6.776 6.776 0 0 0-6.772-6.814zm-2.9-1.936a5.808 5.808 0 1 0-5.808-5.808 5.808 5.808 0 0 0 5.805 5.809z" class="cls-1" transform="translate(98.484 34.361)"/>
        <path id="Icon_awesome-chalkboard-teacher-2" d="M15.3 24.473a1.682 1.682 0 0 0-.519.08 9.7 9.7 0 0 1-3.011.508 9.709 9.709 0 0 1-3.011-.508 1.678 1.678 0 0 0-.518-.08A8.237 8.237 0 0 0 0 32.755a3.521 3.521 0 0 0 3.53 3.484H20a3.521 3.521 0 0 0 3.53-3.484 8.237 8.237 0 0 0-8.23-8.282zm-3.53-2.353a7.06 7.06 0 1 0-7.06-7.06 7.06 7.06 0 0 0 7.056 7.06z" class="cls-1" transform="translate(135.493 34.361)"/>
        <g id="Group_2211" transform="translate(115.441 32.6)">
            <path id="Path_3607" d="M20.757 12.486a10.79 10.79 0 0 0 .464-1.1 8.512 8.512 0 0 0 .447-2.734A8.651 8.651 0 0 0 5.415 4.521 8.634 8.634 0 0 0 1.2 11.942a8.473 8.473 0 0 0 .447 2.734 10.008 10.008 0 0 0 .464 1.1L0 22.115l6.449-2.252a13.024 13.024 0 0 0 2.813.71c.193.009.394.018.6.018a8.645 8.645 0 0 0 7.158-3.8l5.853 2.033zm-10.9 6.352c-.166 0-.324-.009-.482-.018a12.761 12.761 0 0 1-2.611-.71l-.3-.105-3.68 1.279L4 15.649l-.166-.324c-.105-.228-.421-.876-.526-1.2A6.853 6.853 0 0 1 4.416 7.7a8.651 8.651 0 0 0 8.6 9.6c.2 0 .4-.009.6-.026a5.82 5.82 0 0 0 .727-.105 6.8 6.8 0 0 1-4.486 1.669zm8-3.61L16.4 14.72l-.28.1-.018.009a12.761 12.761 0 0 1-2.611.71c-.158.009-.315.018-.482.018a6.9 6.9 0 0 1-6.9-6.9 6.813 6.813 0 0 1 .622-2.865 7.021 7.021 0 0 1 1.822-2.4 6.892 6.892 0 0 1 11 7.448c-.105.324-.421.973-.526 1.192l-.166.324L20.082 16z" class="cls-1"/>
            <path id="Path_3608" d="M10.72 8.62a1.52 1.52 0 1 0 1.52 1.52 1.522 1.522 0 0 0-1.52-1.52z" class="cls-1" transform="translate(-1.199 -1.126)"/>
            <path id="Path_3609" d="M14.84 8.62a1.52 1.52 0 1 0 1.52 1.52 1.522 1.522 0 0 0-1.52-1.52z" class="cls-1" transform="translate(-1.737 -1.126)"/>
            <path id="Path_3610" d="M19.679 8.814a1.378 1.378 0 0 0-.719-.194 1.519 1.519 0 0 0-.147 3.032.745.745 0 0 0 .147.009 1.5 1.5 0 0 0 1.456-1.115 1.205 1.205 0 0 0 .064-.405 1.476 1.476 0 0 0-.801-1.327z" class="cls-1" transform="translate(-2.274 -1.126)"/>
        </g>
    </g>
</svg>
