<svg xmlns="http://www.w3.org/2000/svg" width="222.585" height="153.056">
    <defs>
        <style>
            .cls-2{opacity:.2}.cls-3,.cls-4{fill:#85cddc}.cls-4,.cls-9{opacity:.1}.cls-7{fill:#35323e}.cls-10{fill:#6c63ff}.cls-11{fill:#a1a1a1}.cls-14{fill:none;stroke:#dedede}
        </style>
    </defs>
    <g id="undraw_typewriter_i8xd" transform="translate(.004 .003)">
        <path id="Path_6223" data-name="Path 6223" d="M224.55 115.58c-14.27-.5-27.86-5.1-40.837-10.142s-25.831-10.625-39.759-13.295c-8.958-1.718-19.2-1.96-26.42 2.84-6.947 4.63-9.192 12.6-10.4 20-.908 5.569-1.442 11.43 1.045 16.644 1.729 3.62 4.793 6.663 6.914 10.131 7.379 12.065 2.163 26.943-5.832 38.723-3.748 5.527-8.1 10.8-11 16.682s-4.233 12.622-1.7 18.624c2.509 5.953 8.491 10.416 14.971 13.557 13.16 6.381 28.662 8.208 43.79 9.243 33.476 2.291 67.128 1.3 100.691.306 12.422-.368 24.9-.741 37.116-2.661 6.786-1.067 13.791-2.76 18.719-6.835 6.253-5.188 7.8-13.974 3.611-20.478-7.029-10.912-26.458-13.621-31.377-25.333-2.7-6.445.073-13.626 4-19.6 8.431-12.823 22.562-24.074 23.3-38.732.512-10.069-6.281-20.152-16.785-24.914-11.009-4.994-26.277-4.366-34.395 3.9-8.355 8.502-23.052 11.776-35.652 11.34z" transform="translate(-95.23 -91.02)" style="fill:#0a8db1;opacity:.3"/>
        <g id="Group_2790" data-name="Group 2790" class="cls-2" transform="translate(11.429 74.29)">
            <path id="Path_6224" data-name="Path 6224" class="cls-3" d="M324.312 710.374a5.342 5.342 0 0 1 .331.787q-2.646 1-5.292 2.095a4.72 4.72 0 0 1-.11-.2 4.506 4.506 0 0 1-.549-2.3 2.688 2.688 0 0 1 1.323-2.355 2.723 2.723 0 0 1 2.69.22 4.551 4.551 0 0 1 1.607 1.757z" transform="translate(-280.853 -646.365)"/>
            <ellipse id="Ellipse_1085" data-name="Ellipse 1085" class="cls-3" cx="2.871" cy="3.759" rx="2.871" ry="3.759" transform="rotate(-27.84 136.876 -39.913)"/>
            <ellipse id="Ellipse_1086" data-name="Ellipse 1086" class="cls-3" cx="2.871" cy="3.759" rx="2.871" ry="3.759" transform="rotate(-27.84 127.61 -37.618)"/>
            <ellipse id="Ellipse_1087" data-name="Ellipse 1087" class="cls-3" cx="2.871" cy="3.759" rx="2.871" ry="3.759" transform="rotate(-27.84 118.342 -35.322)"/>
            <ellipse id="Ellipse_1088" data-name="Ellipse 1088" class="cls-3" cx="2.871" cy="3.759" rx="2.871" ry="3.759" transform="rotate(-27.84 109.074 -33.022)"/>
            <path id="Path_6225" data-name="Path 6225" class="cls-3" d="M155.236 454.3a14.085 14.085 0 0 1-1.68-.882l6.092-4.63-7.185 3.865a13.771 13.771 0 0 1-5.32-9.514l12.329-.09-12.391-1.841a13.754 13.754 0 1 1 27.271 3 13.68 13.68 0 0 1 2.558 1.486l-6.281 9.071 7.6-7.975a13.771 13.771 0 0 1 4.07 12.455 13.754 13.754 0 1 1-19.116 10.094 13.754 13.754 0 0 1-7.937-15.035z" transform="translate(-147.08 -427.975)"/>
            <path id="Path_6226" data-name="Path 6226" class="cls-4" d="M236.926 529.214a13.7 13.7 0 0 1 1.369 8.892 13.754 13.754 0 1 1-19.116 10.094c-2.723-1.209 17.021-20.351 17.747-18.986z" transform="translate(-203.082 -506.838)"/>
        </g>
        <g id="Group_2791" data-name="Group 2791" class="cls-2" transform="translate(148.565 15.645)">
            <path id="Path_6227" data-name="Path 6227" class="cls-3" d="M785.694 574.575a7 7 0 0 0-.3 1.146q3.841.862 7.684 1.872c.04-.095.079-.2.117-.3a6.292 6.292 0 0 0 .306-3.279 3.467 3.467 0 0 0-5.929-2.159 6.3 6.3 0 0 0-1.878 2.72z" transform="translate(-781.791 -480.698)"/>
            <ellipse id="Ellipse_1089" data-name="Ellipse 1089" class="cls-3" cx="5.219" cy="3.986" rx="5.219" ry="3.986" transform="rotate(-70.06 68.328 43.33)"/>
            <ellipse id="Ellipse_1090" data-name="Ellipse 1090" class="cls-3" cx="5.219" cy="3.986" rx="5.219" ry="3.986" transform="rotate(-70.1 64.843 38.886)"/>
            <ellipse id="Ellipse_1091" data-name="Ellipse 1091" class="cls-3" cx="5.219" cy="3.986" rx="5.219" ry="3.986" transform="rotate(-70.06 61.952 34.228)"/>
            <ellipse id="Ellipse_1092" data-name="Ellipse 1092" class="cls-3" cx="5.219" cy="3.986" rx="5.219" ry="3.986" transform="rotate(-70.06 58.764 29.677)"/>
            <path id="Path_6228" data-name="Path 6228" class="cls-3" d="M814.391 197.31a19.009 19.009 0 0 0 2.143-1.543l-9.26-5.192 10.621 3.947a19.127 19.127 0 0 0 5.512-14.1l-16.977 2.222 16.693-4.9a19.1 19.1 0 1 0-36.941 9.32 19.184 19.184 0 0 0-3.234 2.529l10.363 11.282-11.966-9.527a19.107 19.107 0 0 0-3.219 17.907 19.1 19.1 0 1 0 28.222 10.248 19.1 19.1 0 0 0 8.061-22.2z" transform="translate(-769.099 -161.988)"/>
            <path id="Path_6229" data-name="Path 6229" class="cls-4" d="M778.274 319.262a19.022 19.022 0 0 0-.19 12.495A19.1 19.1 0 1 0 806.306 342c3.507-2.17-27.3-24.751-28.032-22.738z" transform="translate(-769.068 -284.487)"/>
        </g>
        <rect id="Rectangle_2304" data-name="Rectangle 2304" width="106.627" height="23.007" rx="7.42" transform="translate(59.176 39.325)"/>
        <path id="Path_6232" data-name="Path 6232" d="M400.431 143.17s1.515 41.192-1.171 46.014h90.781s-3.856-31.685 0-46.014z" transform="translate(-332.23 -131.674)" style="fill:#fff"/>
        <path id="Path_6233" data-name="Path 6233" d="M400.431 143.17s1.515 41.192-1.171 46.014h90.781s-3.856-31.685 0-46.014z" transform="translate(-332.23 -131.674)" style="opacity:.03"/>
        <path id="Rectangle_2305" data-name="Rectangle 2305" class="cls-7" transform="translate(77.498 55.755)" d="M0 0h66.539v8.266H0z"/>
        <path id="Path_6234" data-name="Path 6234" d="M423.62 436.695H300.292a6.575 6.575 0 0 1-6.535-7.3l2.522-22.729q.249-2.267.359-4.544l.474-15.412q.163-5.223.706-10.42.282-2.694.661-5.377l3.243-22.595a11.906 11.906 0 0 1 11.778-10.189h4.926a11.575 11.575 0 0 1 6.925 2.33c5.1 3.808 19.6 6.555 36.684 6.555s31.584-2.747 36.7-6.564a11.575 11.575 0 0 1 6.925-2.331h7.979a7.133 7.133 0 0 1 7.025 5.9l4.355 24.694q.661 3.766 1.122 7.563.767 6.312.964 12.68l.441 14.32a80.558 80.558 0 0 0 .774 8.923l2.339 16.384a7.1 7.1 0 0 1-7.031 8.116z" transform="translate(-249.958 -283.641)" style="fill:#606a6a"/>
        <rect id="Rectangle_2306" data-name="Rectangle 2306" class="cls-9" width="117.785" height="50.629" rx="19.96" transform="translate(53.254 95.881)"/>
        <ellipse id="Ellipse_1101" data-name="Ellipse 1101" class="cls-10" cx="3.376" cy="2.824" rx="3.376" ry="2.824" transform="translate(57.454 98.978)"/>
        <ellipse id="Ellipse_1102" data-name="Ellipse 1102" class="cls-9" cx="3.376" cy="2.824" rx="3.376" ry="2.824" transform="translate(57.454 98.978)"/>
        <ellipse id="Ellipse_1103" data-name="Ellipse 1103" class="cls-3" cx="3.376" cy="2.824" rx="3.376" ry="2.824" transform="translate(57.454 98.359)"/>
        <ellipse id="Ellipse_1104" data-name="Ellipse 1104" class="cls-7" cx="3.376" cy="2.824" rx="3.376" ry="2.824" transform="translate(61.449 108.829)"/>
        <ellipse id="Ellipse_1105" data-name="Ellipse 1105" class="cls-9" cx="3.376" cy="2.824" rx="3.376" ry="2.824" transform="translate(61.449 108.829)"/>
        <ellipse id="Ellipse_1106" data-name="Ellipse 1106" class="cls-7" cx="3.376" cy="2.824" rx="3.376" ry="2.824" transform="translate(61.449 108.21)"/>
        <ellipse id="Ellipse_1107" data-name="Ellipse 1107" class="cls-7" cx="3.376" cy="2.824" rx="3.376" ry="2.824" transform="translate(63.654 118.681)"/>
        <ellipse id="Ellipse_1108" data-name="Ellipse 1108" class="cls-9" cx="3.376" cy="2.824" rx="3.376" ry="2.824" transform="translate(63.654 118.681)"/>
        <ellipse id="Ellipse_1109" data-name="Ellipse 1109" class="cls-7" cx="3.376" cy="2.824" rx="3.376" ry="2.824" transform="translate(63.654 118.061)"/>
        <ellipse id="Ellipse_1110" data-name="Ellipse 1110" class="cls-7" cx="3.376" cy="2.824" rx="3.376" ry="2.824" transform="translate(55.113 119.851)"/>
        <ellipse id="Ellipse_1111" data-name="Ellipse 1111" class="cls-9" cx="3.376" cy="2.824" rx="3.376" ry="2.824" transform="translate(55.113 119.851)"/>
        <ellipse id="Ellipse_1112" data-name="Ellipse 1112" class="cls-7" cx="3.376" cy="2.824" rx="3.376" ry="2.824" transform="translate(55.113 119.232)"/>
        <ellipse id="Ellipse_1113" data-name="Ellipse 1113" class="cls-7" cx="3.376" cy="2.824" rx="3.376" ry="2.824" transform="translate(67.786 128.529)"/>
        <ellipse id="Ellipse_1114" data-name="Ellipse 1114" class="cls-9" cx="3.376" cy="2.824" rx="3.376" ry="2.824" transform="translate(67.786 128.529)"/>
        <ellipse id="Ellipse_1115" data-name="Ellipse 1115" class="cls-7" cx="3.376" cy="2.824" rx="3.376" ry="2.824" transform="translate(67.786 127.91)"/>
        <ellipse id="Ellipse_1116" data-name="Ellipse 1116" class="cls-7" cx="3.376" cy="2.824" rx="3.376" ry="2.824" transform="translate(56.491 128.876)"/>
        <ellipse id="Ellipse_1117" data-name="Ellipse 1117" class="cls-9" cx="3.376" cy="2.824" rx="3.376" ry="2.824" transform="translate(56.491 128.876)"/>
        <ellipse id="Ellipse_1118" data-name="Ellipse 1118" class="cls-7" cx="3.376" cy="2.824" rx="3.376" ry="2.824" transform="translate(56.491 128.254)"/>
        <ellipse id="Ellipse_1119" data-name="Ellipse 1119" class="cls-7" cx="3.376" cy="2.824" rx="3.376" ry="2.824" transform="translate(77.086 128.529)"/>
        <ellipse id="Ellipse_1120" data-name="Ellipse 1120" class="cls-9" cx="3.376" cy="2.824" rx="3.376" ry="2.824" transform="translate(77.086 128.529)"/>
        <ellipse id="Ellipse_1121" data-name="Ellipse 1121" class="cls-7" cx="3.376" cy="2.824" rx="3.376" ry="2.824" transform="translate(77.086 127.91)"/>
        <ellipse id="Ellipse_1122" data-name="Ellipse 1122" class="cls-7" cx="3.376" cy="2.824" rx="3.376" ry="2.824" transform="translate(86.935 128.529)"/>
        <ellipse id="Ellipse_1123" data-name="Ellipse 1123" class="cls-9" cx="3.376" cy="2.824" rx="3.376" ry="2.824" transform="translate(86.935 128.529)"/>
        <ellipse id="Ellipse_1124" data-name="Ellipse 1124" class="cls-7" cx="3.376" cy="2.824" rx="3.376" ry="2.824" transform="translate(86.935 127.91)"/>
        <ellipse id="Ellipse_1125" data-name="Ellipse 1125" class="cls-7" cx="3.376" cy="2.824" rx="3.376" ry="2.824" transform="translate(96.027 128.529)"/>
        <ellipse id="Ellipse_1126" data-name="Ellipse 1126" class="cls-9" cx="3.376" cy="2.824" rx="3.376" ry="2.824" transform="translate(96.027 128.529)"/>
        <ellipse id="Ellipse_1127" data-name="Ellipse 1127" class="cls-7" cx="3.376" cy="2.824" rx="3.376" ry="2.824" transform="translate(96.027 127.91)"/>
        <ellipse id="Ellipse_1128" data-name="Ellipse 1128" class="cls-7" cx="3.376" cy="2.824" rx="3.376" ry="2.824" transform="translate(106.083 128.529)"/>
        <ellipse id="Ellipse_1129" data-name="Ellipse 1129" class="cls-9" cx="3.376" cy="2.824" rx="3.376" ry="2.824" transform="translate(106.083 128.529)"/>
        <ellipse id="Ellipse_1130" data-name="Ellipse 1130" class="cls-7" cx="3.376" cy="2.824" rx="3.376" ry="2.824" transform="translate(106.083 127.91)"/>
        <ellipse id="Ellipse_1131" data-name="Ellipse 1131" class="cls-7" cx="3.376" cy="2.824" rx="3.376" ry="2.824" transform="translate(115.176 128.529)"/>
        <ellipse id="Ellipse_1132" data-name="Ellipse 1132" class="cls-9" cx="3.376" cy="2.824" rx="3.376" ry="2.824" transform="translate(115.176 128.529)"/>
        <ellipse id="Ellipse_1133" data-name="Ellipse 1133" class="cls-7" cx="3.376" cy="2.824" rx="3.376" ry="2.824" transform="translate(115.176 127.91)"/>
        <ellipse id="Ellipse_1134" data-name="Ellipse 1134" class="cls-7" cx="3.376" cy="2.824" rx="3.376" ry="2.824" transform="translate(124.198 128.529)"/>
        <ellipse id="Ellipse_1135" data-name="Ellipse 1135" class="cls-9" cx="3.376" cy="2.824" rx="3.376" ry="2.824" transform="translate(124.198 128.529)"/>
        <ellipse id="Ellipse_1136" data-name="Ellipse 1136" class="cls-7" cx="3.376" cy="2.824" rx="3.376" ry="2.824" transform="translate(124.198 127.91)"/>
        <ellipse id="Ellipse_1137" data-name="Ellipse 1137" class="cls-7" cx="3.376" cy="2.824" rx="3.376" ry="2.824" transform="translate(133.981 128.529)"/>
        <ellipse id="Ellipse_1138" data-name="Ellipse 1138" class="cls-9" cx="3.376" cy="2.824" rx="3.376" ry="2.824" transform="translate(133.981 128.529)"/>
        <ellipse id="Ellipse_1139" data-name="Ellipse 1139" class="cls-7" cx="3.376" cy="2.824" rx="3.376" ry="2.824" transform="translate(133.981 127.91)"/>
        <ellipse id="Ellipse_1140" data-name="Ellipse 1140" class="cls-7" cx="3.376" cy="2.824" rx="3.376" ry="2.824" transform="translate(143.142 128.529)"/>
        <ellipse id="Ellipse_1141" data-name="Ellipse 1141" class="cls-9" cx="3.376" cy="2.824" rx="3.376" ry="2.824" transform="translate(143.142 128.529)"/>
        <ellipse id="Ellipse_1142" data-name="Ellipse 1142" class="cls-7" cx="3.376" cy="2.824" rx="3.376" ry="2.824" transform="translate(143.142 127.91)"/>
        <ellipse id="Ellipse_1143" data-name="Ellipse 1143" class="cls-7" cx="3.376" cy="2.824" rx="3.376" ry="2.824" transform="translate(153.266 128.529)"/>
        <ellipse id="Ellipse_1144" data-name="Ellipse 1144" class="cls-9" cx="3.376" cy="2.824" rx="3.376" ry="2.824" transform="translate(153.266 128.529)"/>
        <ellipse id="Ellipse_1145" data-name="Ellipse 1145" class="cls-7" cx="3.376" cy="2.824" rx="3.376" ry="2.824" transform="translate(153.266 127.91)"/>
        <ellipse id="Ellipse_1146" data-name="Ellipse 1146" class="cls-7" cx="3.376" cy="2.824" rx="3.376" ry="2.824" transform="translate(163.668 128.529)"/>
        <ellipse id="Ellipse_1147" data-name="Ellipse 1147" class="cls-9" cx="3.376" cy="2.824" rx="3.376" ry="2.824" transform="translate(163.668 128.529)"/>
        <ellipse id="Ellipse_1148" data-name="Ellipse 1148" class="cls-7" cx="3.376" cy="2.824" rx="3.376" ry="2.824" transform="translate(163.668 127.91)"/>
        <ellipse id="Ellipse_1149" data-name="Ellipse 1149" class="cls-7" cx="3.376" cy="2.824" rx="3.376" ry="2.824" transform="translate(73.022 118.681)"/>
        <ellipse id="Ellipse_1150" data-name="Ellipse 1150" class="cls-9" cx="3.376" cy="2.824" rx="3.376" ry="2.824" transform="translate(73.022 118.681)"/>
        <ellipse id="Ellipse_1151" data-name="Ellipse 1151" class="cls-7" cx="3.376" cy="2.824" rx="3.376" ry="2.824" transform="translate(73.022 118.061)"/>
        <ellipse id="Ellipse_1152" data-name="Ellipse 1152" class="cls-7" cx="3.376" cy="2.824" rx="3.376" ry="2.824" transform="translate(82.388 118.681)"/>
        <ellipse id="Ellipse_1153" data-name="Ellipse 1153" class="cls-9" cx="3.376" cy="2.824" rx="3.376" ry="2.824" transform="translate(82.388 118.681)"/>
        <ellipse id="Ellipse_1154" data-name="Ellipse 1154" class="cls-7" cx="3.376" cy="2.824" rx="3.376" ry="2.824" transform="translate(82.388 118.061)"/>
        <ellipse id="Ellipse_1155" data-name="Ellipse 1155" class="cls-7" cx="3.376" cy="2.824" rx="3.376" ry="2.824" transform="translate(92.032 118.681)"/>
        <ellipse id="Ellipse_1156" data-name="Ellipse 1156" class="cls-9" cx="3.376" cy="2.824" rx="3.376" ry="2.824" transform="translate(92.032 118.681)"/>
        <ellipse id="Ellipse_1157" data-name="Ellipse 1157" class="cls-7" cx="3.376" cy="2.824" rx="3.376" ry="2.824" transform="translate(92.032 118.061)"/>
        <ellipse id="Ellipse_1158" data-name="Ellipse 1158" class="cls-7" cx="3.376" cy="2.824" rx="3.376" ry="2.824" transform="translate(101.261 118.681)"/>
        <ellipse id="Ellipse_1159" data-name="Ellipse 1159" class="cls-9" cx="3.376" cy="2.824" rx="3.376" ry="2.824" transform="translate(101.261 118.681)"/>
        <ellipse id="Ellipse_1160" data-name="Ellipse 1160" class="cls-7" cx="3.376" cy="2.824" rx="3.376" ry="2.824" transform="translate(101.261 118.061)"/>
        <ellipse id="Ellipse_1161" data-name="Ellipse 1161" class="cls-7" cx="3.376" cy="2.824" rx="3.376" ry="2.824" transform="translate(110.698 118.681)"/>
        <ellipse id="Ellipse_1162" data-name="Ellipse 1162" class="cls-9" cx="3.376" cy="2.824" rx="3.376" ry="2.824" transform="translate(110.698 118.681)"/>
        <ellipse id="Ellipse_1163" data-name="Ellipse 1163" class="cls-7" cx="3.376" cy="2.824" rx="3.376" ry="2.824" transform="translate(110.698 118.061)"/>
        <ellipse id="Ellipse_1164" data-name="Ellipse 1164" class="cls-7" cx="3.376" cy="2.824" rx="3.376" ry="2.824" transform="translate(119.722 118.681)"/>
        <ellipse id="Ellipse_1165" data-name="Ellipse 1165" class="cls-9" cx="3.376" cy="2.824" rx="3.376" ry="2.824" transform="translate(119.722 118.681)"/>
        <ellipse id="Ellipse_1166" data-name="Ellipse 1166" class="cls-7" cx="3.376" cy="2.824" rx="3.376" ry="2.824" transform="translate(119.722 118.061)"/>
        <ellipse id="Ellipse_1167" data-name="Ellipse 1167" class="cls-7" cx="3.376" cy="2.824" rx="3.376" ry="2.824" transform="translate(129.503 118.681)"/>
        <ellipse id="Ellipse_1168" data-name="Ellipse 1168" class="cls-9" cx="3.376" cy="2.824" rx="3.376" ry="2.824" transform="translate(129.503 118.681)"/>
        <ellipse id="Ellipse_1169" data-name="Ellipse 1169" class="cls-7" cx="3.376" cy="2.824" rx="3.376" ry="2.824" transform="translate(129.503 118.061)"/>
        <ellipse id="Ellipse_1170" data-name="Ellipse 1170" class="cls-7" cx="3.376" cy="2.824" rx="3.376" ry="2.824" transform="translate(138.803 118.681)"/>
        <ellipse id="Ellipse_1171" data-name="Ellipse 1171" class="cls-9" cx="3.376" cy="2.824" rx="3.376" ry="2.824" transform="translate(138.803 118.681)"/>
        <ellipse id="Ellipse_1172" data-name="Ellipse 1172" class="cls-7" cx="3.376" cy="2.824" rx="3.376" ry="2.824" transform="translate(138.803 118.061)"/>
        <ellipse id="Ellipse_1173" data-name="Ellipse 1173" class="cls-7" cx="3.376" cy="2.824" rx="3.376" ry="2.824" transform="translate(148.307 118.681)"/>
        <ellipse id="Ellipse_1174" data-name="Ellipse 1174" class="cls-9" cx="3.376" cy="2.824" rx="3.376" ry="2.824" transform="translate(148.307 118.681)"/>
        <ellipse id="Ellipse_1175" data-name="Ellipse 1175" class="cls-7" cx="3.376" cy="2.824" rx="3.376" ry="2.824" transform="translate(148.307 118.061)"/>
        <ellipse id="Ellipse_1176" data-name="Ellipse 1176" class="cls-7" cx="3.376" cy="2.824" rx="3.376" ry="2.824" transform="translate(157.812 118.681)"/>
        <ellipse id="Ellipse_1177" data-name="Ellipse 1177" class="cls-9" cx="3.376" cy="2.824" rx="3.376" ry="2.824" transform="translate(157.812 118.681)"/>
        <ellipse id="Ellipse_1178" data-name="Ellipse 1178" class="cls-7" cx="3.376" cy="2.824" rx="3.376" ry="2.824" transform="translate(157.812 118.061)"/>
        <ellipse id="Ellipse_1179" data-name="Ellipse 1179" class="cls-7" cx="3.376" cy="2.824" rx="3.376" ry="2.824" transform="translate(70.954 108.829)"/>
        <ellipse id="Ellipse_1180" data-name="Ellipse 1180" class="cls-9" cx="3.376" cy="2.824" rx="3.376" ry="2.824" transform="translate(70.954 108.829)"/>
        <ellipse id="Ellipse_1181" data-name="Ellipse 1181" class="cls-7" cx="3.376" cy="2.824" rx="3.376" ry="2.824" transform="translate(70.954 108.21)"/>
        <ellipse id="Ellipse_1182" data-name="Ellipse 1182" class="cls-7" cx="3.376" cy="2.824" rx="3.376" ry="2.824" transform="translate(80.461 108.829)"/>
        <ellipse id="Ellipse_1183" data-name="Ellipse 1183" class="cls-9" cx="3.376" cy="2.824" rx="3.376" ry="2.824" transform="translate(80.461 108.829)"/>
        <ellipse id="Ellipse_1184" data-name="Ellipse 1184" class="cls-7" cx="3.376" cy="2.824" rx="3.376" ry="2.824" transform="translate(80.461 108.21)"/>
        <ellipse id="Ellipse_1185" data-name="Ellipse 1185" class="cls-7" cx="3.376" cy="2.824" rx="3.376" ry="2.824" transform="translate(89.622 108.829)"/>
        <ellipse id="Ellipse_1186" data-name="Ellipse 1186" class="cls-9" cx="3.376" cy="2.824" rx="3.376" ry="2.824" transform="translate(89.622 108.829)"/>
        <ellipse id="Ellipse_1187" data-name="Ellipse 1187" class="cls-7" cx="3.376" cy="2.824" rx="3.376" ry="2.824" transform="translate(89.622 108.21)"/>
        <ellipse id="Ellipse_1188" data-name="Ellipse 1188" class="cls-7" cx="3.376" cy="2.824" rx="3.376" ry="2.824" transform="translate(98.783 108.829)"/>
        <ellipse id="Ellipse_1189" data-name="Ellipse 1189" class="cls-9" cx="3.376" cy="2.824" rx="3.376" ry="2.824" transform="translate(98.783 108.829)"/>
        <ellipse id="Ellipse_1190" data-name="Ellipse 1190" class="cls-7" cx="3.376" cy="2.824" rx="3.376" ry="2.824" transform="translate(98.783 108.21)"/>
        <ellipse id="Ellipse_1191" data-name="Ellipse 1191" class="cls-7" cx="3.376" cy="2.824" rx="3.376" ry="2.824" transform="translate(108.012 108.829)"/>
        <ellipse id="Ellipse_1192" data-name="Ellipse 1192" class="cls-9" cx="3.376" cy="2.824" rx="3.376" ry="2.824" transform="translate(108.012 108.829)"/>
        <ellipse id="Ellipse_1193" data-name="Ellipse 1193" class="cls-7" cx="3.376" cy="2.824" rx="3.376" ry="2.824" transform="translate(108.012 108.21)"/>
        <ellipse id="Ellipse_1194" data-name="Ellipse 1194" class="cls-7" cx="3.376" cy="2.824" rx="3.376" ry="2.824" transform="translate(117.105 108.829)"/>
        <ellipse id="Ellipse_1195" data-name="Ellipse 1195" class="cls-9" cx="3.376" cy="2.824" rx="3.376" ry="2.824" transform="translate(117.105 108.829)"/>
        <ellipse id="Ellipse_1196" data-name="Ellipse 1196" class="cls-7" cx="3.376" cy="2.824" rx="3.376" ry="2.824" transform="translate(117.105 108.21)"/>
        <ellipse id="Ellipse_1197" data-name="Ellipse 1197" class="cls-7" cx="3.376" cy="2.824" rx="3.376" ry="2.824" transform="translate(126.747 108.829)"/>
        <ellipse id="Ellipse_1198" data-name="Ellipse 1198" class="cls-9" cx="3.376" cy="2.824" rx="3.376" ry="2.824" transform="translate(126.747 108.829)"/>
        <ellipse id="Ellipse_1199" data-name="Ellipse 1199" class="cls-7" cx="3.376" cy="2.824" rx="3.376" ry="2.824" transform="translate(126.747 108.21)"/>
        <ellipse id="Ellipse_1200" data-name="Ellipse 1200" class="cls-7" cx="3.376" cy="2.824" rx="3.376" ry="2.824" transform="translate(135.839 108.829)"/>
        <ellipse id="Ellipse_1201" data-name="Ellipse 1201" class="cls-9" cx="3.376" cy="2.824" rx="3.376" ry="2.824" transform="translate(135.839 108.829)"/>
        <ellipse id="Ellipse_1202" data-name="Ellipse 1202" class="cls-7" cx="3.376" cy="2.824" rx="3.376" ry="2.824" transform="translate(135.839 108.21)"/>
        <ellipse id="Ellipse_1203" data-name="Ellipse 1203" class="cls-7" cx="3.376" cy="2.824" rx="3.376" ry="2.824" transform="translate(145.551 108.829)"/>
        <ellipse id="Ellipse_1204" data-name="Ellipse 1204" class="cls-9" cx="3.376" cy="2.824" rx="3.376" ry="2.824" transform="translate(145.551 108.829)"/>
        <ellipse id="Ellipse_1205" data-name="Ellipse 1205" class="cls-7" cx="3.376" cy="2.824" rx="3.376" ry="2.824" transform="translate(145.551 108.21)"/>
        <ellipse id="Ellipse_1206" data-name="Ellipse 1206" class="cls-7" cx="3.376" cy="2.824" rx="3.376" ry="2.824" transform="translate(155.056 108.829)"/>
        <ellipse id="Ellipse_1207" data-name="Ellipse 1207" class="cls-9" cx="3.376" cy="2.824" rx="3.376" ry="2.824" transform="translate(155.056 108.829)"/>
        <ellipse id="Ellipse_1208" data-name="Ellipse 1208" class="cls-7" cx="3.376" cy="2.824" rx="3.376" ry="2.824" transform="translate(155.056 108.21)"/>
        <ellipse id="Ellipse_1209" data-name="Ellipse 1209" class="cls-7" cx="3.376" cy="2.824" rx="3.376" ry="2.824" transform="translate(66.271 98.978)"/>
        <ellipse id="Ellipse_1210" data-name="Ellipse 1210" class="cls-9" cx="3.376" cy="2.824" rx="3.376" ry="2.824" transform="translate(66.271 98.978)"/>
        <ellipse id="Ellipse_1211" data-name="Ellipse 1211" class="cls-7" cx="3.376" cy="2.824" rx="3.376" ry="2.824" transform="translate(66.271 98.359)"/>
        <ellipse id="Ellipse_1212" data-name="Ellipse 1212" class="cls-7" cx="3.376" cy="2.824" rx="3.376" ry="2.824" transform="translate(75.639 98.978)"/>
        <ellipse id="Ellipse_1213" data-name="Ellipse 1213" class="cls-9" cx="3.376" cy="2.824" rx="3.376" ry="2.824" transform="translate(75.639 98.978)"/>
        <ellipse id="Ellipse_1214" data-name="Ellipse 1214" class="cls-7" cx="3.376" cy="2.824" rx="3.376" ry="2.824" transform="translate(75.639 98.359)"/>
        <ellipse id="Ellipse_1215" data-name="Ellipse 1215" class="cls-7" cx="3.376" cy="2.824" rx="3.376" ry="2.824" transform="translate(84.661 98.978)"/>
        <ellipse id="Ellipse_1216" data-name="Ellipse 1216" class="cls-9" cx="3.376" cy="2.824" rx="3.376" ry="2.824" transform="translate(84.661 98.978)"/>
        <ellipse id="Ellipse_1217" data-name="Ellipse 1217" class="cls-7" cx="3.376" cy="2.824" rx="3.376" ry="2.824" transform="translate(84.661 98.359)"/>
        <ellipse id="Ellipse_1218" data-name="Ellipse 1218" class="cls-7" cx="3.376" cy="2.824" rx="3.376" ry="2.824" transform="translate(93.961 98.978)"/>
        <ellipse id="Ellipse_1219" data-name="Ellipse 1219" class="cls-9" cx="3.376" cy="2.824" rx="3.376" ry="2.824" transform="translate(93.961 98.978)"/>
        <ellipse id="Ellipse_1220" data-name="Ellipse 1220" class="cls-7" cx="3.376" cy="2.824" rx="3.376" ry="2.824" transform="translate(93.961 98.359)"/>
        <ellipse id="Ellipse_1221" data-name="Ellipse 1221" class="cls-7" cx="3.376" cy="2.824" rx="3.376" ry="2.824" transform="translate(103.122 98.978)"/>
        <ellipse id="Ellipse_1222" data-name="Ellipse 1222" class="cls-9" cx="3.376" cy="2.824" rx="3.376" ry="2.824" transform="translate(103.122 98.978)"/>
        <ellipse id="Ellipse_1223" data-name="Ellipse 1223" class="cls-7" cx="3.376" cy="2.824" rx="3.376" ry="2.824" transform="translate(103.122 98.359)"/>
        <ellipse id="Ellipse_1224" data-name="Ellipse 1224" class="cls-7" cx="3.376" cy="2.824" rx="3.376" ry="2.824" transform="translate(112.49 98.978)"/>
        <ellipse id="Ellipse_1225" data-name="Ellipse 1225" class="cls-9" cx="3.376" cy="2.824" rx="3.376" ry="2.824" transform="translate(112.49 98.978)"/>
        <ellipse id="Ellipse_1226" data-name="Ellipse 1226" class="cls-7" cx="3.376" cy="2.824" rx="3.376" ry="2.824" transform="translate(112.49 98.359)"/>
        <ellipse id="Ellipse_1227" data-name="Ellipse 1227" class="cls-7" cx="3.376" cy="2.824" rx="3.376" ry="2.824" transform="translate(121.651 98.978)"/>
        <ellipse id="Ellipse_1228" data-name="Ellipse 1228" class="cls-9" cx="3.376" cy="2.824" rx="3.376" ry="2.824" transform="translate(121.651 98.978)"/>
        <ellipse id="Ellipse_1229" data-name="Ellipse 1229" class="cls-7" cx="3.376" cy="2.824" rx="3.376" ry="2.824" transform="translate(121.651 98.359)"/>
        <ellipse id="Ellipse_1230" data-name="Ellipse 1230" class="cls-7" cx="3.376" cy="2.824" rx="3.376" ry="2.824" transform="translate(130.949 98.978)"/>
        <ellipse id="Ellipse_1231" data-name="Ellipse 1231" class="cls-9" cx="3.376" cy="2.824" rx="3.376" ry="2.824" transform="translate(130.949 98.978)"/>
        <ellipse id="Ellipse_1232" data-name="Ellipse 1232" class="cls-7" cx="3.376" cy="2.824" rx="3.376" ry="2.824" transform="translate(130.949 98.359)"/>
        <ellipse id="Ellipse_1233" data-name="Ellipse 1233" class="cls-7" cx="3.376" cy="2.824" rx="3.376" ry="2.824" transform="translate(140.525 98.978)"/>
        <ellipse id="Ellipse_1234" data-name="Ellipse 1234" class="cls-9" cx="3.376" cy="2.824" rx="3.376" ry="2.824" transform="translate(140.525 98.978)"/>
        <ellipse id="Ellipse_1235" data-name="Ellipse 1235" class="cls-7" cx="3.376" cy="2.824" rx="3.376" ry="2.824" transform="translate(140.525 98.359)"/>
        <ellipse id="Ellipse_1236" data-name="Ellipse 1236" class="cls-7" cx="3.376" cy="2.824" rx="3.376" ry="2.824" transform="translate(149.891 98.978)"/>
        <ellipse id="Ellipse_1237" data-name="Ellipse 1237" class="cls-9" cx="3.376" cy="2.824" rx="3.376" ry="2.824" transform="translate(149.891 98.978)"/>
        <ellipse id="Ellipse_1238" data-name="Ellipse 1238" class="cls-7" cx="3.376" cy="2.824" rx="3.376" ry="2.824" transform="translate(149.891 98.359)"/>
        <ellipse id="Ellipse_1239" data-name="Ellipse 1239" class="cls-10" cx="3.376" cy="2.824" rx="3.376" ry="2.824" transform="translate(159.052 98.978)"/>
        <ellipse id="Ellipse_1240" data-name="Ellipse 1240" class="cls-9" cx="3.376" cy="2.824" rx="3.376" ry="2.824" transform="translate(159.052 98.978)"/>
        <ellipse id="Ellipse_1241" data-name="Ellipse 1241" class="cls-3" cx="3.376" cy="2.824" rx="3.376" ry="2.824" transform="translate(159.052 98.359)"/>
        <rect id="Rectangle_2307" data-name="Rectangle 2307" class="cls-7" width="103.114" height="5.441" rx="2.721" transform="translate(60.83 137.968)"/>
        <rect id="Rectangle_2308" data-name="Rectangle 2308" class="cls-9" width="103.114" height="5.441" rx="2.721" transform="translate(60.83 137.968)"/>
        <rect id="Rectangle_2309" data-name="Rectangle 2309" class="cls-7" width="103.114" height="5.441" rx="2.721" transform="translate(60.83 137.554)"/>
        <path id="Path_6235" data-name="Path 6235" class="cls-9" d="M508.674 390.574c0 5.821-18.423 12.054-39.195 12.054s-36.159-6.716-36.159-12.537 15.392-8.541 36.159-8.541 39.195 3.204 39.195 9.024z" transform="translate(-358.781 -317.496)"/>
        <ellipse id="Ellipse_1242" data-name="Ellipse 1242" class="cls-11" cx="2.273" cy="5.613" rx="2.273" ry="5.613" transform="translate(165.871 44.769)"/>
        <ellipse id="Ellipse_1243" data-name="Ellipse 1243" class="cls-11" cx="2.273" cy="5.613" rx="2.273" ry="5.613" transform="translate(54.561 44.769)"/>
        <path id="Rectangle_2310" data-name="Rectangle 2310" class="cls-9" transform="translate(58.488 49.04)" d="M0 0h109.656v1.654H0z"/>
        <path id="Rectangle_2311" data-name="Rectangle 2311" class="cls-11" transform="translate(58.488 48.764)" d="M0 0h109.656v1.654H0z"/>
        <path id="Path_6236" data-name="Path 6236" d="M607.989 321.534c-.9-.276-2.549 5.166-2.549 5.166h5.027s-1.581-4.89-2.478-5.166zm-.071.688a.483.483 0 1 1-.481.483.483.483 0 0 1 .481-.483zm.057 1.557c.589.143 1.632 2.714 1.632 2.714H606.3s1.089-2.86 1.689-2.714z" transform="translate(-492.952 -270.704)" style="fill:#464353"/>
        <path id="Path_6237" data-name="Path 6237" d="M440.62 376.279H312.3q.282-2.694.661-5.378l3.243-22.595a11.906 11.906 0 0 1 11.774-10.186h4.922a11.575 11.575 0 0 1 6.925 2.33c5.1 3.808 19.6 6.555 36.684 6.555s31.588-2.738 36.7-6.555a11.575 11.575 0 0 1 6.925-2.33h7.979a7.133 7.133 0 0 1 7.025 5.9l4.354 24.694q.667 3.774 1.128 7.565z" transform="translate(-264.443 -283.641)" style="fill:#606a6a;opacity:.03"/>
        <path id="Path_6297" data-name="Path 6297" class="cls-9" d="M380.763 331.095a.284.284 0 0 1-.018.037 2.444 2.444 0 0 0 .134.221l1.945-.6s-.112-.441-.282-.961c-.77-.22-1.872 1.131-1.872 1.131z" transform="translate(-317.739 -277.132)"/>
        <path id="Path_6299" data-name="Path 6299" class="cls-9" d="M380.366 340.674a7.905 7.905 0 0 0 2.353.481c.553-.066.578-.324.54-.853a1.713 1.713 0 0 1-1.323.381 5.239 5.239 0 0 1-1.616-.483 2.507 2.507 0 0 0 .046.474z" transform="translate(-317.466 -285.263)"/>
        <path id="Line_285" data-name="Line 285" class="cls-14" transform="translate(82.666 23.262)" d="M0 0h58.685"/>
        <path id="Line_286" data-name="Line 286" class="cls-14" transform="translate(82.666 32.291)" d="M0 0h58.685"/>
        <path id="Line_287" data-name="Line 287" class="cls-14" transform="translate(82.666 41.319)" d="M0 0h58.685"/>
    </g>
</svg>
