<svg xmlns="http://www.w3.org/2000/svg" width="244.546" height="153.056">
    <defs>
        <linearGradient id="linear-gradient" x1=".5" y1="1" x2=".5" gradientUnits="objectBoundingBox">
            <stop offset="0" stop-color="gray" stop-opacity=".251"/>
            <stop offset=".54" stop-color="gray" stop-opacity=".122"/>
            <stop offset="1" stop-color="gray" stop-opacity=".102"/>
        </linearGradient>
        <style>
            .cls-5{fill:#0a8db1}.cls-11{opacity:.1}.cls-3{fill:none;stroke:#535461;stroke-miterlimit:10;stroke-width:2px}.cls-4{fill:#6c63ff}.cls-6{fill:#42b4d4}.cls-7{fill:#606a6a}.cls-8{fill:#252a2a}.cls-9{fill:#3b4242}.cls-13{fill:#85cddc}.cls-16{fill:#464353}.cls-17{fill:#a1a1a1}.cls-18{fill:#a1616a}.cls-20{fill:#d4d4d4}.cls-21{fill:#3f3d56}
        </style>
    </defs>
    <g id="undraw_videographer_nnc7" transform="translate(.003 10.002)">
        <path id="Path_5938" data-name="Path 5938" d="M262.773 254.385c-.23.179-.466.351-.7.521a23.284 23.284 0 0 1-2.744 1.688c-4.987 2.651-11.13 3.944-17.116 4.823-13.424 1.976-27.13 2.358-40.779 2.735-36.874 1.022-73.845 2.039-110.626-.313-14.531-.929-29.387-2.492-42.558-7.25q-2.829-1.022-5.552-2.252a45.876 45.876 0 0 1-10.125-6.1 22.1 22.1 0 0 1-6.322-7.83c-2.785-6.167-1.312-13.093 1.866-19.135a59.507 59.507 0 0 1 4.464-7.023c2.449-3.4 5.15-6.7 7.621-10.1 8.783-12.1 14.514-27.389 6.407-39.786-2.338-3.562-5.7-6.688-7.6-10.406-2.425-4.758-2.236-10.039-1.465-15.18.1-.648.213-1.291.317-1.935 1.324-7.606 3.79-15.8 11.423-20.551 7.929-4.934 19.184-4.685 29.028-2.92 15.3 2.746 29.423 8.48 43.68 13.659s29.19 9.91 44.868 10.422c13.842.453 29.991-2.916 39.178-11.659 8.928-8.491 25.7-9.137 37.794-4.008 8.29 3.521 14.486 9.862 17.1 16.992a22.349 22.349 0 0 1 1.137 4.427 20.633 20.633 0 0 1 .213 4.176 19.766 19.766 0 0 1-.213 2.039c-2.019 14.076-16.561 25.178-25.4 37.752-4.319 6.142-7.37 13.519-4.4 20.141 4.53 10.091 20.283 13.677 29.8 21.19a22.44 22.44 0 0 1 4.676 4.835c4.602 6.691 2.9 15.717-3.972 21.048z" transform="translate(-24.78 -122.22)" style="opacity:.3;fill:#0a8db1"/>
        <ellipse id="Ellipse_879" data-name="Ellipse 879" cx="60.399" cy="2.052" rx="60.399" ry="2.052" transform="translate(48.546 135.609)" style="opacity:.1;fill:#0a8db1"/>
        <g id="flowers" transform="translate(155.85 63.278)">
            <path id="Path_5939" data-name="Path 5939" class="cls-3" d="M776.7 549.318s12.992-16.457 11.986-32.816a31.782 31.782 0 0 1 5.047-19.454 53.293 53.293 0 0 1 6.106-7.627" transform="translate(-775.618 -476.302)"/>
            <path id="Path_5940" data-name="Path 5940" class="cls-4" d="M876.387 433.661c-.919 2.289.558 10.586.558 10.586s6.807-4.97 7.726-7.258a4.466 4.466 0 0 0-8.288-3.329z" transform="translate(-852.741 -430.858)"/>
            <path id="Path_5941" data-name="Path 5941" class="cls-4" d="M823.85 469.231c.473 2.419 6.223 8.581 6.223 8.581s3.013-7.871 2.54-10.291a4.464 4.464 0 1 0-8.763 1.709z" transform="translate(-812.141 -456.507)"/>
            <path id="Path_5942" data-name="Path 5942" class="cls-4" d="M782.794 559.144c1.628 1.85 9.7 4.256 9.7 4.256s-1.373-8.315-3-10.165a4.463 4.463 0 0 0-6.7 5.9z" transform="translate(-779.482 -524.647)"/>
            <path id="Path_5943" data-name="Path 5943" class="cls-4" d="M772.531 641.213c1.292 2.1 8.844 5.846 8.844 5.846s.052-8.429-1.241-10.528a4.464 4.464 0 1 0-7.6 4.682z" transform="translate(-771.867 -588.812)"/>
            <path id="Path_5944" data-name="Path 5944" class="cls-4" d="M853.319 513.772c-2.283.934-10.589-.486-10.589-.486s4.928-6.841 7.2-7.775a4.464 4.464 0 1 1 3.385 8.261z" transform="translate(-826.857 -488.529)"/>
            <path id="Path_5945" data-name="Path 5945" class="cls-4" d="M840.5 605.978c-2.464.211-9.959-3.631-9.959-3.631s6.745-5.053 9.2-5.264a4.464 4.464 0 1 1 .759 8.9z" transform="translate(-817.397 -559.836)"/>
            <path id="Path_5946" data-name="Path 5946" class="cls-4" d="M811.8 695.212c-2.386.62-10.427-1.9-10.427-1.9s5.793-6.12 8.178-6.742a4.464 4.464 0 0 1 2.24 8.64z" transform="translate(-794.761 -629.203)"/>
            <path id="Path_5947" data-name="Path 5947" class="cls-5" d="M876.387 433.661c-.919 2.289.558 10.586.558 10.586s6.807-4.97 7.726-7.258a4.466 4.466 0 0 0-8.288-3.329z" transform="translate(-852.741 -430.858)"/>
            <path id="Path_5948" data-name="Path 5948" class="cls-5" d="M823.85 469.231c.473 2.419 6.223 8.581 6.223 8.581s3.013-7.871 2.54-10.291a4.464 4.464 0 1 0-8.763 1.709z" transform="translate(-812.141 -456.507)"/>
            <path id="Path_5949" data-name="Path 5949" class="cls-5" d="M782.794 559.144c1.628 1.85 9.7 4.256 9.7 4.256s-1.373-8.315-3-10.165a4.463 4.463 0 0 0-6.7 5.9z" transform="translate(-779.482 -524.647)"/>
            <path id="Path_5950" data-name="Path 5950" class="cls-5" d="M772.531 641.213c1.292 2.1 8.844 5.846 8.844 5.846s.052-8.429-1.241-10.528a4.464 4.464 0 1 0-7.6 4.682z" transform="translate(-771.867 -588.812)"/>
            <path id="Path_5951" data-name="Path 5951" class="cls-5" d="M853.319 513.772c-2.283.934-10.589-.486-10.589-.486s4.928-6.841 7.2-7.775a4.464 4.464 0 1 1 3.385 8.261z" transform="translate(-826.857 -488.529)"/>
            <path id="Path_5952" data-name="Path 5952" class="cls-5" d="M840.5 605.978c-2.464.211-9.959-3.631-9.959-3.631s6.745-5.053 9.2-5.264a4.464 4.464 0 1 1 .759 8.9z" transform="translate(-817.397 -559.836)"/>
            <path id="Path_5953" data-name="Path 5953" class="cls-5" d="M811.8 695.212c-2.386.62-10.427-1.9-10.427-1.9s5.793-6.12 8.178-6.742a4.464 4.464 0 0 1 2.24 8.64z" transform="translate(-794.761 -629.203)"/>
            <path id="Path_5954" data-name="Path 5954" class="cls-3" d="M777.2 596.532s18.547-9.778 24.255-25.142a31.823 31.823 0 0 1 12.5-15.74 53.44 53.44 0 0 1 8.676-4.5" transform="translate(-776.005 -524.205)"/>
            <path id="Path_5955" data-name="Path 5955" class="cls-6" d="M983.209 503.62c-1.765 1.718-3.779 9.9-3.779 9.9s8.237-1.792 10-3.5a4.464 4.464 0 1 0-6.225-6.4z" transform="translate(-932.936 -486.34)"/>
            <path id="Path_5956" data-name="Path 5956" class="cls-6" d="M929.39 514.886c-.549 2.4 2.211 10.367 2.211 10.367s5.943-5.974 6.5-8.377a4.464 4.464 0 1 0-8.7-1.989z" transform="translate(-894.049 -493.371)"/>
            <path id="Path_5957" data-name="Path 5957" class="cls-6" d="M855.188 580.185c.739 2.352 7.141 7.84 7.141 7.84s2.115-8.158 1.375-10.51a4.464 4.464 0 1 0-8.512 2.688z" transform="translate(-836.342 -542.168)"/>
            <path id="Path_5958" data-name="Path 5958" class="cls-6" d="M812.645 651.322c.331 2.442 5.714 8.926 5.714 8.926s3.463-7.683 3.136-10.127a4.465 4.465 0 1 0-8.848 1.2z" transform="translate(-803.481 -598.008)"/>
            <path id="Path_5959" data-name="Path 5959" class="cls-6" d="M934.294 573.751c-2.464-.07-9.484-4.735-9.484-4.735s7.273-4.256 9.737-4.189a4.464 4.464 0 1 1-.253 8.925z" transform="translate(-890.551 -534.818)"/>
            <path id="Path_5960" data-name="Path 5960" class="cls-6" d="M889.192 653.968c-2.33-.8-7.632-7.354-7.632-7.354s8.212-1.888 10.544-1.084a4.464 4.464 0 0 1-2.912 8.438z" transform="translate(-856.989 -597.288)"/>
            <path id="Path_5961" data-name="Path 5961" class="cls-6" d="M824.627 723.362c-2.432-.4-8.767-5.958-8.767-5.958s7.777-3.25 10.21-2.852a4.464 4.464 0 1 1-1.443 8.811z" transform="translate(-806.005 -650.979)"/>
        </g>
        <path id="Path_5962" data-name="Path 5962" class="cls-7" d="M623.7 364.491h-1.987l-14.533-75.024-1.864 75.024h-2.11l-2.361-74.9-14.161 74.9h-2.234l9.625-77.112.314-2.507 18.881-2.112.587 4.619z" transform="translate(-465.031 -227.518)"/>
        <path id="Rectangle_2272" data-name="Rectangle 2272" class="cls-8" transform="translate(106.546 40.202)" d="M0 0h12.018v7.452H0z"/>
        <path id="Path_5963" data-name="Path 5963" d="m863.05 303.124 7.266-2.934h1.593a.876.876 0 0 1 .876.876v20.464a.876.876 0 0 1-.876.876h-1.593l-7.266-3.026z" transform="translate(-687.771 -266.181)"/>
        <path id="Rectangle_2273" data-name="Rectangle 2273" class="cls-9" transform="translate(160.421 37.875)" d="M0 0h14.858v14.392H0z"/>
        <path id="Rectangle_2274" data-name="Rectangle 2274" transform="translate(135.625 10.843)" style="fill:#514e7f" d="M0 0h9.565v1.738H0z"/>
        <path id="Rectangle_2275" data-name="Rectangle 2275" class="cls-9" transform="translate(124.712 13.094)" d="M0 0h26.923v19.656H0z"/>
        <path id="Rectangle_2276" data-name="Rectangle 2276" class="cls-11" transform="translate(124.712 30.423)" d="M0 0h26.923v2.33H0z"/>
        <path id="Rectangle_2277" data-name="Rectangle 2277" class="cls-11" transform="translate(161.186 37.875)" d="M0 0h.603v14.392H0z"/>
        <path id="Rectangle_2278" data-name="Rectangle 2278" class="cls-11" transform="translate(114.464 40.202)" d="M0 0h4.099v7.452H0z"/>
        <path id="Path_5964" data-name="Path 5964" class="cls-11" d="M647.2 287.379h-19.78l.314-2.507 18.881-2.112z" transform="translate(-498.376 -227.518)"/>
        <rect id="Rectangle_2279" data-name="Rectangle 2279" width="46.579" height="28.692" rx="10.7" transform="translate(114.836 30.794)" style="fill:#1b1f1f"/>
        <path id="Path_5965" data-name="Path 5965" class="cls-8" d="M833.613 201.07h.141v16.256h-.141a1.163 1.163 0 0 1-1.163-1.163v-13.93a1.163 1.163 0 0 1 1.163-1.163z" transform="translate(-658.475 -164.127)"/>
        <path id="Path_5966" data-name="Path 5966" class="cls-9" d="M870.71 188h1.507a.961.961 0 0 1 .961.961v20.3a.961.961 0 0 1-.961.961h-1.507z" transform="translate(-688.165 -153.984)"/>
        <path id="Rectangle_2280" data-name="Rectangle 2280" class="cls-11" transform="translate(106.546 40.202)" d="M0 0h2.144v7.452H0z"/>
        <rect id="Rectangle_2281" data-name="Rectangle 2281" class="cls-8" width="4.191" height="12.669" rx="2.096" transform="translate(104.124 37.875)"/>
        <circle id="Ellipse_880" data-name="Ellipse 880" class="cls-7" cx="13.415" cy="13.415" transform="translate(111.297 -.322)" r="13.415"/>
        <circle id="Ellipse_881" data-name="Ellipse 881" class="cls-13" cx="10.062" cy="10.062" transform="translate(114.65 3.032)" r="10.062"/>
        <circle id="Ellipse_882" data-name="Ellipse 882" class="cls-7" cx="9.782" cy="9.782" transform="translate(139.803 3.592)" r="9.782"/>
        <circle id="Ellipse_883" data-name="Ellipse 883" class="cls-13" cx="7.336" cy="7.336" transform="translate(142.249 6.038)" r="7.336"/>
        <circle id="Ellipse_884" data-name="Ellipse 884" class="cls-13" cx="1.288" cy="1.288" transform="translate(147.538 33.776)" r="1.288"/>
        <circle id="Ellipse_885" data-name="Ellipse 885" cx="1.288" cy="1.288" transform="translate(151.635 33.776)" style="opacity:.5;fill:#85cddc" r="1.288"/>
        <path id="Path_5967" data-name="Path 5967" d="m393.017 167.836-.092-.181a8.125 8.125 0 0 1 1.626.748c-.224-1.947-7.69-7.412-9.034-7.412s-2.838-2.321-2.838-2.321-3.882-.6-4.48-1.232-4.63-.264-5.6-.04a4.563 4.563 0 0 1-2.464-.6s-.822-1.344-1.866-1.344-2.162-1.5-2.162-1.5a4.639 4.639 0 0 0-1.87-1.048 4.855 4.855 0 0 1-2.54-1.87c-.524-.75-3.136-1.12-4.628-.9a32.114 32.114 0 0 1-5.526-.3 3.956 3.956 0 0 0 2.038-2.545c-1.469-.076-5.331-3.32-5.331-3.32s.159 1.048.343 2.511l-.249-.32-.034.027a24.221 24.221 0 0 1-.034-3.136c0-.081.013-.161.018-.244a6.975 6.975 0 0 0 2.186-6.875 5.96 5.96 0 0 0-.141-.5 3.107 3.107 0 0 0 .9.224h.159a1.31 1.31 0 0 0 .983-.435 1.049 1.049 0 0 0 .11-.17.286.286 0 0 0 .02-.036 1.21 1.21 0 0 0 .067-.17q.009-.031.016-.063a1.389 1.389 0 0 0 .027-.139v-.206a2.659 2.659 0 0 0-.224-1 4.434 4.434 0 0 1-.549-1.774 1.1 1.1 0 0 1 .018-.15 8.053 8.053 0 0 1 .475-1.418v-.02a2.67 2.67 0 0 0 .056-.208.526.526 0 0 0 .018-.063 1.9 1.9 0 0 0 .034-.249v-.018a2.372 2.372 0 0 0-1.552-2.133 15.193 15.193 0 0 1-2.343-.9 8.934 8.934 0 0 1-1.83-2.193 4.178 4.178 0 0 0-3.584-1.761c-.849.1-1.62.542-2.464.715-1.284.267-2.641-.121-3.918.177a1.344 1.344 0 0 0-.8.448.912.912 0 0 0-.161.405 1.545 1.545 0 0 0 0 .408v.011a2.864 2.864 0 0 0 .069.383l.02.078a.329.329 0 0 0 .018.078l.043.157c.025.087.045.175.067.264v.031c.02.092.04.184.056.278a4.7 4.7 0 0 1 .072.587 2.7 2.7 0 0 1-.343 1.595c-.56.9-1.749 1.292-2.267 2.227a1.93 1.93 0 0 0-.224.728 1.956 1.956 0 0 0-.011.255v.034a.854.854 0 0 0 .02.224.465.465 0 0 0 0 .054 1.947 1.947 0 0 0 .045.2.2.2 0 0 0 .018.063 1.744 1.744 0 0 0 .09.224c.24.5.692.912.786 1.454a.083.083 0 0 0 .011.049 3.646 3.646 0 0 1-.2 1.207 1.464 1.464 0 0 0-.027.148v.3a.582.582 0 0 0 0 .063v.146a.355.355 0 0 0 .022.083l.016.056a.842.842 0 0 0 .036.078l.025.049a.824.824 0 0 0 .054.078.381.381 0 0 0 .027.036.609.609 0 0 0 .1.1c.309.224.791.166 1.044.448a.529.529 0 0 1 .072.112l.013.027a.616.616 0 0 1 .043.123 1.227 1.227 0 0 1 0 .511c-.09.448-.28.856-.381 1.295-.02.09-.034.181-.045.273a.451.451 0 0 1-.011.123v.175a.727.727 0 0 0 .013.17c.013.056 0 .054.013.078l.013.065a.32.32 0 0 0 .025.087l.02.056c.011.031.027.063.04.094a.389.389 0 0 0 .022.043.785.785 0 0 0 .081.13 1.408 1.408 0 0 0 1.187.493 3.743 3.743 0 0 0 .793-.09c.058.137.119.273.184.405a6.96 6.96 0 0 0 1.261 1.774 1.687 1.687 0 0 1-.022.208c-.052.511-.114 1.06-.186 1.613-.58-.267-1.028-.37-1.205-.177-.75.824 0 3.669 0 3.669s-3.662 0-4.558.822-2.538 0-2.538 0-3.36.376-3.136 1.051-1.792 0-1.792 0-1.42.15-1.344 1.12-2.166 1.42-1.868 2.094-1.344 1.12-1.344 1.12-1.642-.074-1.044.9-.9 2.1-1.642 2.24-1.718 1.87-1.718 1.87-2.876.524-2.746 1.422-4.422 7.325-4.422 7.325-1.494 3.08-.448 5.327a44.234 44.234 0 0 1 2.016 4.565c.224.822 2.939 4.442 2.917 5.116a16.009 16.009 0 0 0 1.588 2.782l-.269.278-.589.607s-1.868 4.641.372 4.865a14.752 14.752 0 0 0 3.942.137.944.944 0 0 0 .314-.137l.027-.02c.815 1.2 1.393 2.043 1.393 2.043s.081-.119.224-.323l.224.32s.179-.255.484-.672c-.1 2.036-.112 4.043-.112 4.043s.972-.15.524 4.341 2.688 8.158 2.688 8.158v6.664a4.462 4.462 0 0 0 .031.448 13.589 13.589 0 0 0 1.163 4.7c1.046 1.944 0 7.036 0 7.036s-.069 4.153.181 9.332c0 .141.016.287.022.43-4.529 3.786-9.388 8.8-9.388 8.8a2.465 2.465 0 0 1 .672.3l-.271.347-1.234 1.521-.954 1.178 1.512 4.657 1.651-.645a5.024 5.024 0 0 1 .708 2.605 1.12 1.12 0 0 1-.224.522.658.658 0 0 0-.116.258c-.432 1.687 1.371 8.96 4.231 9.276a1 1 0 0 0 1.281-.553 3.859 3.859 0 0 0-.188-2.256 3.725 3.725 0 0 1-.533-3.788c.573-1.149 1.521-2.688 2.206-3.774l.282-.448c.616.777.995 1.277.995 1.277l2.2-2.365c.047.1.094.2.143.293a7.026 7.026 0 0 0 .569.945l1.492 5.916.6-.134c-.013.143-.022.3-.031.448a7.407 7.407 0 0 0 .491 3.423 2.039 2.039 0 0 0 2 1.252c3.472-.085 4.48-1.964 4.48-1.964v-4.7l1.194-.267s-.087-10.335-.394-16.1c0-.128-.013-.251-.02-.372v-.052l7.668-8.245.589-.235a7.966 7.966 0 0 0 5-6.962 23.977 23.977 0 0 1 .6-5.089c.6-2.321.076-14.374-1.044-17.367a30.522 30.522 0 0 1-1.494-6.366 2.433 2.433 0 0 0 0-2.874 5.736 5.736 0 0 1-.784-1.281l1.458-.24.84-.139.448-.076c-.224 1.98-.262 3.5.269 3.864 1.644 1.12 7.168-2.621 7.168-2.621-2.016 0-3.136-15.046-2.726-15.42s1.021-7.914.486-9.258 1.879-7.345 1.879-7.345l.372-.551s8.812 3.846 9.782 4.583 4.032-1.792 4.554-.813 3.808 2.437 3.808 2.437 4.854-.491 5.376.708 3.66 4.005 3.66 4.005a17.093 17.093 0 0 1 .119-1.969l.195.47c1.487 3.519 3.963 7.974 6.256 5.578 2.598-2.717.62-7.752-.65-10.29zM326.6 183.74v.043l-.018-.018zm-1.738-17.266-.95 10.015-1.866 1.933-.224.237-1.929-2.1s-.972-.448 0-1.272-1.642-2.688-1.642-2.688-.076-1.344.9-1.72 2.24-2.845 2.24-2.845l3.51-1.792zm12.49 51.26a1.188 1.188 0 0 1 .224-.164c.419-.237.688.022.827.479a3.862 3.862 0 0 1-.159 2.3c-.522 1.2.748 5.99.748 5.99a3.643 3.643 0 0 0-1.942 2.171 1.48 1.48 0 0 1-.224.488l-.056-.363c-.146-.9-.224-1.474-.224-1.474a9.538 9.538 0 0 1-.15-3.517l.9-5.475c.045-.269.069-.43.072-.448z" transform="translate(-256.305 -128.328)" style="fill:url(#linear-gradient)"/>
        <path id="Path_5968" data-name="Path 5968" class="cls-16" d="m483.512 220.8.484-.323 1.364 2.878-.524.616h-1.586s.056-1.568.094-1.624.168-1.547.168-1.547z" transform="translate(-392.05 -204.326)"/>
        <path id="Path_5969" data-name="Path 5969" class="cls-7" d="M418.411 731.27v6.16s-1.008 1.875-4.48 1.96a2.038 2.038 0 0 1-2-1.248 7.469 7.469 0 0 1-.491-3.416 13.441 13.441 0 0 1 .168-1.581z" transform="translate(-336.314 -600.699)"/>
        <path id="Path_5970" data-name="Path 5970" class="cls-11" d="M418.461 731.27v1.906l-6.971 1.55a13.434 13.434 0 0 1 .168-1.581z" transform="translate(-336.365 -600.699)"/>
        <path id="Path_5971" data-name="Path 5971" class="cls-17" d="m395.436 576.752-8.736 1.942-1.492-5.9a7.151 7.151 0 0 1-.569-.943c-.1-.188-.19-.388-.28-.6-1.626-3.721-2.35-10.432-2.659-16.141l-.045-.858c-.251-5.165-.181-9.309-.181-9.309s1.046-5.078 0-7.018a13.6 13.6 0 0 1-1.163-4.7c-.022-.284-.031-.448-.031-.448l.161-.423.659-1.743h7.244l4.211 3.564.641.542-.072.448c-.181 1.107-.661 4.032-.9 5.461a9.491 9.491 0 0 0 .15 3.508l.224 1.472c.034.224.072.461.114.719.535 3.311 1.539 9.356 1.967 10.8a16.4 16.4 0 0 1 .3 2.737 54 54 0 0 1 .049.842c.32 5.739.408 16.048.408 16.048z" transform="translate(-312.146 -444.987)"/>
        <path id="Path_5972" data-name="Path 5972" class="cls-11" d="M420.16 758.49v.063s-1.008 1.875-4.48 1.96a2.038 2.038 0 0 1-2-1.248 8.676 8.676 0 0 0 6.48-.775z" transform="translate(-338.064 -621.822)"/>
        <path id="Path_5973" data-name="Path 5973" class="cls-18" d="M662.9 331.666c-2.3 2.39-4.767-2.054-6.256-5.564-.836-1.976-1.36-3.658-1.36-3.658l6.129-2.594s.376.6.849 1.546c1.266 2.531 3.243 7.553.638 10.27z" transform="translate(-525.546 -281.438)"/>
        <path id="Path_5974" data-name="Path 5974" class="cls-18" d="M448.886 196.727a27.967 27.967 0 0 0 .5 6.617s-12.468 1.344-11.348-.6c.656-1.138 1.082-4.142 1.319-6.438.172-1.626.249-2.9.249-2.9s11.946-4.778 10.154-.746a11.852 11.852 0 0 0-.874 4.067z" transform="translate(-356.907 -181.489)"/>
        <path id="Path_5975" data-name="Path 5975" class="cls-16" d="m460.846 239.876-1.675 20.01 7.69-1.268-1.344-16.5.448-4.406z" transform="translate(-367.814 -192.559)"/>
        <path id="Path_5976" data-name="Path 5976" d="m466.852 258.758-3.34.551-4.352.717.307-3.651 1.371-16.359 1.745-.739 1.236-.522 2.137-.9-.448 4.406z" transform="translate(-367.806 -192.668)" style="fill:#141717"/>
        <path id="Path_5977" data-name="Path 5977" class="cls-7" d="M344.925 689.276a3.71 3.71 0 0 0 .533 3.779 3.807 3.807 0 0 1 .188 2.24c-.311.871-1.281.551-1.281.551-3.051-.336-4.9-8.566-4.115-9.509s-.477-3.109-.477-3.109l-1.651.643-1.512-4.646.954-1.176 1.234-1.519.836-1.03 8.344 8.707s-.356.535-.847 1.3c-.685 1.081-1.631 2.627-2.206 3.769z" transform="translate(-278.258 -557.422)"/>
        <path id="Path_5978" data-name="Path 5978" class="cls-11" d="m399.961 615.091-10.4 11.157c-1.823-3.562-2.607-10.707-2.939-16.74a28.544 28.544 0 0 1 5.224-3.671s4.789-3.465 5.8-5.127c.535 3.311 1.539 9.357 1.967 10.8a23.074 23.074 0 0 1 .348 3.581z" transform="translate(-317.065 -499.385)"/>
        <path id="Path_5979" data-name="Path 5979" class="cls-11" d="m368.334 421.944-12.114-1.821.659-1.743h7.244z" transform="translate(-287.924 -332.76)"/>
        <path id="Path_5980" data-name="Path 5980" class="cls-11" d="m399.766 611.765-10.633 11.4c-1.635-3.721-2.359-10.432-2.668-16.141l-.045-.858a29.021 29.021 0 0 1 5.268-3.709s4.469-3.232 5.685-4.95c.034.224.072.461.114.719.535 3.311 1.539 9.356 1.967 10.8a17.876 17.876 0 0 1 .312 2.739z" transform="translate(-316.91 -496.901)"/>
        <path id="Path_5981" data-name="Path 5981" class="cls-11" d="M355.559 684.227s-.356.535-.847 1.3c-1.781-2.251-6-7.435-8.333-8.98l.836-1.03z" transform="translate(-285.839 -557.437)"/>
        <path id="Path_5982" data-name="Path 5982" class="cls-17" d="M381.219 440.446a23.876 23.876 0 0 0-.6 5.078 7.944 7.944 0 0 1-5 6.944l-.589.224-20.384 21.869s-7.542-9.856-10.006-10.454c0 0 9.93-10.23 14.634-12.47 0 0 5.676-4.106 5.974-5.524a3.652 3.652 0 0 1 1.942-2.166s-1.27-4.778-.748-5.974a3.839 3.839 0 0 0 .159-2.3c-.139-.448-.408-.715-.827-.479a1.188 1.188 0 0 0-.224.163l-12.916-1.942v-6.637s-3.136-3.658-2.688-8.138-.524-4.33-.524-4.33.047-7.567.685-8.2 6.771-3.526 6.771-3.526L376.106 406l.793 3.678a12.561 12.561 0 0 0 1.792 4.225 2.42 2.42 0 0 1 0 2.865 30.457 30.457 0 0 0 1.494 6.35c1.122 2.997 1.632 15.014 1.034 17.328z" transform="translate(-284.489 -345.644)"/>
        <path id="Path_5983" data-name="Path 5983" class="cls-11" d="M454.573 192.668a11.9 11.9 0 0 0-.869 4.059 6.944 6.944 0 0 1-9.533-.417c.172-1.626.249-2.9.249-2.9s11.945-4.774 10.153-.742z" transform="translate(-361.724 -181.489)"/>
        <path id="Path_5984" data-name="Path 5984" class="cls-18" d="M449.316 167.926a6.944 6.944 0 1 1-.193-1.628 6.944 6.944 0 0 1 .193 1.628z" transform="translate(-354.94 -158.152)"/>
        <path id="Path_5985" data-name="Path 5985" class="cls-11" d="M406.879 236.865s-4.991-2.314-5.3-2.614-10.665 26.284-10.665 26.284L388 273.751s15.53 6.644 18.89 5.748 3.658 0 3.658 0 3.436-19.264 4.556-20.98-1.046-19.19-1.046-19.19l-3.882-5.08z" transform="translate(-318.136 -215.011)"/>
        <path id="Path_5986" data-name="Path 5986" class="cls-11" d="M406.879 232.865s-4.991-2.314-5.3-2.614-10.665 26.284-10.665 26.284L388 269.751s15.53 6.644 18.89 5.748 3.658 0 3.658 0 3.436-19.264 4.556-20.98-1.046-19.19-1.046-19.19l-3.882-5.08z" transform="translate(-318.136 -211.907)"/>
        <path id="Path_5987" data-name="Path 5987" class="cls-13" d="M415.067 256.527a14.821 14.821 0 0 0-.941 2.995 128.972 128.972 0 0 0-.845 3.7c-1.322 6.167-2.769 14.284-2.769 14.284s-.092-.273-.739-.367a7.681 7.681 0 0 0-2.912.367c-3.36.9-18.892-5.75-18.892-5.75l.448-2.016 2.464-11.2s10.38-26.582 10.678-26.282c.181.181 2.121 1.12 3.6 1.817.943.448 1.7.8 1.7.8L410 232.4l.172-.137 3.864 5.078s2.151 17.468 1.031 19.186z" transform="translate(-318.113 -213.467)"/>
        <path id="Path_5988" data-name="Path 5988" class="cls-11" d="M404.716 237.464c.448 1.723-.6 4.554-.6 4.554s-3.584 8.812-4.63 12.884-7.029 12.28-7.029 12.28-.878.88-2.108 2.106c-.137.137-.28.278-.423.426l2.464-11.2s10.38-26.582 10.678-26.282c.181.181 2.121 1.12 3.6 1.817-.921.841-2.25 2.275-1.952 3.415z" transform="translate(-319.634 -213.443)"/>
        <path id="Path_5989" data-name="Path 5989" class="cls-20" d="M359.346 228.347c.448 1.723-.6 4.554-.6 4.554s-3.584 8.812-4.63 12.885-7.029 12.28-7.029 12.28-.878.88-2.108 2.106l-.448.448c-2.4 2.39-5.777 5.741-6.832 6.72-.155.146-.26.24-.3.271a.945.945 0 0 1-.314.137 14.753 14.753 0 0 1-3.942-.137c-2.24-.224-.372-4.852-.372-4.852l.589-.607.538-.556 6.1-6.279.448-.473 1.866-1.924.95-9.99.022-.24s-.278-.634-.706-1.6c-1.14-2.619-3.38-7.672-4.2-9.3a5.015 5.015 0 0 0-.224-.419c0-.011-.011-.022-.018-.031-.6-.97 1.044-.9 1.044-.9s1.644-.448 1.344-1.12 1.942-1.12 1.868-2.09 1.344-1.12 1.344-1.12 2.016.672 1.792 0 3.136-1.046 3.136-1.046 1.642.822 2.538 0 4.572-.82 4.572-.82-.75-2.838 0-3.66 6.377 3.66 6.377 3.66-3.251 2.383-2.805 4.103z" transform="translate(-274.712 -204.326)"/>
        <path id="Path_5990" data-name="Path 5990" class="cls-11" d="M370.61 411.26s6.2 8.736 10.528 5.9-5.824-10.23-5.824-10.23z" transform="translate(-304.642 -349.012)"/>
        <path id="Path_5991" data-name="Path 5991" class="cls-18" d="M370.61 409.26s6.2 8.736 10.528 5.9-5.824-10.23-5.824-10.23z" transform="translate(-304.642 -347.46)"/>
        <path id="Path_5992" data-name="Path 5992" class="cls-11" d="M490.093 280.077c.473-4.124 1.844-10.32.726-12.2a15 15 0 0 1-1.263-4.652 60.262 60.262 0 0 1-.392-3.181c-.273-2.757-.361-5.118-.361-5.118s-2.688-11.988-2.166-14.452c.327-1.541-.049-5.4-.376-8.077l.173-.137 3.864 5.078s2.164 17.472 1.044 19.19a14.825 14.825 0 0 0-.941 2.995l2.137-.9-.448 4.406 1.344 16.5z" transform="translate(-394.386 -213.468)"/>
        <path id="Path_5993" data-name="Path 5993" class="cls-20" d="M486.58 220.48s3.862 3.237 5.331 3.311a3.952 3.952 0 0 1-2.038 2.54 31.47 31.47 0 0 0 5.526.3c1.494-.231 4.106.146 4.628.9a4.834 4.834 0 0 0 2.551 1.861 4.59 4.59 0 0 1 1.87 1.046l-6.574 9.706s-2.39 5.974-1.868 7.318-.076 8.886-.486 9.258.71 15.382 2.726 15.382c0 0-5.524 3.734-7.168 2.614s2.092-13.216.448-15.98-2.016-12.952-2.016-12.952-2.688-11.986-2.164-14.45-.766-10.854-.766-10.854z" transform="translate(-394.635 -204.326)"/>
        <path id="Path_5994" data-name="Path 5994" class="cls-11" d="M662.258 321.388c-2-.623-5.053-.641-5.618 4.7-.836-1.976-1.36-3.658-1.36-3.658l6.129-2.594s.376.604.849 1.552z" transform="translate(-525.546 -281.43)"/>
        <path id="Path_5995" data-name="Path 5995" class="cls-20" d="m531.756 262.93 3.662.448s1.12 1.494 2.162 1.494 1.866 1.344 1.866 1.344a4.568 4.568 0 0 0 2.464.6c.97-.224 5-.594 5.6.04s4.48 1.23 4.48 1.23 1.494 2.314 2.838 2.314 8.81 5.452 9.034 7.392c0 0-7.392-4.7-7.466 5.638 0 0-3.136-2.8-3.66-3.994s-5.376-.708-5.376-.708-3.284-1.458-3.808-2.428-3.584 1.546-4.554.809-9.782-4.572-9.782-4.572l-2.726-5.123z" transform="translate(-425.605 -237.267)"/>
        <circle id="Ellipse_886" data-name="Ellipse 886" class="cls-21" cx=".634" cy=".634" transform="translate(88.63 33.467)" r=".634"/>
        <circle id="Ellipse_887" data-name="Ellipse 887" class="cls-21" cx=".634" cy=".634" transform="translate(87.996 46.703)" r=".634"/>
        <circle id="Ellipse_888" data-name="Ellipse 888" class="cls-21" cx=".634" cy=".634" transform="translate(88.63 39.737)" r=".634"/>
        <circle id="Ellipse_889" data-name="Ellipse 889" class="cls-21" cx=".634" cy=".634" transform="translate(86.8 53.669)" r=".634"/>
        <path id="Path_5996" data-name="Path 5996" class="cls-11" d="M345.657 704.137c-.311.871-1.281.551-1.281.551-3.051-.336-4.9-8.566-4.115-9.509s-.488-3.12-.488-3.12l-1.651.643-1.512-4.646.954-1.176c.95 1.646 2.309 4.014 2.63 4.619a8.45 8.45 0 0 1 .84 4.032c-.051 1.456 1.637 8.418 4.623 8.606z" transform="translate(-278.258 -566.253)"/>
        <path id="Path_5997" data-name="Path 5997" class="cls-11" d="M449.153 166.316a7.817 7.817 0 0 1-.448-.173 2.912 2.912 0 0 1-1.364-.9c-.284-.417-.376-1-.82-1.241-.511-.273-1.12.1-1.673.224a3.51 3.51 0 0 1-1.985-.264c-.954-.352-2.287-1-3.266-.329-.762.52-.466 1.622-.661 2.408-.3 1.221-1.6 2.016-1.844 3.25-.11.544-.038 1.21-.479 1.548a1.141 1.141 0 0 1-.43.188 6.944 6.944 0 1 1 12.976-4.7z" transform="translate(-354.969 -158.179)"/>
        <path id="Path_5998" data-name="Path 5998" d="M430.88 135.546a3.48 3.48 0 0 0 1.985.262c.562-.132 1.16-.5 1.671-.224.448.24.538.824.82 1.241a2.827 2.827 0 0 0 1.366.9 3.881 3.881 0 0 0 1.216.34 1.378 1.378 0 0 0 1.142-.432 1.771 1.771 0 0 0 .04-1.779 4.389 4.389 0 0 1-.549-1.772c.029-.739.565-1.382.609-2.119a2.369 2.369 0 0 0-1.552-2.128 14.975 14.975 0 0 1-2.343-.9 8.9 8.9 0 0 1-1.83-2.186 4.179 4.179 0 0 0-3.584-1.756c-.849.1-1.62.54-2.464.712-1.284.267-2.641-.121-3.918.177a1.344 1.344 0 0 0-.8.437 1.774 1.774 0 0 0-.013 1.516 3.508 3.508 0 0 1-.141 2.746c-.56.907-1.749 1.29-2.267 2.222a1.972 1.972 0 0 0-.052 1.792c.246.515.724.934.8 1.5a3.611 3.611 0 0 1-.2 1.2 1.072 1.072 0 0 0 .267 1.12c.329.224.791.168 1.044.448a.9.9 0 0 1 .119.771c-.09.448-.28.853-.381 1.292a1.584 1.584 0 0 0 .173 1.292 1.943 1.943 0 0 0 2.016.394 1.4 1.4 0 0 0 .567-.224c.448-.338.37-1 .479-1.548.244-1.232 1.541-2.032 1.843-3.25.195-.786-.1-1.891.661-2.41.987-.633 2.322.014 3.276.366z" transform="translate(-342.991 -130.213)"/>
        <path id="Path_5999" data-name="Path 5999" class="cls-11" d="M463.61 533.93s7.031 4.48 7.255 6.2z" transform="translate(-376.81 -447.563)"/>
        <path id="Path_6000" data-name="Path 6000" class="cls-11" d="M462 549.93s8.064 3.882 7.616 5.226z" transform="translate(-375.56 -459.979)"/>
        <path id="Path_6001" data-name="Path 6001" class="cls-11" d="M459.61 565.26s4.556 2.39 4.854 3.808z" transform="translate(-373.706 -471.875)"/>
        <path id="Path_6002" data-name="Path 6002" class="cls-11" d="M468.28 589.26s2.986 2.614 3.584 1.942-3.584-1.942-3.584-1.942z" transform="translate(-380.434 -490.499)"/>
        <path id="Path_6003" data-name="Path 6003" class="cls-11" d="M449.61 596.6s2.327 3.732 1.207 3.956-1.207-3.956-1.207-3.956z" transform="translate(-365.946 -496.195)"/>
        <path id="Path_6004" data-name="Path 6004" class="cls-11" d="M393.647 300.6s-3.958 2.388-2.764 2.986 2.764-2.986 2.764-2.986z" transform="translate(-320.199 -266.499)"/>
        <path id="Path_6005" data-name="Path 6005" class="cls-11" d="M394.788 261.26s-4.032 7.392-2.166 6.87 2.166-6.87 2.166-6.87z" transform="translate(-321.341 -235.971)"/>
        <path id="Path_6006" data-name="Path 6006" class="cls-11" d="M588.107 294.26s-2.464 2.9-2.016 4.48z" transform="translate(-471.813 -261.579)"/>
        <path id="Path_6007" data-name="Path 6007" class="cls-11" d="M612.878 300.6s-3.7 3.284-3.156 3.658z" transform="translate(-490.151 -266.499)"/>
        <path id="Path_6008" data-name="Path 6008" class="cls-11" d="M633.88 318.61s-.374 2.159.224 2.24z" transform="translate(-508.85 -280.475)"/>
        <path id="Path_6009" data-name="Path 6009" d="M439.122 507.644c-.952 1.232-.952 3.416-1.382 4.312-.235.493-.759 1.344-1.185 2.034-.139-.448-.408-.715-.827-.48-.276-2.054-.762-5.6-.918-6.314-.224-1.008 2.24-3.7 2.24-3.7s2.408.5 3.024 1.736 0 1.182-.952 2.412z" transform="translate(-354.45 -423.95)" style="opacity:.05"/>
        <path id="Path_6010" data-name="Path 6010" class="cls-11" d="M353.346 381.12c-2.688.372-7.69 7.54-7.69 7.54s-.656-.954-1.568-2.287c-1.147-1.691-2.688-4-3.808-5.743l6.563-6.769 1.194 1.286s2.316 2.314 2.316 2.762a4.211 4.211 0 0 0 1.017 1.286 56.372 56.372 0 0 0 1.976 1.925z" transform="translate(-281.106 -323.349)"/>
        <path id="Path_6011" data-name="Path 6011" class="cls-11" d="M359.564 269.489a5.015 5.015 0 0 0-.224-.419l2.894.193 1.534 9.524c-1.144-2.612-3.384-7.665-4.204-9.298z" transform="translate(-295.896 -242.032)"/>
        <path id="Path_6012" data-name="Path 6012" class="cls-11" d="M349.085 381.309c-2.4 2.39-5.777 5.741-6.832 6.72-.155.146-.26.24-.3.271a.944.944 0 0 1-.314.137 267.628 267.628 0 0 1-3.725-5.6l.538-.556 6.102-6.281.755.813s2.316 2.314 2.316 2.762a7 7 0 0 0 1.46 1.734z" transform="translate(-279.267 -325.01)"/>
        <path id="Path_6013" data-name="Path 6013" class="cls-20" d="m323.313 269.154-3.36-.224s-.9 2.09-1.642 2.24-1.718 1.866-1.718 1.866-2.876.524-2.751 1.42-4.422 7.3-4.422 7.3-1.494 3.073-.448 5.313a43.968 43.968 0 0 1 2.016 4.554c.224.82 2.876 4.406 2.854 5.078s6.778 10.528 6.778 10.528 5-7.168 7.69-7.542c0 0-2.986-2.762-2.986-3.21s-2.3-2.762-2.3-2.762l-2.912-3.136s-.972-.448 0-1.27-1.642-2.688-1.642-2.688-.076-1.344.9-1.718 2.24-2.836 2.24-2.836l3.51-1.792z" transform="translate(-256.522 -241.924)"/>
        <path id="Path_6014" data-name="Path 6014" class="cls-11" d="M317 334.626s4.032-.82 4.106-.3-4.106.3-4.106.3z" transform="translate(-263.04 -292.537)"/>
        <path id="Path_6015" data-name="Path 6015" class="cls-11" d="M332 354.43s3.418.448 3.268 1.178S332 354.43 332 354.43z" transform="translate(-274.68 -308.271)"/>
        <path id="Path_6016" data-name="Path 6016" class="cls-11" d="M344.61 297.76s3.286 4.652 3.734 3.689z" transform="translate(-284.466 -264.295)"/>
        <g id="Group_2576" data-name="Group 2576" transform="translate(77.041 -3.48)" style="opacity:.1">
            <path id="Path_6017" data-name="Path 6017" d="M431.522 135.108a5.023 5.023 0 0 0-.2-1.606 4.967 4.967 0 0 1-.148-.672 2.753 2.753 0 0 0 .148 1.12 5.776 5.776 0 0 1 .2 1.158z" transform="translate(-428.673 -132.83)"/>
            <path id="Path_6018" data-name="Path 6018" d="M502.825 156.984c.087-.672.549-1.284.591-1.971a1.749 1.749 0 0 0-.013-.343c-.087.694-.569 1.31-.6 2.016a1.675 1.675 0 0 0 .022.298z" transform="translate(-484.267 -149.778)"/>
            <path id="Path_6019" data-name="Path 6019" d="M445.218 170.131a1.378 1.378 0 0 1-1.142.432 3.883 3.883 0 0 1-1.216-.34 2.908 2.908 0 0 1-1.366-.9c-.284-.417-.376-1-.82-1.241-.511-.273-1.12.1-1.673.224a3.48 3.48 0 0 1-1.982-.262c-.954-.352-2.289-1-3.268-.332-.762.52-.466 1.624-.661 2.41-.3 1.219-1.6 2.016-1.844 3.25-.11.544-.038 1.21-.479 1.548a1.4 1.4 0 0 1-.569.224c-.712.157-1.59.193-2.016-.394a1.2 1.2 0 0 1-.224-.571 1.416 1.416 0 0 0 .224 1.019 1.944 1.944 0 0 0 2.016.394 1.4 1.4 0 0 0 .569-.224c.448-.338.37-1 .479-1.548.244-1.232 1.541-2.032 1.844-3.25.195-.786-.1-1.891.661-2.41.979-.672 2.314-.02 3.268.332a3.474 3.474 0 0 0 1.982.262c.565-.132 1.163-.5 1.673-.224.448.24.535.824.82 1.241a2.827 2.827 0 0 0 1.366.9 3.882 3.882 0 0 0 1.216.34 1.378 1.378 0 0 0 1.142-.432 1.324 1.324 0 0 0 .242-1.028 1.12 1.12 0 0 1-.242.58z" transform="translate(-426.169 -159.677)"/>
            <path id="Path_6020" data-name="Path 6020" d="M421.026 165.337c-.074-.567-.551-.986-.8-1.5a1.9 1.9 0 0 1-.175-.616 1.951 1.951 0 0 0 .175 1.064c.24.5.692.912.786 1.452a1.4 1.4 0 0 0 .014-.4z" transform="translate(-420.04 -156.413)"/>
            <path id="Path_6021" data-name="Path 6021" d="M424.867 182.431a.851.851 0 0 0-.128-.71c-.253-.289-.735-.224-1.044-.448a.784.784 0 0 1-.293-.533 1.009 1.009 0 0 0 .293.981c.293.213.791.168 1.044.448a.611.611 0 0 1 .128.262z" transform="translate(-422.636 -170.008)"/>
        </g>
    </g>
</svg>
