<svg xmlns="http://www.w3.org/2000/svg" width="86" height="28">
    <defs>
        <style>
            .cls-7{fill:#e6e6e6}.cls-8{fill:#eee}
        </style>
    </defs>
    <g id="Group_3488" data-name="Group 3488" transform="translate(-239.359 -73.144)">
        <path id="Rectangle_3430" data-name="Rectangle 3430" transform="translate(239.359 73.144)" style="fill:none" d="M0 0h86v28H0z"/>
        <g id="Group_2404" data-name="Group 2404">
            <path id="Path_5578" data-name="Path 5578" d="M239.359 83.536v-.19a6.059 6.059 0 0 0 .037-.617 8.575 8.575 0 0 1 .322-1.754 10.771 10.771 0 0 1 8.863-7.765 7.223 7.223 0 0 1 .93-.058c.6-.01 1.191-.02 1.785.026a8.554 8.554 0 0 1 1.412.248 10.8 10.8 0 0 1 3.418 1.53q.27.18.525.383a.18.18 0 0 1 .064.085.1.1 0 0 1 0 .043 2.035 2.035 0 0 1-.387.354 10.593 10.593 0 0 0-1.975 2.285 10.436 10.436 0 0 0-1.476 3.641 11.047 11.047 0 0 0-.2 1.785 10.6 10.6 0 0 0 2.763 7.5 12.327 12.327 0 0 0 1.167 1.107c.047.04.1.074.111.146-.01.071-.066.106-.116.143a10.9 10.9 0 0 1-2.932 1.58 10.737 10.737 0 0 1-2.546.562 11.276 11.276 0 0 1-1.865.013 10.366 10.366 0 0 1-2.774-.583 10.688 10.688 0 0 1-2.918-1.579 10.174 10.174 0 0 1-1.177-1.038 10.9 10.9 0 0 1-1.781-2.426 10.568 10.568 0 0 1-1.195-3.744 7.551 7.551 0 0 1-.04-.877v-.162a6.133 6.133 0 0 0-.015-.638z" style="fill:#ea001b"/>
            <path id="Path_5579" data-name="Path 5579" d="M239.359 83.536c.058.055.023.124.025.186v.465c-.008.012-.016.012-.022 0z" style="fill:#f58e9a"/>
            <path id="Path_5580" data-name="Path 5580" d="M239.359 84.186h.022v.162h-.022z" style="fill:#facacf"/>
            <path id="Path_5581" data-name="Path 5581" d="M256.7 75.438a11.085 11.085 0 0 1 2.4-1.422 10.744 10.744 0 0 1 10.993 1.555 10.209 10.209 0 0 1 3.743 6.295 10.44 10.44 0 0 1-3.312 9.914 10.086 10.086 0 0 1-5.473 2.649 10.584 10.584 0 0 1-8.287-2.091.347.347 0 0 1-.047-.047c-.02-.086.048-.119.1-.161a11.238 11.238 0 0 0 1.868-1.969 10.713 10.713 0 0 0 1.415-2.64 10.455 10.455 0 0 0 .6-2.728 10.641 10.641 0 0 0-2.746-8.11 9.766 9.766 0 0 0-1.139-1.079c-.049-.039-.106-.072-.125-.138z" style="fill:#f69d1b"/>
            <path id="Path_5582" data-name="Path 5582" d="M256.7 75.464a1.354 1.354 0 0 1 .362.276 11.149 11.149 0 0 1 1.778 1.955 10.653 10.653 0 0 1 1.476 3 11.119 11.119 0 0 1 .4 1.858 10.46 10.46 0 0 1 .07 1.847 10.34 10.34 0 0 1-.433 2.529 10.631 10.631 0 0 1-2.036 3.783 10.946 10.946 0 0 1-1.521 1.5.528.528 0 0 0-.069.081h-.027l-.6-.537a10.429 10.429 0 0 1-2.15-2.727 10.546 10.546 0 0 1-1.192-3.459 11.594 11.594 0 0 1-.123-1.262 10.163 10.163 0 0 1 .038-1.47 10.339 10.339 0 0 1 .409-2.076 10.635 10.635 0 0 1 1.8-3.472 9.837 9.837 0 0 1 1.818-1.826z" style="fill:#fe5f00"/>
            <path id="Path_5583" data-name="Path 5583" class="cls-7" d="M241.751 97.451a1.06 1.06 0 0 1 1.232-.346.891.891 0 0 1 .481.354c.04.057.058.086.12.011a1.227 1.227 0 0 1 1.518-.294.974.974 0 0 1 .533.869c.02.608.007 1.218.01 1.827 0 .068-.023.083-.086.082-.144 0-.289-.008-.433 0-.093 0-.109-.031-.109-.115V98.4a1.452 1.452 0 0 0-.018-.255.562.562 0 0 0-.591-.531h-.029a.645.645 0 0 0-.663.556 3.034 3.034 0 0 0-.02.513v1.157c0 .084-.016.119-.109.114a3.436 3.436 0 0 0-.406 0c-.088 0-.115-.021-.114-.111.005-.474 0-.948 0-1.422a1.4 1.4 0 0 0-.023-.309.553.553 0 0 0-.531-.489.649.649 0 0 0-.7.412 1.053 1.053 0 0 0-.054.386v1.408c0 .1-.026.133-.127.126a3.925 3.925 0 0 0-.406 0c-.064 0-.1-.008-.1-.086V97.2c0-.068.018-.1.091-.093.145 0 .289.006.434 0 .083 0 .1.033.094.1s.006.137.006.244z"/>
            <path id="Path_5584" data-name="Path 5584" class="cls-7" d="M272.351 96.119c0-.13-.04-.17-.17-.15a1.711 1.711 0 0 1-.32 0c-.12-.02-.14.03-.14.14.01.43.01.87.01 1.34a1.305 1.305 0 0 0-1.76-.12 1.49 1.49 0 0 0-.54 1.49 1.412 1.412 0 0 0 1.6 1.193 1.431 1.431 0 0 0 .158-.033 1.253 1.253 0 0 0 .54-.36 1.749 1.749 0 0 1-.01.24c0 .08.03.1.1.09.14 0 .27 0 .41.01.1 0 .12-.04.12-.13-.01-.42-.01-.85-.01-1.27.006-.81.006-1.62.012-2.44zm-1.45 3.32a.844.844 0 0 1-.863-.823v-.087a.861.861 0 1 1 .86.91z"/>
            <path id="Path_5585" data-name="Path 5585" class="cls-7" d="M266.525 97.109h-.46c-.06 0-.08.02-.08.08v.24a1.327 1.327 0 0 0-1.66-.17 1.532 1.532 0 0 0-.64 1.58 1.408 1.408 0 0 0 1.6 1.17 1.124 1.124 0 0 0 .7-.4 1.763 1.763 0 0 1 0 .23c-.01.08.01.12.11.12.14-.01.28-.01.42-.01.07.01.09-.01.09-.09V97.2c0-.061-.005-.091-.08-.091zm-1.37 2.33a.835.835 0 0 1-.853-.818.7.7 0 0 1 0-.092.856.856 0 1 1 .85.91z"/>
            <path id="Path_5586" data-name="Path 5586" class="cls-7" d="M249.135 97.409c0-.3 0-.3-.3-.3-.1 0-.23-.04-.3.02s-.01.19-.02.3a1.225 1.225 0 0 0-1.5-.25 1.547 1.547 0 0 0-.25 2.57 1.308 1.308 0 0 0 1.72-.1c.01-.01.02 0 .03 0a1.47 1.47 0 0 1 0 .21c-.01.08.02.1.09.09.14 0 .27 0 .41.01.1 0 .13-.02.13-.13-.01-.81-.01-1.61-.01-2.42zm-1.7 2a.908.908 0 0 1-.59-1.05.852.852 0 0 1 .93-.74.912.912 0 1 1-.256 1.806.779.779 0 0 1-.084-.016z"/>
            <path id="Path_5587" data-name="Path 5587" class="cls-7" d="M258.165 98.289a1.352 1.352 0 0 0-1.96-1.12 1.592 1.592 0 0 0-.594 2.172 1.641 1.641 0 0 0 .134.2 1.72 1.72 0 0 0 2.24.13c.04-.03.04-.06.01-.11a3.188 3.188 0 0 1-.2-.3c-.05-.08-.08-.08-.15-.03a1.253 1.253 0 0 1-.55.22.83.83 0 0 1-1.02-.57c-.02-.08-.01-.11.09-.11h1.9c.08 0 .11-.02.11-.1a2.407 2.407 0 0 0-.01-.382zm-.73-.01h-1.26c-.09.01-.12-.01-.1-.1a.74.74 0 0 1 .74-.59.683.683 0 0 1 .7.59c.02.08.01.11-.08.1z"/>
            <path id="Path_5588" data-name="Path 5588" class="cls-7" d="M251.1 97.043a2.188 2.188 0 0 1 .992.229c.087.045.1.088.05.173-.075.118-.108.293-.211.352s-.233-.086-.359-.119a1.573 1.573 0 0 0-.761-.06.507.507 0 0 0-.186.077.265.265 0 0 0-.124.254.226.226 0 0 0 .174.187 5.136 5.136 0 0 0 .717.131 1.66 1.66 0 0 1 .46.153.779.779 0 0 1 .328 1.052.763.763 0 0 1-.137.187 1.3 1.3 0 0 1-.869.356 2.173 2.173 0 0 1-1.337-.29c-.076-.046-.1-.085-.043-.166.077-.11.117-.274.219-.333s.224.093.345.136a1.744 1.744 0 0 0 .957.072.481.481 0 0 0 .174-.071.263.263 0 0 0 .134-.249.233.233 0 0 0-.163-.2 2.6 2.6 0 0 0-.647-.131 1.871 1.871 0 0 1-.492-.14.729.729 0 0 1-.468-.656.8.8 0 0 1 .367-.739 1.483 1.483 0 0 1 .88-.205z"/>
            <path id="Path_5589" data-name="Path 5589" class="cls-7" d="M254.846 99.281c.053.157.1.311.158.462.023.061 0 .081-.048.1a1.414 1.414 0 0 1-1.239.073.759.759 0 0 1-.433-.656 7.461 7.461 0 0 1-.023-.946v-.555c0-.073-.023-.092-.093-.09-.13.006-.261 0-.392 0-.068 0-.1-.014-.092-.088.006-.131 0-.262 0-.393 0-.075.027-.09.094-.088.131.005.262 0 .393 0 .072 0 .091-.022.089-.091v-.664c0-.091.028-.116.115-.111a3.663 3.663 0 0 0 .392 0c.093-.005.126.021.122.118-.007.217 0 .433 0 .65 0 .076.022.1.1.1h.812c.08 0 .116.017.108.1-.013.151.063.35-.031.441-.075.074-.273.021-.417.023s-.316 0-.474 0c-.065 0-.1.01-.1.087 0 .41 0 .821.006 1.231.009.355.206.5.557.432a1.639 1.639 0 0 0 .396-.135z"/>
            <path id="Path_5590" data-name="Path 5590" class="cls-7" d="M262.4 97.043a1.434 1.434 0 0 1 .862.274c.066.046.079.08.032.149a3.122 3.122 0 0 0-.194.324c-.039.077-.07.079-.141.033a1.116 1.116 0 0 0-.757-.2.863.863 0 0 0-.759.957v.026a.878.878 0 0 0 .91.845.864.864 0 0 0 .346-.085.73.73 0 0 0 .217-.106c.111-.093.161-.048.211.06a1.37 1.37 0 0 0 .146.244c.065.087.052.132-.039.2a1.583 1.583 0 0 1-2.2-.421 1.607 1.607 0 0 1-.129-.229 1.486 1.486 0 0 1 1.491-2.071z"/>
            <path id="Path_5591" data-name="Path 5591" class="cls-7" d="M259.431 97.451a.933.933 0 0 1 1.076-.371c.089.019.117.053.079.147a4.159 4.159 0 0 0-.13.4c-.018.06-.045.08-.1.05a.4.4 0 0 0-.09-.025.618.618 0 0 0-.825.677c-.005.5 0 1.01 0 1.515 0 .083-.014.12-.108.114-.14-.009-.28 0-.42 0-.064 0-.1-.011-.1-.087v-2.665c0-.083.031-.1.1-.1.135 0 .271.007.406 0 .091-.005.12.026.111.113-.004.064.001.127.001.232z"/>
            <path id="Path_5592" data-name="Path 5592" class="cls-7" d="M268.029 97.413c.055-.007.066-.047.087-.073a.95.95 0 0 1 1.04-.244c.05.014.065.033.046.085-.052.148-.1.3-.147.449-.018.062-.045.061-.1.046a1.383 1.383 0 0 0-.211-.043.565.565 0 0 0-.684.413.572.572 0 0 0-.016.154c-.019.509-.01 1.019-.012 1.528 0 .224 0 .226-.228.224-.126 0-.294.042-.365-.022s-.024-.245-.025-.374v-2.3c0-.112.016-.165.144-.15a1.872 1.872 0 0 0 .351 0c.1-.008.127.029.117.121a1.444 1.444 0 0 0 .003.186z"/>
        </g>
        <g id="Group_3475" data-name="Group 3475">
            <path id="Path_9090" data-name="Path 9090" class="cls-8" d="m289.47 79.276-3.836 10.632-.454-2.29-1.354-6.951a1.723 1.723 0 0 0-1.909-1.392h-6.343l-.074.262a15.02 15.02 0 0 1 4.209 1.767l3.5 13.429h4.191l6.4-15.458z"/>
            <path id="Path_9091" data-name="Path 9091" class="cls-8" d="m295.371 79.276-2.515 15.457h4.024l2.52-15.457z"/>
            <path id="Path_9092" data-name="Path 9092" class="cls-8" d="M321.6 79.276h-3.235a1.85 1.85 0 0 0-1.858 1.152l-6 14.305h4.193l.839-2.3h5.116l.471 2.3h3.7zm-4.9 9.99 2.115-5.785L320 89.266z"/>
            <path id="Path_9093" data-name="Path 9093" class="cls-8" d="M310.817 82.993z"/>
            <path id="Path_9094" data-name="Path 9094" class="cls-8" d="M305.175 83.568c0-1.748 3.92-1.524 5.642-.575l.574-3.319a11.613 11.613 0 0 0-3.619-.674c-2 0-6.74.873-6.74 5.117 0 3.993 5.566 4.043 5.566 6.141s-4.992 1.721-6.64.4l-.6 3.47A11.276 11.276 0 0 0 303.9 95c2.746 0 6.889-1.422 6.889-5.292.002-4.019-5.614-4.393-5.614-6.14z"/>
        </g>
    </g>
</svg>
